<svg width="60" height="60" viewBox="0 0 60 60" fill="none" xmlns="http://www.w3.org/2000/svg">
<path fill-rule="evenodd" clip-rule="evenodd" d="M9.25 30C9.25 18.5401 18.5401 9.25 30 9.25C33.3159 9.25 36.4454 10.0265 39.2212 11.4059C40.0867 11.8361 41.137 11.4831 41.5672 10.6176C41.9973 9.75209 41.6443 8.70177 40.7788 8.27165C37.5298 6.65705 33.8683 5.75 30 5.75C16.6071 5.75 5.75 16.6071 5.75 30C5.75 43.3929 16.6071 54.25 30 54.25C43.3929 54.25 54.25 43.3929 54.25 30C54.25 29.0906 54.1999 28.1923 54.1021 27.3077C53.9959 26.3471 53.131 25.6544 52.1704 25.7606C51.2098 25.8668 50.5171 26.7316 50.6233 27.6923C50.707 28.4494 50.75 29.2193 50.75 30C50.75 41.4599 41.4599 50.75 30 50.75C18.5401 50.75 9.25 41.4599 9.25 30ZM53.7374 13.7374C54.4209 13.054 54.4209 11.946 53.7374 11.2626C53.054 10.5791 51.946 10.5791 51.2626 11.2626L30 32.5251L23.7374 26.2626C23.054 25.5791 21.946 25.5791 21.2626 26.2626C20.5791 26.946 20.5791 28.054 21.2626 28.7374L28.7626 36.2374C29.0908 36.5656 29.5359 36.75 30 36.75C30.4641 36.75 30.9092 36.5656 31.2374 36.2374L53.7374 13.7374Z" fill="#27AE60"/>
</svg>
