<svg width="34" height="40" fill="none" xmlns="http://www.w3.org/2000/svg"><path fill-rule="evenodd" clip-rule="evenodd" d="M20.075 29.961h2.21v10.037h-2.21V29.961zm-8.406 0h2.21v10.037h-2.21V29.961zm4.219 0h2.21v10.037h-2.21V29.961z" fill="#F5750C"/><path fill-rule="evenodd" clip-rule="evenodd" d="M31.383 31.46l-5.554 5.524v-10.49h-3.62v-6.138h3.62V9.786h5.554V31.46zM4.2 0h25.582a4.22 4.22 0 013.76 2.31H2.424v5.893h11.457v18.345h6.095V8.203h14.008v24.112L26.123 40h-2.247V28.509H10.108V40H7.862L0 32.315V4.165C0 1.873 1.89 0 4.201 0zm7.446 26.493h-3.56v10.491L2.534 31.46V9.787h5.555v10.569h3.56v6.137z" fill="#1C6BB9"/></svg>