<svg width="200" height="53" fill="none" xmlns="http://www.w3.org/2000/svg"><path fill-rule="evenodd" clip-rule="evenodd" d="M26.414 39.423h2.907v13.206h-2.907V39.423zm-11.06 0h2.906v13.206h-2.907V39.423zm5.55 0h2.907v13.206h-2.906V39.423z" fill="#F5750C"/><path fill-rule="evenodd" clip-rule="evenodd" d="M41.293 41.395l-7.307 7.269V34.86h-4.763v-8.076h4.763V12.877h7.307v28.518zM5.528 0h33.66a5.55 5.55 0 014.947 3.039H3.19v7.754h15.074v24.14h8.019v-24.14h18.432V42.52L34.372 52.632h-2.956v-15.12H13.3v15.12h-2.956L0 42.52V5.48C0 2.465 2.486 0 5.528 0zm9.798 34.86h-4.684v13.804l-7.31-7.269V12.877h7.31v13.907h4.684v8.076z" fill="#fff"/><path d="M55.405 34.55h-1.3v3.85h.828v-1.727c0-.34-.045-.819-.082-1.13h.01l.983 2.858h.756l.981-2.857h.005c-.037.31-.081.789-.081 1.13V38.4h.876v-3.852h-1.227l-.873 2.57-.876-2.57zm4.376 3.85l.142-.644h1.35l.146.645h.928l-.817-3.308c-.111-.434-.411-.604-.932-.604-.517 0-.817.17-.928.604l-.817 3.307h.928zm.817-3.174c.097 0 .12.033.13.103l.367 1.636h-.986l.363-1.636c.016-.07.026-.103.126-.103zm2.22 3.175h.917v-1.228h.679c.4 0 .788-.13 1.053-.439.191-.238.268-.55.268-.88 0-.348-.105-.696-.368-.943a1.36 1.36 0 00-.953-.362h-1.595v3.852zm.917-3.06h.679a.42.42 0 01.286.1c.114.119.126.264.126.413 0 .175-.024.317-.1.406-.077.098-.198.114-.312.114h-.68V35.34zm3.442-.792h-.917v3.852h.917v-1.557h.302c.258 0 .444.17.553.572l.28.985h1.025l-.481-1.315c-.1-.266-.258-.667-.565-.81l.986-1.727H68.25l-.784 1.53h-.29v-1.53zm5.023 3.852v-.799h-1.184c-.274 0-.456-.203-.456-.43v-.296h1.421v-.803h-1.42v-.259c0-.275.17-.474.455-.474H72.2v-.79h-1.184c-.972 0-1.36.548-1.36 1.122v1.573c0 .616.432 1.156 1.36 1.156H72.2zm3.053-3.06v-.792h-2.63v.791h.854v3.06h.9v-3.06h.877zm2.924 0h1.107v3.06h.916v-3.852h-2.94v3.852h.917v-3.06zm4.781 3.06h.905v-3.852h-2.54c-.053.836-.11 1.578-.214 2.481-.025.304-.086.617-.486.605v.798c.877.017 1.107-.24 1.289-1.03.07-.324.158-1.572.207-2.063h.84v3.06zm4.08 0v-.799h-1.184c-.275 0-.456-.203-.456-.43v-.296h1.42v-.803h-1.42v-.259c0-.275.172-.474.456-.474h1.183v-.79h-1.184c-.97 0-1.36.548-1.36 1.122v1.573c0 .616.435 1.156 1.36 1.156h1.184zm1.936-4.545c-.109 0-.209-.112-.209-.222h-.586c0 .434.323.672.695.672h.528c.377 0 .696-.238.696-.672h-.582c0 .11-.104.222-.214.222h-.328zm1.633.693h-.86l-.977 1.82a4.57 4.57 0 00-.28.612h-.011a4.99 4.99 0 00.051-.644V34.55h-.86v3.852h.86l.99-1.85c.106-.177.19-.38.254-.555h.021a3.712 3.712 0 00-.049.617V38.4h.86v-3.852zm3.098 3.852v-.799H92.62c-.298 0-.46-.203-.46-.43v-1.358c0-.275.158-.474.46-.474h1.084v-.79H92.62c-.989 0-1.384.548-1.384 1.122v1.573c0 .616.444 1.156 1.384 1.156h1.084zm1.893-3.852v.791h1.15c.296 0 .45.094.45.365-.005.252-.18.357-.426.357h-.863v.77h.96c.291 0 .429.138.429.369 0 .259-.1.401-.4.401h-1.3v.799h1.3c.762 0 1.304-.358 1.304-1.107 0-.434-.214-.747-.516-.868a.936.936 0 00.416-.761c.023-.754-.497-1.116-1.26-1.116h-1.244zm3.707 3.852l.141-.645h1.349l.149.645h.926l-.817-3.308c-.109-.434-.411-.604-.932-.604-.514 0-.816.17-.926.604l-.818 3.307h.928zm.816-3.175c.1 0 .121.033.132.103l.368 1.636h-.989l.363-1.636c.017-.07.028-.103.126-.103zm3.137.114h1.107v3.06h.916v-3.85h-2.939v3.85h.916v-3.06zm5.637 3.06v-3.85h-.916v1.69h-.619c-.362 0-.495-.183-.495-.486v-1.205h-.905v1.205c0 .798.554 1.255 1.4 1.255h.619v1.392h.916zm1.398 0l.142-.644h1.349l.149.645h.927l-.818-3.308c-.109-.434-.412-.604-.933-.604-.514 0-.816.17-.925.604l-.819 3.307h.928zm.816-3.174c.1 0 .121.033.133.103l.367 1.636h-.988l.363-1.636c.016-.07.028-.103.125-.103zm4.584 3.175v-.799h-1.084c-.297 0-.46-.203-.46-.43v-1.358c0-.275.158-.474.46-.474h1.084v-.79h-1.084c-.988 0-1.381.548-1.381 1.122v1.573c0 .616.442 1.156 1.381 1.156h1.084zm2.984-3.06v-.792h-2.633v.791h.856v3.06h.9v-3.06h.877zm2.967 3.06v-.799h-1.184c-.274 0-.455-.203-.455-.43v-.296h1.421v-.803h-1.421v-.259c0-.275.169-.474.455-.474h1.184v-.79h-1.184c-.972 0-1.36.548-1.36 1.122v1.573c0 .616.433 1.156 1.36 1.156h1.184zm1.935-4.545c-.109 0-.209-.112-.209-.222h-.586c0 .434.323.672.697.672h.526c.379 0 .695-.238.695-.672h-.579c0 .11-.104.222-.214.222h-.33zm1.635.693h-.861l-.976 1.82a4.18 4.18 0 00-.279.612h-.012a4.99 4.99 0 00.049-.644V34.55h-.861v3.852h.861l.993-1.85c.105-.177.186-.38.251-.555h.023a3.777 3.777 0 00-.049.617V38.4h.861v-3.852zm3.119.791h1.36v-.79h-2.265v3.85h.905v-3.06zm1.886 3.06h.916v-1.227h.681c.4 0 .789-.13 1.051-.439.193-.238.27-.55.27-.88 0-.348-.104-.696-.367-.943a1.367 1.367 0 00-.954-.362h-1.597v3.852zm.916-3.06h.681c.119 0 .219.04.284.1.116.12.126.265.126.414 0 .175-.021.317-.098.406-.077.098-.198.114-.312.114h-.681V35.34zm2.709 2.262v.799h.602c.856 0 1.131-.362 1.345-1.151l.735-2.7h-.982l-.432 1.825h-.177c-.165 0-.226-.033-.263-.17l-.46-1.656h-.97l.646 1.942c.154.434.412.682.882.682h.149c-.061.254-.149.43-.473.43h-.602zm2.956-3.053v.791h1.151c.295 0 .449.094.449.365-.005.252-.181.357-.428.357h-.86v.77h.96c.291 0 .428.138.428.369 0 .259-.1.401-.4.401h-1.3v.799h1.3c.76 0 1.305-.358 1.305-1.107 0-.434-.214-.747-.517-.868a.935.935 0 00.417-.761c.023-.754-.498-1.116-1.261-1.116H136.8zm6.542 1.926c0-1.135-.363-1.965-1.716-1.965-1.361 0-1.724.83-1.724 1.965 0 1.123.351 1.958 1.724 1.958 1.369 0 1.716-.835 1.716-1.958zm-1.716-1.167c.755 0 .811.579.811 1.167 0 .579-.049 1.16-.811 1.16-.768 0-.807-.581-.807-1.16 0-.588.048-1.167.807-1.167zm2.346 3.093h1.514c.756 0 1.326-.358 1.337-1.107 0-.434-.218-.747-.532-.868a.902.902 0 00.411-.761c.024-.754-.537-1.116-1.293-1.116h-1.437v3.852zm.877-1.569h.646c.303 0 .428.138.428.369 0 .259-.093.425-.388.425h-.686v-.794zm.532-1.503c.296 0 .449.105.449.376 0 .252-.181.368-.428.368h-.553v-.744h.532zm5.352 1.146c0-1.135-.361-1.965-1.717-1.965-1.36 0-1.721.83-1.721 1.965 0 1.123.351 1.958 1.721 1.958 1.372 0 1.717-.835 1.717-1.958zm-1.717-1.167c.758 0 .812.579.812 1.167 0 .579-.049 1.16-.812 1.16-.767 0-.804-.581-.804-1.16 0-.588.048-1.167.804-1.167zm3.651-1.452c-.109 0-.207-.112-.207-.222h-.586c0 .434.324.672.696.672h.525c.379 0 .698-.238.698-.672h-.581c0 .11-.105.222-.214.222h-.331zm1.635.693h-.86l-.977 1.82c-.109.2-.198.39-.279.612h-.012a4.99 4.99 0 00.049-.644V34.55h-.86v3.852h.86l.993-1.85a3.79 3.79 0 00.254-.555h.021a3.67 3.67 0 00-.049.617V38.4h.86v-3.852zm5.149 0h-.865l-.977 1.82c-.109.2-.193.39-.27.612h-.016a4.99 4.99 0 00.049-.644V34.55h-.853v3.852h.853l.993-1.85c.1-.177.186-.38.258-.555h.016a3.286 3.286 0 00-.053.617V38.4h.865v-3.852zm4.579 3.852v-.799h-1.086c-.295 0-.46-.203-.46-.43v-1.358c0-.275.158-.474.46-.474h1.086v-.79h-1.086c-.986 0-1.381.548-1.381 1.122v1.573c0 .616.444 1.156 1.381 1.156h1.086zm1.475-3.06h1.107v3.06h.916v-3.852h-2.94v3.852h.917v-3.06zm5.197 3.06v-.799h-1.183c-.275 0-.456-.203-.456-.43v-.296h1.421v-.803h-1.421v-.259c0-.275.17-.474.456-.474h1.183v-.79h-1.183c-.97 0-1.361.548-1.361 1.122v1.573c0 .616.435 1.156 1.361 1.156h1.183zm2.656-.799h-1.114V34.55h-.911v3.852h2.365l.076.749h.833v-1.548h-.344V34.55h-.905v3.053zm5.728-2.261v-.792h-2.63v.791h.853v3.06h.9v-3.06h.877zm2.967 3.06v-.799h-1.183c-.275 0-.456-.203-.456-.43v-.296h1.421v-.803h-1.421v-.259c0-.275.17-.474.456-.474h1.183v-.79h-1.183c-.972 0-1.361.548-1.361 1.122v1.573c0 .616.433 1.156 1.361 1.156h1.183zm3.598-3.852h-1.037l-.575 1.095-.572-1.095h-1.03l1.163 1.87-1.284 1.982h1.07l.653-1.193.659 1.193h1.074l-1.288-1.982 1.167-1.87zm1.402 0h-.914v3.852h.914v-1.58h1.203v1.58h.909v-3.852h-.909v1.475h-1.203V34.55zm5.782 0h-.868l-.976 1.82c-.11.2-.191.39-.268.612h-.016a4.99 4.99 0 00.049-.644V34.55h-.856v3.852h.856l.993-1.85c.097-.177.186-.38.258-.555h.016a3.122 3.122 0 00-.056.617V38.4h.868v-3.852zm1.649 0h-.914v3.852h.914v-1.557h.302c.258 0 .444.17.553.572l.28.985h1.025l-.481-1.315c-.1-.266-.258-.667-.565-.81l.986-1.727h-1.026l-.784 1.53h-.29v-1.53zm5.516 0h-.865l-.977 1.82c-.109.2-.191.39-.27.612h-.016a4.99 4.99 0 00.051-.644V34.55h-.856v3.852h.856l.991-1.85c.1-.177.188-.38.258-.555h.016a3.286 3.286 0 00-.053.617V38.4H200v-3.852z" fill="#F5750C"/><path fill-rule="evenodd" clip-rule="evenodd" d="M193.337 22.004c1.195 0 2.105-.255 2.723-.764.619-.508.931-1.237.931-2.184 0-.946-.312-1.674-.931-2.183-.618-.509-1.528-.763-2.723-.763h-3.212v5.894h3.212zm.126-8.226c1.281 0 2.397.213 3.348.637.949.423 1.68 1.03 2.184 1.823.507.79.763 1.73.763 2.818 0 1.073-.256 2.012-.763 2.808-.504.8-1.235 1.41-2.184 1.834-.951.425-2.067.637-3.348.637h-3.338v4.284h-2.746v-14.84h6.084zm-16.961 12.635c.984 0 1.872-.224 2.661-.668a4.848 4.848 0 001.86-1.865c.449-.8.675-1.692.675-2.682s-.226-1.883-.675-2.681a4.839 4.839 0 00-1.86-1.868c-.789-.443-1.677-.665-2.661-.665-.986 0-1.874.222-2.663.665a4.82 4.82 0 00-1.858 1.867c-.451.799-.676 1.693-.676 2.682 0 .99.225 1.882.676 2.682a4.83 4.83 0 001.858 1.865c.789.444 1.677.668 2.663.668zm0 2.416c-1.507 0-2.865-.33-4.079-.985a7.287 7.287 0 01-2.849-2.736c-.69-1.167-1.037-2.47-1.037-3.91 0-1.442.347-2.747 1.037-3.912a7.287 7.287 0 012.849-2.735c1.214-.656 2.572-.985 4.079-.985 1.507 0 2.865.329 4.077.985a7.343 7.343 0 012.851 2.724c.688 1.16 1.035 2.467 1.035 3.923 0 1.455-.347 2.764-1.035 3.922a7.326 7.326 0 01-2.851 2.724c-1.212.655-2.57.985-4.077.985zm-21.27-6.57v6.36h-2.746v-14.84h2.746v8.478zm10.391-8.48v14.84h-2.746v-6.36h-6.747v-2.354h6.747v-6.127h2.746zm-21.839 15.05a11.21 11.21 0 01-3.305-.488c-1.065-.325-1.905-.757-2.523-1.293l.949-2.14c.606.48 1.348.872 2.227 1.176a8.107 8.107 0 002.652.455c1.097 0 1.918-.178 2.46-.53.542-.352.814-.82.814-1.398 0-.425-.151-.773-.456-1.048-.302-.278-.686-.493-1.151-.649a26.363 26.363 0 00-1.9-.53c-1.126-.268-2.037-.537-2.735-.805a4.479 4.479 0 01-1.795-1.263c-.5-.572-.749-1.344-.749-2.32 0-.82.221-1.564.665-2.236.444-.672 1.112-1.204 2.005-1.601.895-.395 1.99-.593 3.286-.593.902 0 1.788.112 2.66.338.875.227 1.628.551 2.261.976l-.865 2.14a8.556 8.556 0 00-2.028-.868 7.554 7.554 0 00-2.049-.296c-1.084 0-1.891.182-2.419.55-.53.367-.793.855-.793 1.464 0 .422.151.768.456 1.036.3.271.686.484 1.151.638.463.156 1.098.331 1.9.53 1.098.254 2 .52 2.703.795a4.633 4.633 0 011.806 1.26c.5.566.752 1.331.752 2.29a3.92 3.92 0 01-.668 2.227c-.442.663-1.116 1.193-2.016 1.59-.902.394-2 .593-3.295.593z" fill="#F5750C"/><path fill-rule="evenodd" clip-rule="evenodd" d="M122.684 23.232l-1.563 1.675v3.712h-4.142v-14.84h4.142v6.168l5.723-6.169h4.605l-6.042 6.573 6.358 8.268h-4.858l-4.223-5.387zm-13.919 5.683c-1.551 0-2.942-.33-4.174-.985a7.374 7.374 0 01-2.903-2.747c-.704-1.172-1.055-2.502-1.055-3.985 0-1.484.351-2.812 1.055-3.986a7.352 7.352 0 012.903-2.745c1.232-.658 2.623-.985 4.174-.985 1.351 0 2.568.24 3.654.719a7.065 7.065 0 012.702 2.08l-2.661 2.415c-.958-1.157-2.12-1.739-3.486-1.739-.802 0-1.516.178-2.144.53a3.693 3.693 0 00-1.456 1.494c-.346.644-.518 1.382-.518 2.217 0 .834.172 1.571.518 2.215.345.642.831 1.14 1.456 1.494.628.355 1.342.53 2.144.53 1.366 0 2.528-.579 3.486-1.739l2.661 2.418a7.06 7.06 0 01-2.702 2.078c-1.086.478-2.303.721-3.654.721zm-17.153 0c-2.196 0-3.905-.602-5.121-1.802-1.219-1.202-1.828-2.906-1.828-5.11v-8.225h4.181v8.097c0 2.377.937 3.562 2.81 3.562 1.858 0 2.788-1.186 2.788-3.562v-8.097h4.119v8.226c0 2.203-.608 3.907-1.826 5.11-1.219 1.199-2.926 1.801-5.123 1.801zM75.62 24.674h-1.084V21.43h1.128c.858 0 1.505-.187 1.942-.56.437-.376.656-.909.656-1.602 0-.693-.219-1.23-.656-1.61-.437-.383-1.084-.575-1.942-.575h-2.323c0 3.854-.028 7.666-.028 11.536h-4.156v-14.84h6.76c1.338 0 2.498.221 3.484.667.986.446 1.747 1.08 2.284 1.907.533.826.8 1.8.8 2.915 0 1.074-.249 2.01-.749 2.808-.5.8-1.214 1.424-2.142 1.877l3.189 4.666h-4.48l-2.683-3.945zm-16.728-7.567h-4.54v-3.329h13.242v3.329h-4.518v11.512h-4.184V17.107z" fill="#fff"/></svg>