<svg width="152" height="40" fill="none" xmlns="http://www.w3.org/2000/svg"><path fill-rule="evenodd" clip-rule="evenodd" d="M20.075 29.961h2.209v10.037h-2.21V29.961zm-8.406 0h2.209v10.037h-2.21V29.961zm4.218 0h2.21v10.037h-2.21V29.961z" fill="#F5750C"/><path fill-rule="evenodd" clip-rule="evenodd" d="M31.383 31.46l-5.554 5.524v-10.49h-3.62v-6.138h3.62V9.786h5.554V31.46zM4.2 0h25.582a4.22 4.22 0 013.76 2.31H2.424v5.893h11.457v18.345h6.095V8.203h14.008v24.112L26.123 40h-2.247V28.509H10.108V40H7.862L0 32.315V4.165C0 1.873 1.89 0 4.201 0zm7.446 26.493h-3.56v10.491L2.534 31.46V9.787h5.555v10.569h3.56v6.137z" fill="#184C80"/><path d="M42.108 26.258h-.988v2.926h.629v-1.312c0-.26-.034-.623-.062-.859h.007l.748 2.171h.574l.746-2.17h.003a8.32 8.32 0 00-.062.858v1.312h.667v-2.927h-.933l-.663 1.954-.666-1.953zm3.326 2.926l.108-.49h1.025l.111.49h.705l-.62-2.513c-.085-.33-.313-.46-.709-.46-.392 0-.62.13-.705.46l-.62 2.513h.705zm.62-2.412c.074 0 .092.025.1.078l.278 1.243h-.749l.276-1.243c.012-.053.02-.078.095-.078zm1.688 2.412h.697v-.933h.516c.304 0 .599-.099.8-.333.145-.181.203-.419.203-.669 0-.264-.08-.528-.279-.717a1.034 1.034 0 00-.724-.274h-1.213v2.926zm.697-2.325h.516a.32.32 0 01.217.076c.087.09.095.2.095.314 0 .133-.017.241-.076.309-.058.074-.15.087-.236.087h-.517v-.786zm2.615-.602h-.696v2.927h.696v-1.183h.23c.196 0 .338.13.42.435l.213.748h.78l-.367-.998c-.076-.203-.196-.508-.43-.616l.75-1.313h-.78l-.595 1.162h-.22v-1.162zm3.818 2.927v-.606h-.9a.332.332 0 01-.346-.327v-.225h1.08v-.61h-1.08v-.197c0-.21.129-.36.346-.36h.9v-.602h-.9c-.738 0-1.034.417-1.034.854v1.195c0 .469.33.878 1.034.878h.9zm2.32-2.325v-.602h-1.998v.602h.648v2.325h.684V26.86h.667zm2.222 0h.842v2.325h.696v-2.927h-2.234v2.927h.696V26.86zm3.634 2.325h.688v-2.927h-1.93a34.65 34.65 0 01-.163 1.886c-.02.23-.065.468-.37.46v.606c.667.013.842-.182.98-.782.053-.247.12-1.196.157-1.568h.638v2.325zm3.1 0v-.606h-.9a.332.332 0 01-.346-.327v-.225h1.08v-.61h-1.08v-.197c0-.21.131-.36.347-.36h.9v-.602h-.9c-.737 0-1.034.417-1.034.854v1.195c0 .469.33.878 1.034.878h.9zm1.473-3.453c-.084 0-.16-.086-.16-.169h-.445c0 .33.246.511.528.511h.402c.286 0 .528-.18.528-.51h-.442c0 .082-.08.168-.162.168h-.25zm1.24.526h-.654l-.742 1.384c-.083.15-.148.296-.212.465h-.009c.021-.16.039-.33.039-.49v-1.358h-.654v2.926h.654l.753-1.405c.08-.134.143-.289.192-.422h.016a2.83 2.83 0 00-.037.469v1.358h.654v-2.927zm2.355 2.927v-.606h-.824c-.226 0-.35-.155-.35-.327V27.22c0-.21.12-.36.35-.36h.824v-.602h-.824c-.751 0-1.052.417-1.052.854v1.195c0 .469.338.878 1.052.878h.824zm1.438-2.927v.602h.875c.225 0 .341.07.341.277-.003.191-.136.271-.323.271h-.656v.585h.73c.22 0 .325.105.325.28 0 .198-.076.306-.304.306h-.988v.606h.988c.58 0 .992-.271.992-.84 0-.33-.163-.568-.393-.66a.711.711 0 00.317-.579c.017-.573-.379-.848-.958-.848h-.946zm2.818 2.927l.107-.49h1.025l.114.49h.703l-.62-2.513c-.084-.33-.313-.46-.71-.46-.39 0-.62.13-.703.46l-.622 2.513h.706zm.62-2.412c.076 0 .092.025.1.078l.28 1.243h-.751l.275-1.243c.013-.053.022-.078.096-.078zm2.384.087h.841v2.325h.697v-2.927H77.78v2.927h.696V26.86zm4.284 2.325v-2.927h-.696v1.285h-.47c-.276 0-.376-.139-.376-.37v-.915h-.688v.916c0 .607.42.954 1.064.954h.47v1.057h.696zm1.063 0l.108-.49h1.025l.113.49h.705l-.622-2.513c-.083-.33-.313-.46-.709-.46-.39 0-.62.13-.703.46l-.622 2.513h.705zm.62-2.412c.076 0 .092.025.1.078l.28 1.243h-.751l.276-1.243c.012-.053.02-.078.095-.078zm3.484 2.412v-.606h-.824c-.226 0-.35-.155-.35-.327V27.22c0-.21.12-.36.35-.36h.824v-.602h-.824c-.751 0-1.05.417-1.05.854v1.195c0 .469.336.878 1.05.878h.824zm2.267-2.325v-.602h-2v.602h.65v2.325h.684V26.86h.666zm2.256 2.325v-.606h-.9a.331.331 0 01-.346-.327v-.225h1.08v-.61h-1.08v-.197c0-.21.129-.36.346-.36h.9v-.602h-.9c-.739 0-1.034.417-1.034.854v1.195c0 .469.329.878 1.034.878h.9zm1.47-3.453c-.083 0-.159-.086-.159-.169h-.445c0 .33.245.511.53.511h.4c.287 0 .528-.18.528-.51h-.44c0 .082-.08.168-.163.168h-.25zm1.243.526h-.654l-.743 1.384a3.23 3.23 0 00-.212.465h-.009c.022-.16.037-.33.037-.49v-1.358h-.653v2.926h.653l.755-1.405c.08-.134.142-.289.191-.422h.018a2.83 2.83 0 00-.037.469v1.358h.654v-2.927zm2.37.602h1.034v-.602h-1.722v2.927h.688V26.86zm1.433 2.325h.697v-.933h.517c.304 0 .6-.099.799-.333.147-.181.205-.419.205-.669 0-.264-.079-.528-.279-.717a1.037 1.037 0 00-.725-.274h-1.214v2.926zm.697-2.325h.517c.09 0 .166.03.216.076.088.09.095.2.095.314 0 .133-.015.241-.074.309-.058.074-.15.087-.237.087h-.518v-.786zm2.059 1.719v.606h.457c.651 0 .859-.274 1.022-.874l.558-2.052h-.745l-.329 1.387h-.135c-.125 0-.171-.025-.199-.13l-.35-1.258h-.737l.491 1.476c.117.33.313.518.67.518h.113c-.046.194-.113.327-.359.327h-.457zm2.246-2.32v.6h.875c.224 0 .341.072.341.278-.004.191-.138.271-.325.271h-.654v.585h.73c.221 0 .325.105.325.28 0 .198-.076.306-.304.306h-.988v.606h.988c.578 0 .992-.271.992-.84 0-.33-.163-.568-.393-.66a.71.71 0 00.316-.579c.018-.573-.378-.848-.957-.848h-.946zm4.972 1.463c0-.862-.276-1.494-1.305-1.494-1.034 0-1.309.632-1.309 1.494 0 .853.267 1.488 1.309 1.488 1.041 0 1.305-.635 1.305-1.488zm-1.305-.887c.575 0 .617.44.617.887 0 .44-.037.882-.617.882-.583 0-.613-.442-.613-.882 0-.447.037-.887.613-.887zm1.784 2.35h1.15c.575 0 1.008-.271 1.017-.84 0-.33-.167-.568-.405-.66a.688.688 0 00.313-.579c.017-.573-.409-.848-.983-.848h-1.092v2.927zm.666-1.192h.491c.23 0 .326.105.326.28 0 .198-.071.324-.296.324h-.521v-.604zm.405-1.142c.224 0 .341.08.341.286 0 .191-.138.28-.325.28h-.421v-.566h.405zm4.067.871c0-.862-.274-1.494-1.305-1.494-1.034 0-1.308.632-1.308 1.494 0 .853.267 1.488 1.308 1.488 1.043 0 1.305-.635 1.305-1.488zm-1.305-.887c.577 0 .617.44.617.887 0 .44-.037.882-.617.882-.583 0-.611-.442-.611-.882 0-.447.037-.887.611-.887zm2.775-1.103c-.083 0-.157-.086-.157-.169h-.445c0 .33.245.511.528.511h.399c.289 0 .531-.18.531-.51h-.442c0 .082-.08.168-.163.168h-.251zm1.243.526h-.654l-.743 1.384a3.23 3.23 0 00-.212.465h-.008c.021-.16.037-.33.037-.49v-1.358h-.654v2.926h.654l.754-1.405c.08-.134.142-.289.193-.422h.016a2.798 2.798 0 00-.037.469v1.358h.654v-2.927zm3.913 0h-.658l-.742 1.384c-.083.15-.147.296-.205.465h-.012c.021-.16.037-.33.037-.49v-1.358h-.649v2.926h.649l.754-1.405c.076-.134.142-.289.197-.422h.012a2.506 2.506 0 00-.041.469v1.358h.658v-2.927zm3.48 2.927v-.606h-.825c-.225 0-.35-.155-.35-.327V27.22c0-.21.12-.36.35-.36h.825v-.602h-.825c-.75 0-1.05.417-1.05.854v1.195c0 .469.337.878 1.05.878h.825zm1.12-2.325h.842v2.325h.696v-2.927h-2.234v2.927h.696V26.86zm3.951 2.325v-.606h-.9a.332.332 0 01-.346-.327v-.225h1.08v-.61h-1.08v-.197c0-.21.129-.36.346-.36h.9v-.602h-.9c-.737 0-1.034.417-1.034.854v1.195c0 .469.331.878 1.034.878h.9zm2.018-.606h-.846v-2.32h-.693v2.926h1.797l.059.57h.632v-1.176h-.261v-2.32h-.688v2.32zm4.353-1.72v-.6h-1.999v.6h.649v2.326h.684V26.86h.666zm2.256 2.326v-.606h-.9a.331.331 0 01-.346-.327v-.225h1.079v-.61h-1.079v-.197c0-.21.129-.36.346-.36h.9v-.602h-.9c-.739 0-1.034.417-1.034.854v1.195c0 .469.329.878 1.034.878h.9zm2.734-2.927h-.788l-.437.832-.435-.831h-.783l.884 1.42-.976 1.506h.813l.497-.906.5.906h.817l-.979-1.506.887-1.42zm1.066 0h-.695v2.927h.695v-1.2h.913v1.2h.691v-2.927h-.691v1.122h-.913v-1.122zm4.393 0h-.659l-.742 1.384c-.083.15-.145.296-.203.465h-.013c.021-.16.037-.33.037-.49v-1.358h-.65v2.926h.65l.755-1.405c.074-.134.141-.289.196-.422h.013a2.35 2.35 0 00-.043.469v1.358h.659v-2.927zm1.254 0h-.695v2.927h.695v-1.183h.229c.197 0 .338.13.421.435l.212.748h.78l-.366-.998c-.076-.203-.197-.508-.43-.616l.75-1.313h-.78l-.595 1.162h-.221v-1.162zm4.192 0h-.658l-.742 1.384c-.083.15-.145.296-.205.465h-.012c.021-.16.039-.33.039-.49v-1.358h-.651v2.926h.651l.753-1.405c.076-.134.143-.289.196-.422h.012a2.506 2.506 0 00-.041.469v1.358H152v-2.927z" fill="#F5750C"/><path fill-rule="evenodd" clip-rule="evenodd" d="M146.936 16.723c.909 0 1.6-.194 2.07-.58.47-.387.707-.94.707-1.66s-.237-1.273-.707-1.66c-.47-.386-1.161-.58-2.07-.58h-2.441v4.48h2.441zm.096-6.252c.973 0 1.822.162 2.545.485.721.32 1.276.782 1.659 1.385.386.6.58 1.315.58 2.141 0 .816-.194 1.53-.58 2.134-.383.609-.938 1.072-1.659 1.395-.723.322-1.572.484-2.545.484h-2.537v3.255h-2.087V10.471h4.624zm-12.89 9.603a4.06 4.06 0 002.022-.508 3.69 3.69 0 001.414-1.417 4.092 4.092 0 00.512-2.038c0-.752-.171-1.432-.512-2.039a3.682 3.682 0 00-1.414-1.419c-.6-.337-1.275-.505-2.022-.505-.75 0-1.425.168-2.024.505a3.664 3.664 0 00-1.412 1.42 4.068 4.068 0 00-.515 2.038c0 .752.172 1.43.515 2.038a3.671 3.671 0 001.412 1.417c.599.337 1.274.508 2.024.508zm0 1.836c-1.146 0-2.178-.25-3.1-.749a5.534 5.534 0 01-2.166-2.079c-.524-.887-.788-1.877-.788-2.971 0-1.097.264-2.088.788-2.973a5.535 5.535 0 012.166-2.08c.922-.498 1.954-.748 3.1-.748 1.145 0 2.177.25 3.098.749.919.5 1.642 1.19 2.167 2.07.523.881.786 1.875.786 2.982 0 1.105-.263 2.1-.786 2.98a5.566 5.566 0 01-2.167 2.07c-.921.498-1.953.749-3.098.749zm-16.165-4.994v4.834h-2.088V10.471h2.088v6.445zm7.897-6.445V21.75h-2.088v-4.834h-5.127v-1.788h5.127V10.47h2.088zM109.276 21.91a8.5 8.5 0 01-2.512-.371c-.81-.247-1.448-.575-1.918-.983l.721-1.627c.462.366 1.026.664 1.694.895a6.15 6.15 0 002.015.345c.834 0 1.458-.134 1.869-.402.412-.268.619-.623.619-1.063 0-.323-.115-.587-.346-.796a2.411 2.411 0 00-.875-.494 20 20 0 00-1.444-.402c-.856-.204-1.549-.408-2.079-.612a3.407 3.407 0 01-1.364-.96c-.38-.434-.569-1.022-.569-1.763 0-.623.168-1.189.505-1.7.338-.51.845-.915 1.524-1.216.68-.3 1.513-.451 2.497-.451.686 0 1.359.085 2.022.257.665.172 1.237.419 1.718.742l-.657 1.626a6.515 6.515 0 00-1.542-.66 5.732 5.732 0 00-1.557-.225c-.823 0-1.437.139-1.838.419-.403.278-.603.65-.603 1.112a1 1 0 00.347.788c.228.206.521.367.875.484.351.119.834.252 1.444.403.834.193 1.52.395 2.053.605.536.209.994.528 1.374.957.38.43.571 1.012.571 1.74 0 .625-.17 1.187-.508 1.693-.335.504-.848.906-1.532 1.208-.686.3-1.52.45-2.504.45z" fill="#F5750C"/><path fill-rule="evenodd" clip-rule="evenodd" d="M93.24 17.656l-1.188 1.273v2.821h-3.148V10.471h3.148v4.689l4.35-4.689h3.5l-4.593 4.996 4.833 6.283h-3.693l-3.21-4.094zm-10.578 4.32c-1.18 0-2.236-.25-3.173-.75a5.604 5.604 0 01-2.206-2.087c-.535-.89-.802-1.902-.802-3.028 0-1.129.267-2.138.802-3.03a5.587 5.587 0 012.206-2.086c.937-.5 1.994-.749 3.172-.749 1.027 0 1.952.183 2.777.546a5.364 5.364 0 012.054 1.581L85.47 14.21c-.728-.88-1.612-1.322-2.65-1.322-.61 0-1.152.135-1.629.403a2.8 2.8 0 00-1.106 1.136c-.264.49-.394 1.05-.394 1.685 0 .633.13 1.194.394 1.683a2.8 2.8 0 001.106 1.135c.477.27 1.02.403 1.63.403 1.037 0 1.92-.44 2.649-1.321l2.022 1.837a5.36 5.36 0 01-2.054 1.58c-.825.363-1.75.547-2.776.547zm-13.037 0c-1.669 0-2.968-.458-3.892-1.37-.926-.914-1.39-2.209-1.39-3.883V10.47h3.179v6.154c0 1.806.712 2.707 2.135 2.707 1.412 0 2.119-.901 2.119-2.707V10.47h3.13v6.252c0 1.674-.461 2.97-1.387 3.883-.927.912-2.224 1.37-3.894 1.37zm-12.153-3.224h-.824v-2.466h.857c.653 0 1.144-.142 1.476-.425.333-.286.499-.69.499-1.217 0-.527-.166-.935-.499-1.224-.332-.291-.823-.437-1.476-.437H55.74c0 2.929-.021 5.826-.021 8.767H52.56V10.471h5.138c1.017 0 1.898.169 2.648.508.75.339 1.327.821 1.736 1.449.404.628.608 1.368.608 2.216 0 .816-.19 1.527-.57 2.134-.38.608-.922 1.082-1.627 1.426l2.423 3.546h-3.404l-2.04-2.998zm-12.713-5.751h-3.45v-2.53h10.064v2.53h-3.435v8.749h-3.18v-8.749z" fill="#184C80"/></svg>