<svg width="159" height="95" fill="none" xmlns="http://www.w3.org/2000/svg"><path d="M1.487 90.007H.069v4.179H.97v-1.873c0-.373-.048-.888-.088-1.227H.89l1.071 3.1h.821l1.072-3.1h.007c-.04.339-.088.854-.088 1.228v1.872h.956v-4.179H3.386l-.95 2.788-.95-2.788zm4.762 4.179l.156-.699H7.87l.163.699h1.01l-.888-3.589c-.122-.468-.448-.658-1.018-.658-.563 0-.888.19-1.01.658l-.889 3.589h1.01zm.888-3.446c.109 0 .136.034.143.115l.4 1.77H6.608l.394-1.77c.02-.081.027-.115.135-.115zm2.422 3.446h.997v-1.33h.74c.434 0 .855-.142 1.146-.481.21-.251.292-.597.292-.95 0-.38-.115-.753-.4-1.025a1.493 1.493 0 00-1.038-.393H9.559v4.179zm.997-3.317h.74c.129 0 .237.04.305.108.129.129.143.285.143.448 0 .19-.027.346-.109.44-.081.103-.217.123-.34.123h-.739v-1.12zm3.745-.862h-.997v4.179h.997v-1.69h.332c.279 0 .482.184.604.618l.299 1.072h1.12l-.523-1.425c-.109-.291-.285-.726-.618-.882l1.072-1.872h-1.112l-.855 1.662h-.32v-1.662zm5.475 4.179v-.869H18.48c-.299 0-.495-.217-.495-.46v-.326h1.546v-.869h-1.546v-.285c0-.298.19-.508.495-.508h1.296v-.862H18.48c-1.052 0-1.479.597-1.479 1.221v1.703c0 .671.475 1.255 1.479 1.255h1.296zm3.324-3.317v-.862h-2.87v.862h.936v3.317h.977v-3.317h.957zm3.181 0h1.208v3.317h.997v-4.179h-3.202v4.179h.997v-3.317zm5.203 3.317h.99v-4.179h-2.767c-.061.91-.122 1.716-.23 2.693-.035.326-.096.665-.537.658v.862c.957.02 1.208-.258 1.405-1.113.081-.353.176-1.71.23-2.238h.91v3.317zm4.444 0v-.869h-1.29c-.298 0-.494-.217-.494-.46v-.326h1.546v-.869h-1.546v-.285c0-.298.183-.508.495-.508h1.289v-.862h-1.29c-1.057 0-1.478.597-1.478 1.221v1.703c0 .671.468 1.255 1.479 1.255h1.289zm2.11-4.932c-.123 0-.231-.122-.231-.237h-.638c0 .468.353.726.76.726h.57c.414 0 .76-.258.76-.726h-.631c0 .115-.116.237-.23.237h-.36zm1.777.753h-.936l-1.065 1.974c-.116.217-.21.428-.306.665h-.006a6.05 6.05 0 00.047-.699v-1.94h-.936v4.179h.936l1.086-2.008c.115-.19.203-.407.27-.604h.028c-.034.21-.054.441-.054.672v1.94h.936v-4.179zm3.371 4.179v-.869h-1.18c-.319 0-.502-.217-.502-.46v-1.48c0-.298.176-.508.502-.508h1.18v-.862h-1.18c-1.072 0-1.506.597-1.506 1.221v1.703c0 .671.489 1.255 1.506 1.255h1.18zm2.063-4.179v.862h1.255c.319 0 .488.101.488.393-.007.271-.197.387-.468.387h-.936v.834h1.045c.318 0 .468.15.468.4 0 .285-.109.434-.434.434h-1.418v.869h1.417c.828 0 1.418-.387 1.418-1.2 0-.469-.23-.815-.563-.944.23-.156.448-.434.455-.82.027-.822-.543-1.215-1.37-1.215h-1.357zm4.036 4.179l.156-.699h1.465l.163.699h1.01l-.888-3.589c-.122-.468-.448-.658-1.017-.658-.563 0-.889.19-1.011.658l-.889 3.589h1.011zm.889-3.446c.108 0 .129.034.142.115l.4 1.77h-1.071l.393-1.77c.02-.081.027-.115.136-.115zm3.419.129h1.2v3.317h.998v-4.179h-3.195v4.179h.997v-3.317zm6.132 3.317v-4.179h-.997v1.832h-.672c-.393 0-.535-.197-.535-.523v-1.309h-.99v1.31c0 .86.603 1.356 1.525 1.356h.672v1.513h.997zm1.527 0l.156-.699h1.465l.163.699h1.01l-.888-3.589c-.122-.468-.448-.658-1.018-.658-.563 0-.888.19-1.01.658l-.89 3.589h1.012zm.888-3.446c.109 0 .13.034.143.115l.4 1.77h-1.072l.394-1.77c.013-.081.027-.115.135-.115zm4.993 3.446v-.869h-1.187c-.319 0-.502-.217-.502-.46v-1.48c0-.298.176-.508.502-.508h1.187v-.862h-1.187c-1.072 0-1.5.597-1.5 1.221v1.703c0 .671.482 1.255 1.5 1.255h1.187zm3.243-3.317v-.862h-2.863v.862h.93v3.317h.983v-3.317h.95zm3.236 3.317v-.869h-1.296c-.299 0-.495-.217-.495-.46v-.326h1.546v-.869h-1.546v-.285c0-.298.19-.508.495-.508h1.296v-.862h-1.296c-1.052 0-1.479.597-1.479 1.221v1.703c0 .671.475 1.255 1.479 1.255h1.296zm2.103-4.932c-.116 0-.224-.122-.224-.237h-.638c0 .468.353.726.753.726h.577c.413 0 .76-.258.76-.726h-.638c0 .115-.109.237-.23.237h-.36zm1.784.753h-.943l-1.058 1.974a4.538 4.538 0 00-.306.665h-.013c.027-.224.054-.475.054-.699v-1.94h-.936v4.179h.936l1.079-2.008a3.76 3.76 0 00.278-.604h.02c-.034.21-.054.441-.054.672v1.94h.943v-4.179zm3.392.862h1.485v-.862h-2.469v4.179h.984v-3.317zm2.055 3.317h.997v-1.33h.74c.434 0 .861-.142 1.146-.481.21-.251.292-.597.292-.95 0-.38-.109-.753-.4-1.025a1.48 1.48 0 00-1.038-.393h-1.737v4.179zm.997-3.317h.74c.135 0 .237.04.312.108.122.129.135.285.135.448 0 .19-.02.346-.108.44-.081.103-.21.123-.34.123h-.739v-1.12zm2.951 2.448v.869h.658c.93 0 1.228-.394 1.459-1.248l.8-2.931h-1.065l-.475 1.98h-.19c-.176 0-.244-.033-.285-.182l-.502-1.798h-1.058l.706 2.11c.17.468.448.74.963.74h.156c-.061.27-.156.46-.509.46h-.658zm3.216-3.31v.862h1.255c.325 0 .488.101.488.393-.007.271-.197.387-.461.387h-.943v.834h1.052c.311 0 .46.15.46.4 0 .285-.108.434-.433.434H90.11v.869h1.418c.827 0 1.417-.387 1.417-1.2 0-.469-.23-.815-.556-.944.224-.156.448-.434.455-.82.02-.822-.55-1.215-1.377-1.215H90.11zm7.123 2.09c0-1.228-.394-2.13-1.866-2.13-1.479 0-1.872.902-1.872 2.13 0 1.22.38 2.123 1.872 2.123 1.493 0 1.866-.903 1.866-2.124zm-1.866-1.27c.821 0 .882.632.882 1.27 0 .624-.054 1.261-.882 1.261-.834 0-.882-.638-.882-1.262 0-.637.055-1.268.882-1.268zm2.558 3.359h1.648c.821 0 1.438-.387 1.452-1.2 0-.469-.238-.815-.577-.944a.985.985 0 00.448-.82c.02-.822-.583-1.215-1.411-1.215h-1.56v4.179zm.95-1.703h.705c.332 0 .468.15.468.4 0 .285-.102.462-.427.462h-.747v-.862zm.583-1.628c.319 0 .488.115.488.407 0 .271-.197.4-.468.4h-.604v-.807h.584zm5.827 1.241c0-1.227-.393-2.13-1.872-2.13s-1.873.903-1.873 2.13c0 1.221.38 2.124 1.873 2.124 1.492 0 1.872-.903 1.872-2.124zm-1.872-1.268c.827 0 .888.63.888 1.268 0 .624-.054 1.262-.888 1.262-.835 0-.875-.638-.875-1.262 0-.637.054-1.268.875-1.268zm3.982-1.574c-.122 0-.231-.122-.231-.237h-.637c0 .468.352.726.759.726h.57c.414 0 .76-.258.76-.726h-.631c0 .115-.115.237-.237.237h-.353zm1.777.753h-.936l-1.065 1.974a4.537 4.537 0 00-.305.665h-.014a4.84 4.84 0 00.054-.699v-1.94h-.936v4.179h.936l1.086-2.008c.108-.19.197-.407.271-.604h.027c-.04.21-.054.441-.054.672v1.94h.936v-4.179zm5.604 0h-.943l-1.065 1.974a5.206 5.206 0 00-.292.665h-.014c.027-.224.055-.475.055-.699v-1.94h-.937v4.179h.937l1.078-2.008a4.25 4.25 0 00.278-.604h.021c-.041.21-.061.441-.061.672v1.94h.943v-4.179zm4.986 4.179v-.869h-1.181c-.325 0-.502-.217-.502-.46v-1.48c0-.298.17-.508.502-.508h1.181v-.862h-1.181c-1.078 0-1.506.597-1.506 1.221v1.703c0 .671.482 1.255 1.506 1.255h1.181zm1.607-3.317h1.208v3.317h.997v-4.179h-3.202v4.179h.997v-3.317zm5.658 3.317v-.869h-1.289c-.298 0-.495-.217-.495-.46v-.326h1.547v-.869h-1.547v-.285c0-.298.183-.508.495-.508h1.289v-.862h-1.289c-1.058 0-1.479.597-1.479 1.221v1.703c0 .671.468 1.255 1.479 1.255h1.289zm2.89-.869h-1.208v-3.31h-.997v4.179h2.578l.082.814h.909v-1.683h-.38v-3.31h-.984v3.31zm6.241-2.448v-.862h-2.869v.862h.936v3.317h.977v-3.317h.956zm3.229 3.317v-.869h-1.289c-.298 0-.495-.217-.495-.46v-.326h1.547v-.869h-1.547v-.285c0-.298.183-.508.495-.508h1.289v-.862h-1.289c-1.058 0-1.479.597-1.479 1.221v1.703c0 .671.468 1.255 1.479 1.255h1.289zm3.914-4.179h-1.126l-.624 1.187-.624-1.187h-1.119l1.262 2.028-1.398 2.15h1.167l.712-1.295.712 1.296h1.174l-1.404-2.15 1.268-2.029zm1.534 0h-.998v4.179h.998v-1.717h1.302v1.717h.997v-4.179h-.997v1.601h-1.302v-1.601zm6.288 0h-.943l-1.058 1.974c-.122.217-.21.428-.292.665h-.02c.027-.224.054-.475.054-.699v-1.94h-.936v4.179h.936l1.079-2.008c.108-.19.203-.407.278-.604h.02c-.041.21-.061.441-.061.672v1.94h.943v-4.179zm1.798 0h-.997v4.179h.997v-1.69h.332c.278 0 .482.184.604.618l.305 1.072h1.113l-.523-1.425c-.108-.291-.285-.726-.617-.882l1.072-1.872h-1.113l-.854 1.662h-.319v-1.662zm6.01 0h-.943l-1.065 1.974a3.85 3.85 0 00-.291.665h-.021a4.84 4.84 0 00.054-.699v-1.94h-.929v4.179h.929l1.079-2.008c.109-.19.204-.407.285-.604h.014c-.041.21-.055.441-.055.672v1.94h.943v-4.179z" fill="#F5750C"/><path fill-rule="evenodd" clip-rule="evenodd" d="M83.916 42.772h3.161v14.32h-3.16v-14.32zm-12.048 0h3.168v14.32h-3.168v-14.32zm6.044 0h3.168v14.32h-3.168v-14.32z" fill="#F5750C"/><path fill-rule="evenodd" clip-rule="evenodd" d="M100.116 44.909l-7.957 7.882V37.82h-5.183v-8.765h5.183V13.968h7.957v30.94zM61.177 0h36.646a6.046 6.046 0 015.386 3.297H58.626v8.412h16.417v26.185h8.731V11.71h20.073v34.42L92.579 57.1h-3.215V40.696H69.636v16.403h-3.215l-11.268-10.97V5.944C55.153 2.673 57.86 0 61.177 0zm10.664 37.82H66.74v14.97l-7.958-7.882v-30.94h7.958v15.087h5.101v8.765z" fill="#184C80"/><path fill-rule="evenodd" clip-rule="evenodd" d="M151.666 76.399c1.302 0 2.293-.278 2.971-.828.672-.556 1.011-1.343 1.011-2.374 0-1.025-.339-1.811-1.011-2.368-.678-.55-1.669-.827-2.971-.827h-3.494v6.397h3.494zm.142-8.928c1.391 0 2.612.231 3.643.692 1.038.462 1.825 1.12 2.381 1.981.55.855.828 1.872.828 3.053 0 1.167-.278 2.184-.828 3.053-.556.861-1.343 1.526-2.381 1.987-1.031.462-2.252.692-3.643.692h-3.636v4.64h-2.992V67.471h6.628zm-18.472 13.71c1.072 0 2.042-.244 2.903-.725a5.306 5.306 0 002.022-2.022c.488-.868.733-1.838.733-2.91s-.245-2.042-.733-2.91a5.26 5.26 0 00-2.022-2.022c-.861-.489-1.831-.726-2.903-.726s-2.035.237-2.897.726a5.217 5.217 0 00-2.021 2.022c-.495.868-.74 1.838-.74 2.91s.245 2.042.74 2.91a5.263 5.263 0 002.021 2.022c.862.481 1.825.725 2.897.725zm0 2.619c-1.642 0-3.121-.353-4.437-1.065-1.316-.72-2.354-1.703-3.107-2.971-.746-1.262-1.126-2.68-1.126-4.24 0-1.567.38-2.978 1.126-4.247a7.966 7.966 0 013.107-2.964c1.316-.713 2.795-1.072 4.437-1.072 1.642 0 3.121.36 4.443 1.072 1.316.712 2.354 1.695 3.101 2.957.753 1.255 1.126 2.673 1.126 4.254 0 1.58-.373 2.998-1.126 4.253-.747 1.255-1.785 2.239-3.101 2.958-1.322.712-2.801 1.065-4.443 1.065zm-23.16-7.13v6.899h-2.985V67.471h2.985v9.199zm11.315-9.199V83.57H118.5v-6.9h-7.34v-2.55h7.34v-6.65h2.991zM97.714 83.8c-1.241 0-2.442-.176-3.602-.53-1.153-.352-2.069-.82-2.747-1.397l1.038-2.327c.658.523 1.465.95 2.421 1.276a8.806 8.806 0 002.89.495c1.194 0 2.09-.19 2.68-.577.59-.38.882-.888.882-1.512 0-.462-.163-.841-.495-1.14-.326-.298-.747-.536-1.249-.706a29.344 29.344 0 00-2.069-.57c-1.227-.291-2.218-.583-2.978-.874a4.927 4.927 0 01-1.96-1.37c-.543-.618-.814-1.46-.814-2.518 0-.888.244-1.695.726-2.428.481-.726 1.207-1.303 2.184-1.737.977-.427 2.164-.644 3.575-.644.984 0 1.947.122 2.897.373.949.244 1.77.597 2.462 1.058l-.943 2.32a9.386 9.386 0 00-2.204-.943 8.214 8.214 0 00-2.232-.319c-1.18 0-2.063.197-2.632.597-.577.394-.869.923-.869 1.588 0 .454.17.834.495 1.126.333.292.753.522 1.255.685.51.17 1.194.36 2.07.577 1.193.278 2.177.563 2.944.861.766.299 1.424.76 1.967 1.37.543.611.814 1.445.814 2.483 0 .889-.237 1.696-.726 2.415-.482.72-1.214 1.296-2.191 1.724-.984.434-2.178.644-3.589.644z" fill="#F5750C"/><path fill-rule="evenodd" clip-rule="evenodd" d="M74.738 77.729l-1.703 1.818v4.023h-4.504V67.472h4.504v6.695l6.234-6.695h5.013l-6.573 7.13 6.92 8.968h-5.292l-4.6-5.841zm-15.155 6.166c-1.69 0-3.202-.36-4.545-1.072-1.337-.712-2.395-1.702-3.162-2.978-.766-1.268-1.146-2.713-1.146-4.321 0-1.608.38-3.053 1.146-4.321.767-1.276 1.825-2.266 3.162-2.985 1.343-.712 2.856-1.065 4.545-1.065 1.472 0 2.795.258 3.982.78a7.722 7.722 0 012.937 2.252l-2.896 2.626c-1.038-1.256-2.307-1.886-3.793-1.886-.875 0-1.655.19-2.333.576a3.931 3.931 0 00-1.588 1.622c-.38.691-.563 1.492-.563 2.401 0 .902.184 1.703.563 2.401a3.932 3.932 0 001.588 1.622c.678.386 1.458.576 2.334.576 1.485 0 2.754-.63 3.792-1.886l2.896 2.62a7.674 7.674 0 01-2.937 2.258c-1.187.516-2.51.78-3.982.78zm-18.676 0c-2.388 0-4.253-.651-5.576-1.953-1.323-1.303-1.988-3.155-1.988-5.543v-8.927h4.552v8.785c0 2.578 1.018 3.866 3.06 3.866 2.021 0 3.032-1.288 3.032-3.866v-8.785h4.484v8.927c0 2.388-.658 4.24-1.988 5.543-1.322 1.302-3.181 1.953-5.576 1.953zm-17.407-4.6h-1.187v-3.52h1.228c.936 0 1.641-.204 2.116-.61.475-.408.72-.984.72-1.737 0-.746-.245-1.33-.72-1.744-.475-.413-1.18-.624-2.116-.624h-2.524c0 4.18-.034 8.317-.034 12.51h-4.525V67.472h7.36c1.46 0 2.721.244 3.8.726 1.072.481 1.9 1.173 2.483 2.069.576.895.868 1.953.868 3.16 0 1.168-.271 2.185-.814 3.047-.543.868-1.323 1.546-2.334 2.042l3.473 5.054h-4.877L23.5 79.296zM5.285 71.082H.34v-3.61h14.416v3.61H9.837V83.57H5.285V71.08z" fill="#184C80"/></svg>