<svg width="202" height="116" fill="none" xmlns="http://www.w3.org/2000/svg"><path fill-rule="evenodd" clip-rule="evenodd" d="M106.879 59.122h4.023v19.496h-4.023V59.122zm-15.333 0h4.032v19.496h-4.032V59.122zm7.693 0h4.031v19.496h-4.031V59.122z" fill="#fff"/><path fill-rule="evenodd" clip-rule="evenodd" d="M127.495 62.031l-10.126 10.732V52.38h-6.596V40.448h6.596v-20.54h10.126v42.123zM77.941.892h46.636c2.996 0 5.595 1.838 6.855 4.489H74.695v11.452h20.892v35.649h11.111v-35.65h25.546v46.862l-14.34 14.933h-4.092V56.296H88.706v22.331h-4.092l-14.34-14.933V8.982c0-4.451 3.445-8.09 7.667-8.09zM91.512 52.38H85.02v20.383L74.893 62.031V19.908H85.02v20.54h6.492V52.38zm101.587 52.523c1.658 0 2.918-.379 3.782-1.127.854-.757 1.286-1.829 1.286-3.233 0-1.394-.432-2.465-1.286-3.223-.864-.748-2.124-1.126-3.782-1.126h-4.446v8.709h4.446zm.182-12.154c1.77 0 3.324.314 4.636.942 1.321.628 2.322 1.524 3.03 2.697.699 1.163 1.053 2.548 1.053 4.155 0 1.589-.354 2.974-1.053 4.156-.708 1.173-1.709 2.078-3.03 2.706-1.312.628-2.866.942-4.636.942h-4.628v6.318h-3.807V92.749h8.435zm-23.508 18.665c1.364 0 2.598-.333 3.695-.989 1.087-.655 1.942-1.579 2.572-2.752.622-1.182.933-2.503.933-3.962s-.311-2.78-.933-3.962c-.63-1.182-1.485-2.096-2.572-2.752-1.097-.665-2.331-.988-3.695-.988-1.365 0-2.59.323-3.687.988-1.088.656-1.951 1.57-2.573 2.752-.63 1.182-.941 2.503-.941 3.962s.311 2.78.941 3.962c.622 1.173 1.485 2.097 2.573 2.752 1.097.656 2.322.989 3.687.989zm0 3.565c-2.09 0-3.972-.481-5.647-1.45a10.503 10.503 0 01-3.954-4.046c-.949-1.717-1.433-3.648-1.433-5.772 0-2.133.484-4.054 1.433-5.781.959-1.718 2.28-3.066 3.954-4.036 1.675-.97 3.557-1.46 5.647-1.46 2.089 0 3.971.49 5.654 1.46a10.369 10.369 0 013.946 4.027c.958 1.708 1.433 3.638 1.433 5.79s-.475 4.082-1.433 5.791a10.493 10.493 0 01-3.946 4.027c-1.683.969-3.565 1.45-5.654 1.45zm-29.474-9.707v9.393H136.5V92.749h3.799v12.523zm14.4-12.523v21.916h-3.807v-9.393h-9.341V101.8h9.341v-9.051h3.807zm-30.259 22.23a14.74 14.74 0 01-4.585-.721c-1.467-.48-2.633-1.117-3.496-1.902l1.321-3.168c.837.711 1.865 1.293 3.082 1.736a10.54 10.54 0 003.678.674c1.519 0 2.659-.258 3.41-.785.751-.517 1.122-1.209 1.122-2.059 0-.628-.207-1.145-.63-1.552-.415-.406-.95-.729-1.589-.96a34.997 34.997 0 00-2.633-.776c-1.562-.397-2.823-.794-3.79-1.191-.967-.397-1.796-1.016-2.495-1.866-.69-.84-1.036-1.986-1.036-3.426 0-1.21.311-2.31.924-3.307.613-.988 1.537-1.773 2.78-2.364 1.243-.582 2.754-.877 4.55-.877 1.251 0 2.477.166 3.686.508 1.209.332 2.253.812 3.134 1.44l-1.2 3.159a11.551 11.551 0 00-2.806-1.284 9.812 9.812 0 00-2.84-.434c-1.503 0-2.625.268-3.35.813-.734.535-1.105 1.256-1.105 2.161 0 .619.216 1.136.63 1.533.423.397.958.711 1.597.933.648.231 1.52.489 2.633.785 1.52.379 2.772.766 3.747 1.173a6.453 6.453 0 012.504 1.865c.69.832 1.036 1.968 1.036 3.381 0 1.209-.302 2.308-.924 3.287-.613.979-1.545 1.764-2.788 2.346-1.252.591-2.772.878-4.567.878zm-29.242-8.266l-2.166 2.475v5.477h-5.733V92.749h5.732v9.115l7.934-9.115h6.38l-8.365 9.706 8.806 12.21h-6.734l-5.854-7.952zm-19.286 8.395c-2.15 0-4.075-.49-5.784-1.459a10.507 10.507 0 01-4.023-4.055c-.976-1.727-1.46-3.694-1.46-5.883s.484-4.156 1.46-5.883a10.596 10.596 0 014.023-4.063c1.709-.97 3.634-1.45 5.784-1.45 1.873 0 3.557.35 5.067 1.062a9.938 9.938 0 013.739 3.066l-3.687 3.574c-1.32-1.709-2.935-2.567-4.826-2.567-1.113 0-2.106.258-2.97.785-.871.517-1.545 1.256-2.02 2.207-.483.942-.716 2.032-.716 3.269 0 1.229.233 2.318.716 3.27.475.951 1.149 1.69 2.02 2.207.864.526 1.857.785 2.97.785 1.891 0 3.505-.859 4.826-2.568l3.687 3.565a9.868 9.868 0 01-3.739 3.076c-1.51.702-3.194 1.062-5.067 1.062zm-23.767 0c-3.04 0-5.413-.887-7.097-2.66-1.683-1.773-2.53-4.294-2.53-7.545V92.749h5.794v11.96c0 3.509 1.294 5.264 3.893 5.264 2.573 0 3.86-1.755 3.86-5.264v-11.96h5.706v12.154c0 3.251-.838 5.772-2.53 7.545-1.683 1.773-4.049 2.66-7.096 2.66zm-22.153-6.262H28.48v-4.793h1.563c1.191 0 2.089-.277 2.693-.831.605-.554.915-1.339.915-2.365 0-1.015-.31-1.81-.915-2.373-.604-.563-1.502-.85-2.693-.85h-3.212c0 5.689-.043 11.323-.043 17.031H21.03V92.749h9.367c1.856 0 3.461.332 4.834.988 1.364.656 2.418 1.598 3.16 2.817.734 1.219 1.105 2.66 1.105 4.303 0 1.589-.345 2.974-1.036 4.147-.69 1.182-1.683 2.106-2.97 2.78l4.42 6.881h-6.207l-3.712-5.819zM6.812 97.662H.518v-4.913h18.346v4.913h-6.26v17.003H6.813V97.662z" fill="#fff"/></svg>