<svg width="102" height="102" fill="none" xmlns="http://www.w3.org/2000/svg"><path fill-rule="evenodd" clip-rule="evenodd" d="M39.75 21.25C39.75 15.037 44.787 10 51 10s11.25 5.037 11.25 11.25v7.012c-1.591-.012-3.3-.012-5.14-.012H44.89c-1.84 0-3.55 0-5.141.012V21.25zm-3 10.057v6.943a1.5 1.5 0 003 0v-6.987c1.597-.013 3.336-.013 5.236-.013h12.028c1.9 0 3.639 0 5.236.013v6.987a1.5 1.5 0 003 0v-6.943c2.143.05 3.994.147 5.625.33 3.396.381 5.663 1.123 7.493 2.487.813.606 1.56 1.296 2.23 2.057 1.506 1.715 2.427 3.916 3.079 7.27.658 3.386 1.012 7.772 1.496 13.786.559 6.957.965 12.041.811 15.99-.152 3.916-.853 6.502-2.348 8.556a14.505 14.505 0 01-2.278 2.469c-1.928 1.655-4.45 2.56-8.342 3.026-3.923.47-9.023.472-16.003.472H44.987c-6.98 0-12.08-.002-16.003-.472-3.892-.466-6.414-1.37-8.342-3.026a14.501 14.501 0 01-2.278-2.468c-1.495-2.055-2.196-4.64-2.348-8.558-.154-3.948.252-9.032.811-15.989.484-6.014.838-10.4 1.496-13.786.652-3.354 1.573-5.555 3.08-7.27a14.501 14.501 0 012.229-2.057c1.83-1.364 4.097-2.106 7.493-2.487 1.631-.183 3.483-.28 5.625-.33zm0-3.001V21.25C36.75 13.38 43.13 7 51 7s14.25 6.38 14.25 14.25v7.056c2.24.052 4.211.153 5.96.35 3.666.411 6.526 1.255 8.95 3.063a17.503 17.503 0 012.692 2.483c1.995 2.272 3.066 5.055 3.77 8.677.694 3.57 1.06 8.124 1.533 14.022l.008.096.008.104c.55 6.832.972 12.094.81 16.242-.162 4.2-.928 7.47-2.92 10.206a17.497 17.497 0 01-2.75 2.98c-2.567 2.204-5.765 3.228-9.938 3.728-4.122.493-9.402.493-16.255.493H44.882c-6.853 0-12.133 0-16.254-.493-4.174-.5-7.372-1.524-9.94-3.729a17.5 17.5 0 01-2.75-2.979c-1.991-2.737-2.756-6.006-2.92-10.206-.161-4.148.262-9.41.81-16.242l.009-.104.008-.096c.474-5.898.84-10.452 1.534-14.022.704-3.622 1.774-6.405 3.77-8.677a17.437 17.437 0 012.69-2.483c2.425-1.808 5.285-2.652 8.951-3.063 1.749-.197 3.72-.298 5.96-.35z" fill="#818294"/></svg>