<svg width="22" height="22" fill="none" xmlns="http://www.w3.org/2000/svg"><path fill-rule="evenodd" clip-rule="evenodd" d="M10.528 2h.944c1.367 0 2.47 0 3.336.117.9.12 1.658.38 2.26.981.602.602.861 1.36.982 2.26.117.867.117 1.97.117 3.337V19.25a.75.75 0 01-1.123.651l-4.432-2.532c-.497-.285-.823-.47-1.09-.59-.253-.113-.4-.142-.522-.142-.123 0-.269.029-.521.142-.268.12-.594.305-1.091.59L4.955 19.9a.75.75 0 01-1.122-.651V8.695c0-1.367 0-2.47.117-3.337.12-.9.38-1.658.982-2.26.602-.602 1.36-.86 2.26-.981C8.059 2 9.16 2 10.528 2zM7.391 3.603c-.733.099-1.122.28-1.399.556-.276.277-.457.665-.556 1.4-.101.754-.103 1.756-.103 3.191v9.208l3.31-1.892.03-.017c.46-.262.85-.485 1.192-.639.365-.163.727-.273 1.135-.273.408 0 .77.11 1.135.273.342.154.733.377 1.192.639l.03.017 3.31 1.892V8.75c0-1.435-.002-2.437-.104-3.192-.098-.734-.279-1.122-.555-1.399-.277-.277-.666-.457-1.4-.556-.755-.101-1.756-.103-3.191-.103h-.834c-1.435 0-2.436.002-3.192.103z" fill="#818294"/></svg>