<svg width="58" height="74" fill="none" xmlns="http://www.w3.org/2000/svg"><path fill-rule="evenodd" clip-rule="evenodd" d="M27.879.78h2.242c6.03 0 10.708 0 14.348.49 3.706.498 6.56 1.528 8.788 3.757 2.23 2.229 3.26 5.082 3.758 8.789.49 3.64.49 8.318.49 14.347V71.72a1.5 1.5 0 01-2.245 1.302L30.24 58.725c-.51-.29-.8-.455-1.026-.556a1.226 1.226 0 00-.211-.076h-.006a1.226 1.226 0 00-.211.076c-.227.101-.517.265-1.026.556L2.74 73.022A1.5 1.5 0 01.496 71.72V28.163c0-6.03 0-10.707.489-14.347.498-3.707 1.529-6.56 3.758-8.789s5.082-3.26 8.788-3.758C17.171.78 21.85.78 27.88.78zM13.931 4.243c-3.374.453-5.488 1.327-7.067 2.905-1.579 1.579-2.452 3.694-2.906 7.067-.46 3.417-.462 7.894-.462 14.065v40.855L26.27 56.121l.05-.03c.442-.251.86-.49 1.237-.66.42-.188.891-.339 1.442-.339.55 0 1.021.15 1.442.34.377.168.795.408 1.236.66l.05.029 22.776 13.014V28.28c0-6.17-.003-10.648-.462-14.065-.454-3.373-1.327-5.488-2.906-7.067-1.579-1.578-3.693-2.452-7.067-2.905-3.417-.46-7.894-.463-14.065-.463h-2.008c-6.171 0-10.648.003-14.065.463z" fill="#818294"/></svg>