<svg width="22" height="22" fill="none" xmlns="http://www.w3.org/2000/svg"><path fill-rule="evenodd" clip-rule="evenodd" d="M10.529 2h.943c1.367 0 2.47 0 3.337.117.9.12 1.658.38 2.26.981.601.602.86 1.36.981 2.26.117.867.117 1.97.117 3.337V19.25a.75.75 0 01-1.122.651l-4.432-2.532c-.497-.285-.824-.47-1.092-.59-.252-.113-.398-.142-.52-.142-.124 0-.27.029-.522.142-.268.12-.594.305-1.091.59L4.956 19.9a.75.75 0 01-1.123-.651V8.695c0-1.367 0-2.47.117-3.337.121-.9.38-1.658.982-2.26.602-.602 1.36-.86 2.26-.981C8.059 2 9.16 2 10.529 2zM7.392 3.603c-.734.099-1.123.28-1.4.556-.276.277-.457.665-.555 1.4-.102.754-.104 1.756-.104 3.191v9.208l3.31-1.892.03-.017c.46-.262.85-.485 1.192-.639.365-.163.727-.273 1.135-.273.408 0 .77.11 1.135.273.342.154.733.377 1.192.639l.03.017 3.31 1.892V8.75c0-1.435-.002-2.437-.103-3.192-.099-.734-.28-1.122-.556-1.399-.277-.277-.665-.457-1.4-.556-.755-.101-1.756-.103-3.191-.103h-.833c-1.436 0-2.437.002-3.192.103z" fill="#1B1C1E"/></svg>