<svg width="20" height="20" fill="none" xmlns="http://www.w3.org/2000/svg"><path fill-rule="evenodd" clip-rule="evenodd" d="M14.692 4.187c-.755-.102-1.757-.104-3.192-.104H8.333c-1.353 0-2.297.002-3.012.093-.697.089-1.071.251-1.341.499-.048.044-.095.09-.139.138-.247.27-.41.644-.498 1.341-.092.716-.093 1.66-.093 3.013s.001 2.297.093 3.013c.088.696.25 1.07.498 1.34.044.049.09.095.139.139.27.247.644.41 1.34.499.716.09 1.66.092 3.013.092h4.034c.855 0 1.407 0 1.947.127.539.127 1.033.375 1.798.757l.08.04.558.28v-6.12c0-1.436-.002-2.437-.103-3.192-.099-.734-.28-1.123-.556-1.4-.277-.276-.665-.457-1.4-.555zm.2-1.487c.9.121 1.658.38 2.26.982.602.602.86 1.36.982 2.26.116.867.116 1.969.116 3.337v7.388a.75.75 0 01-1.085.67l-1.645-.821c-.87-.436-1.202-.596-1.55-.679-.35-.082-.718-.087-1.692-.087H8.282c-1.29 0-2.33 0-3.15-.104-.853-.109-1.575-.34-2.165-.881a3.76 3.76 0 01-.232-.231c-.54-.59-.772-1.313-.88-2.165-.105-.822-.105-1.861-.105-3.15v-.104c0-1.29 0-2.329.105-3.15.108-.852.34-1.575.88-2.165.074-.08.151-.158.232-.231.59-.541 1.312-.773 2.164-.881.822-.105 1.861-.105 3.15-.105h3.274c1.367 0 2.47 0 3.337.117zM5.083 6.667a.75.75 0 01.75-.75H12.5a.75.75 0 010 1.5H5.833a.75.75 0 01-.75-.75zm.75 2.583a.75.75 0 000 1.5h3.334a.75.75 0 000-1.5H5.833z" fill="#818294"/></svg>