<svg width="19" height="18" fill="none" xmlns="http://www.w3.org/2000/svg"><path fill-rule="evenodd" clip-rule="evenodd" d="M14.845 3.155a.841.841 0 00-1.19 0l-.175.175a1.24 1.24 0 001.19 1.19l.175-.175a.84.84 0 000-1.19zM13.469 5.72a2.765 2.765 0 01-1.189-1.19L8.847 7.965C8.04 8.77 7.74 9.08 7.534 9.444c-.182.321-.29.683-.503 1.525.841-.213 1.204-.32 1.525-.503.364-.206.674-.506 1.48-1.313L13.47 5.72zm-.874-3.625a2.34 2.34 0 113.31 3.31l-4.808 4.808-.073.074c-.709.708-1.166 1.166-1.729 1.485-.563.318-1.19.475-2.162.718l-.101.025-.85.213a.75.75 0 01-.91-.91l.213-.85.025-.101c.243-.972.4-1.6.718-2.162.319-.563.776-1.02 1.485-1.729l.073-.073 4.809-4.808zM3 15.75a.75.75 0 01.75-.75h12a.75.75 0 010 1.5h-12a.75.75 0 01-.75-.75z" fill="#fff"/></svg>