<svg width="20" height="20" fill="none" xmlns="http://www.w3.org/2000/svg"><path fill-rule="evenodd" clip-rule="evenodd" d="M14.583 1.75h-.023c-.407 0-.747 0-1.027.017-.29.019-.566.058-.835.16a2.75 2.75 0 00-1.605 1.604 2.83 2.83 0 00-.159.836c-.017.28-.017.62-.017 1.027v.046c0 .407 0 .747.017 1.027.018.29.058.566.159.835a2.75 2.75 0 001.605 1.605c.27.101.545.14.835.159.28.017.62.017 1.027.017h.046c.408 0 .748 0 1.027-.017a2.83 2.83 0 00.836-.159 2.75 2.75 0 001.605-1.605c.101-.27.14-.545.159-.835.017-.28.017-.62.017-1.027v-.046c0-.408 0-.748-.017-1.027a2.827 2.827 0 00-.16-.836 2.75 2.75 0 00-1.604-1.605 2.83 2.83 0 00-.836-.159c-.28-.017-.62-.017-1.026-.017h-.024zm-1.357 1.58c.072-.027.18-.052.401-.065.227-.015.52-.015.956-.015.437 0 .73 0 .957.015.22.013.329.038.4.065.337.127.603.393.73.73.027.071.052.18.065.4.015.228.015.52.015.957 0 .436 0 .729-.015.956-.013.221-.038.33-.065.4a1.25 1.25 0 01-.73.73 1.38 1.38 0 01-.4.066c-.228.014-.52.014-.957.014-.436 0-.729 0-.956-.014a1.385 1.385 0 01-.4-.066 1.25 1.25 0 01-.73-.73 1.389 1.389 0 01-.066-.4c-.014-.227-.014-.52-.014-.956 0-.437 0-.73.014-.957a1.38 1.38 0 01.066-.4 1.25 1.25 0 01.73-.73zm-7.81-1.58h-.022c-.408 0-.748 0-1.027.017a2.842 2.842 0 00-.836.16A2.75 2.75 0 001.926 3.53c-.101.27-.14.545-.159.836-.017.28-.017.62-.017 1.027v.046c0 .407 0 .747.017 1.027.019.29.058.566.16.835A2.75 2.75 0 003.53 8.907c.27.101.545.14.836.159.28.017.62.017 1.027.017h.046c.407 0 .747 0 1.027-.017.29-.018.566-.058.835-.159a2.75 2.75 0 001.605-1.605c.101-.27.14-.545.159-.835.017-.28.017-.62.017-1.027v-.046c0-.408 0-.748-.017-1.027a2.829 2.829 0 00-.159-.836 2.75 2.75 0 00-1.605-1.605 2.829 2.829 0 00-.835-.159c-.28-.017-.62-.017-1.027-.017h-.023zM4.06 3.33c.071-.027.18-.052.4-.065.228-.015.52-.015.957-.015.436 0 .729 0 .956.015.221.013.33.038.4.065.338.127.603.393.73.73.027.071.052.18.066.4.014.228.014.52.014.957 0 .436 0 .729-.014.956-.014.221-.039.33-.066.4a1.25 1.25 0 01-.73.73c-.07.027-.179.052-.4.066-.227.014-.52.014-.956.014-.437 0-.73 0-.956-.014a1.386 1.386 0 01-.401-.066 1.25 1.25 0 01-.73-.73 1.386 1.386 0 01-.065-.4 17.05 17.05 0 01-.015-.956c0-.437 0-.73.015-.957.013-.22.038-.329.065-.4a1.25 1.25 0 01.73-.73zm1.334 7.587h.046c.407 0 .747 0 1.027.017.29.018.566.058.835.159a2.75 2.75 0 011.605 1.605c.101.27.14.545.159.835.017.28.017.62.017 1.027v.046c0 .408 0 .748-.017 1.027a2.83 2.83 0 01-.159.836 2.75 2.75 0 01-1.605 1.605c-.27.101-.545.14-.835.159-.28.017-.62.017-1.027.017h-.046c-.408 0-.748 0-1.027-.017a2.827 2.827 0 01-.836-.16 2.75 2.75 0 01-1.605-1.604 2.829 2.829 0 01-.159-.836 17.71 17.71 0 01-.017-1.026v-.047c0-.407 0-.747.017-1.027.019-.29.058-.566.16-.835a2.75 2.75 0 011.604-1.605c.27-.101.545-.14.836-.159.28-.017.62-.017 1.027-.017zM4.46 12.43c-.222.014-.33.039-.401.066a1.25 1.25 0 00-.73.73c-.027.07-.052.179-.065.4-.015.227-.015.52-.015.956 0 .437 0 .73.015.957.013.22.038.329.065.4.127.337.393.603.73.73.071.027.18.052.4.065.228.015.52.015.957.015.436 0 .729 0 .956-.015.221-.013.33-.038.4-.065a1.25 1.25 0 00.73-.73 1.38 1.38 0 00.066-.4c.014-.228.014-.52.014-.957 0-.436 0-.729-.014-.956a1.387 1.387 0 00-.066-.4 1.25 1.25 0 00-.73-.73 1.385 1.385 0 00-.4-.066c-.227-.014-.52-.014-.956-.014-.437 0-.73 0-.956.014zm10.122-1.514h-.023c-.407 0-.747 0-1.027.017-.29.018-.566.058-.835.159a2.75 2.75 0 00-1.605 1.605 2.83 2.83 0 00-.159.835c-.017.28-.017.62-.017 1.027v.046c0 .408 0 .748.017 1.027.018.291.058.566.159.836a2.75 2.75 0 001.605 1.605c.27.101.545.14.835.159.28.017.62.017 1.027.017h.046c.408 0 .748 0 1.027-.017.291-.019.566-.058.836-.16a2.75 2.75 0 001.605-1.604c.101-.27.14-.545.159-.836.017-.28.017-.62.017-1.026v-.047c0-.407 0-.747-.017-1.027a2.827 2.827 0 00-.16-.835 2.75 2.75 0 00-1.604-1.605 2.834 2.834 0 00-.836-.159c-.28-.017-.62-.017-1.027-.017h-.023zm-1.357 1.58c.072-.027.18-.052.401-.066.227-.014.52-.014.956-.014.437 0 .73 0 .957.014.22.014.329.039.4.066.337.127.603.393.73.73.027.07.052.179.065.4.015.227.015.52.015.956 0 .437 0 .73-.015.957-.013.22-.038.329-.065.4a1.25 1.25 0 01-.73.73c-.071.027-.18.052-.4.065-.228.015-.52.015-.957.015-.436 0-.729 0-.956-.015a1.385 1.385 0 01-.4-.065 1.25 1.25 0 01-.73-.73 1.39 1.39 0 01-.066-.4c-.014-.228-.014-.52-.014-.957 0-.436 0-.729.014-.956a1.39 1.39 0 01.066-.4 1.25 1.25 0 01.73-.73z" fill="#fff"/></svg>