<svg width="20" height="20" fill="none" xmlns="http://www.w3.org/2000/svg"><path fill-rule="evenodd" clip-rule="evenodd" d="M8.333 2.583h-.037c-1.214 0-2.177 0-2.95.07-.791.072-1.457.222-2.054.567a4.75 4.75 0 00-1.739 1.738c-.345.598-.495 1.263-.566 2.054-.07.773-.07 1.736-.07 2.951v.074c0 1.215 0 2.177.07 2.95.071.792.221 1.457.566 2.055a4.75 4.75 0 001.739 1.738c.597.345 1.263.495 2.054.566.773.07 1.736.07 2.95.07h3.407c1.215 0 2.178 0 2.951-.07.791-.071 1.457-.221 2.054-.566a4.75 4.75 0 001.739-1.738c.345-.598.495-1.263.566-2.054.07-.774.07-1.736.07-2.951v-.074c0-1.215 0-2.178-.07-2.95-.072-.792-.221-1.457-.566-2.055a4.75 4.75 0 00-1.739-1.738c-.597-.345-1.263-.495-2.054-.567-.773-.07-1.736-.07-2.95-.07H8.332zM4.042 4.52c.33-.191.752-.31 1.44-.372.697-.063 1.591-.064 2.851-.064h3.334c1.26 0 2.154.001 2.852.064.687.062 1.108.18 1.44.372a3.25 3.25 0 011.189 1.19c.19.33.31.752.371 1.439.064.697.064 1.592.064 2.852 0 1.26 0 2.155-.064 2.852-.062.687-.18 1.109-.371 1.44a3.251 3.251 0 01-1.19 1.19c-.33.19-.752.308-1.44.37-.697.064-1.591.065-2.851.065H8.333c-1.26 0-2.154-.001-2.852-.064-.687-.063-1.108-.18-1.44-.372a3.25 3.25 0 01-1.189-1.19c-.191-.33-.31-.752-.371-1.439-.064-.697-.064-1.592-.064-2.852 0-1.26 0-2.155.064-2.852.062-.687.18-1.109.371-1.44a3.25 3.25 0 011.19-1.19zm1.374 1.524a.75.75 0 10-.832 1.248l5 3.333a.75.75 0 00.832 0l5-3.333a.75.75 0 10-.832-1.248L10 9.099 5.416 6.043z" fill="#818294"/></svg>