<svg width="24" height="25" fill="none" xmlns="http://www.w3.org/2000/svg"><path d="M23.965 12.214c0-6.618-5.364-11.983-11.982-11.983C5.365.231 0 5.596 0 12.214c0 5.98 4.382 10.938 10.11 11.837v-8.373H7.068v-3.464h3.042v-2.64c0-3.003 1.79-4.662 4.526-4.662 1.311 0 2.683.234 2.683.234v2.95h-1.511c-1.489 0-1.953.923-1.953 1.871v2.247h3.323l-.531 3.464h-2.792v8.373c5.728-.899 10.11-5.856 10.11-11.837z" fill="#818294"/><path d="M16.647 15.678l.531-3.464h-3.323V9.967c0-.947.464-1.872 1.953-1.872h1.51V5.146s-1.37-.234-2.682-.234c-2.737 0-4.526 1.659-4.526 4.662v2.64H7.068v3.464h3.042v8.373c1.241.194 2.504.194 3.745 0v-8.373h2.792z" fill="#F0FBFF"/></svg>