<svg width="24" height="25" fill="none" xmlns="http://www.w3.org/2000/svg"><path fill-rule="evenodd" clip-rule="evenodd" d="M12 2.75c-3.223 0-5.637 1.346-7.23 2.674-.387.322-.727.645-1.02.948V4.5a.75.75 0 00-1.5 0v4c0 .414.336.75.75.75h3.5a.75.75 0 000-1.5H4.518c.318-.358.723-.766 1.212-1.174C7.137 5.404 9.223 4.25 12 4.25a8.231 8.231 0 018.25 8.25 8.25 8.25 0 01-16.5 0 .75.75 0 00-1.5 0c0 5.385 4.365 9.75 9.75 9.75s9.75-4.365 9.75-9.75A9.731 9.731 0 0012 2.75zm.75 5.75a.75.75 0 00-1.5 0v4c0 .25.125.485.334.624l3 2a.75.75 0 10.832-1.248l-2.666-1.777V8.5z" fill="#818294"/></svg>