<svg width="25" height="24" fill="none" xmlns="http://www.w3.org/2000/svg"><path fill-rule="evenodd" clip-rule="evenodd" d="M13.25 3a.75.75 0 00-1.5 0v12.19l-2.72-2.72a.75.75 0 10-1.06 1.06l4 4a.75.75 0 001.06 0l4-4a.75.75 0 00-1.06-1.06l-2.72 2.72V3zM8 8.25h-.045c-1.135 0-2.05 0-2.779.082-.754.085-1.403.266-1.959.693-.26.2-.493.432-.692.692-.427.556-.608 1.205-.693 1.96-.082.729-.082 1.643-.082 2.778v.6c0 1.367 0 2.47.117 3.337.12.9.38 1.658.981 2.26.602.602 1.36.86 2.26.982.867.116 1.97.116 3.337.116h8.11c1.367 0 2.47 0 3.337-.116.9-.122 1.658-.38 2.26-.982.602-.602.86-1.36.982-2.26.116-.867.116-1.97.116-3.337v-.6c0-1.135 0-2.05-.082-2.779-.085-.754-.266-1.402-.693-1.959a3.75 3.75 0 00-.692-.692c-.556-.427-1.205-.608-1.96-.693-.729-.082-1.643-.082-2.778-.082H17V9v-.75h-.5a.75.75 0 000 1.5h.5c1.19 0 2.02.001 2.656.073.62.07.962.199 1.214.392.156.12.295.26.415.415.193.252.322.594.392 1.214.072.636.073 1.466.073 2.656v.5c0 1.436-.002 2.437-.103 3.192-.099.734-.28 1.122-.556 1.4-.277.276-.665.456-1.4.555-.755.102-1.756.103-3.191.103h-8c-1.435 0-2.437-.002-3.192-.103-.734-.099-1.122-.28-1.399-.556-.277-.277-.457-.665-.556-1.4-.101-.754-.103-1.755-.103-3.19v-.5c0-1.191.001-2.021.073-2.657.07-.62.199-.962.392-1.214.12-.156.26-.295.415-.415.252-.193.594-.322 1.214-.392C5.98 9.75 6.81 9.75 8 9.75h.5a.75.75 0 100-1.5H8V9v-.75z" fill="#fff"/></svg>