<svg width="27" height="26" fill="none" xmlns="http://www.w3.org/2000/svg"><path d="M13.547 2.9c3.362 0 3.76.015 5.082.074 1.229.054 1.892.26 2.334.433a3.89 3.89 0 011.445.938c.443.443.713.86.94 1.445.171.443.378 1.111.432 2.335.058 1.327.073 1.725.073 5.082 0 3.361-.015 3.76-.073 5.082-.055 1.228-.26 1.892-.433 2.334a3.892 3.892 0 01-.939 1.445 3.87 3.87 0 01-1.445.939c-.442.172-1.11.378-2.334.432-1.327.06-1.725.074-5.082.074-3.362 0-3.76-.015-5.082-.074-1.228-.054-1.892-.26-2.334-.432a3.891 3.891 0 01-1.445-.939 3.87 3.87 0 01-.939-1.445c-.172-.442-.378-1.11-.432-2.334-.06-1.327-.074-1.726-.074-5.082 0-3.362.015-3.76.074-5.082.054-1.229.26-1.892.432-2.335a3.891 3.891 0 01.939-1.445 3.87 3.87 0 011.445-.938c.442-.172 1.11-.379 2.334-.433 1.322-.059 1.72-.074 5.082-.074zm0-2.265c-3.416 0-3.843.015-5.185.073-1.337.06-2.256.276-3.052.585a6.141 6.141 0 00-2.231 1.455 6.165 6.165 0 00-1.455 2.226c-.31.802-.526 1.716-.585 3.053C.98 9.373.965 9.8.965 13.217c0 3.415.015 3.843.074 5.185.059 1.336.275 2.255.585 3.052a6.14 6.14 0 001.455 2.231c.698.698 1.4 1.13 2.226 1.45.801.31 1.715.526 3.052.585 1.342.059 1.77.073 5.185.073 3.416 0 3.844-.014 5.185-.073 1.337-.06 2.256-.276 3.052-.585a6.152 6.152 0 002.227-1.45 6.152 6.152 0 001.45-2.226c.31-.802.525-1.716.584-3.052.06-1.342.074-1.77.074-5.186 0-3.415-.015-3.843-.074-5.185-.059-1.336-.275-2.255-.584-3.052a5.893 5.893 0 00-1.44-2.236 6.15 6.15 0 00-2.227-1.45c-.801-.31-1.715-.526-3.052-.585C17.39.65 16.963.635 13.547.635z" fill="#818294"/><path d="M13.547 6.753a6.465 6.465 0 00-6.463 6.463 6.465 6.465 0 006.463 6.463 6.465 6.465 0 006.463-6.463 6.465 6.465 0 00-6.463-6.463zm0 10.656a4.193 4.193 0 11.001-8.386 4.193 4.193 0 010 8.386zm8.227-10.911a1.51 1.51 0 11-3.018 0 1.51 1.51 0 013.018 0z" fill="#818294"/></svg>