<svg width="80" height="41" fill="none" xmlns="http://www.w3.org/2000/svg"><rect x=".5" y="1" width="79" height="39" rx="7.5" fill="#F0FBFF" stroke="#DCF6FF"/><path d="M20.198 26V15.09h1.646v9.493h4.944V26h-6.59zm17.519-5.454c0 1.164-.213 2.166-.64 3.004-.426.834-1.01 1.477-1.752 1.928-.739.447-1.579.671-2.52.671-.944 0-1.788-.224-2.53-.671-.738-.451-1.32-1.096-1.747-1.934-.426-.838-.64-1.837-.64-2.998 0-1.165.214-2.165.64-3 .426-.837 1.009-1.48 1.747-1.928.742-.45 1.586-.676 2.53-.676.941 0 1.781.225 2.52.676.742.448 1.326 1.09 1.752 1.929.427.834.64 1.834.64 2.998zm-1.63 0c0-.888-.144-1.636-.432-2.243-.284-.61-.674-1.073-1.172-1.385a3.044 3.044 0 00-1.677-.474c-.63 0-1.19.158-1.684.474-.493.313-.884.774-1.172 1.385-.284.607-.426 1.355-.426 2.242 0 .888.142 1.637.426 2.248.288.608.679 1.07 1.172 1.385a3.08 3.08 0 001.684.469 3.07 3.07 0 001.677-.469c.498-.316.888-.777 1.172-1.385.288-.61.432-1.36.432-2.247zm11.065-2.009a3.327 3.327 0 00-.416-.868 2.657 2.657 0 00-1.427-1.081 3.277 3.277 0 00-.996-.144c-.615 0-1.169.158-1.662.474-.494.316-.885.78-1.172 1.39-.284.608-.426 1.351-.426 2.232 0 .884.143 1.632.431 2.243.288.61.682 1.074 1.182 1.39a3.137 3.137 0 001.71.474c.593 0 1.11-.12 1.55-.362a2.523 2.523 0 001.029-1.023c.245-.444.367-.966.367-1.566l.426.08h-3.121v-1.358h4.288v1.24c0 .917-.196 1.712-.586 2.387A3.99 3.99 0 0146.72 25.6c-.682.366-1.463.55-2.344.55-.987 0-1.853-.228-2.599-.683-.742-.454-1.321-1.099-1.736-1.933-.416-.838-.624-1.833-.624-2.983 0-.87.121-1.651.362-2.344.242-.692.581-1.28 1.018-1.763.44-.487.957-.858 1.55-1.113a4.853 4.853 0 011.955-.39c.59 0 1.138.088 1.646.262.511.174.966.42 1.363.74a4.192 4.192 0 011.53 2.594h-1.69zm13.328 2.009c0 1.164-.213 2.166-.639 3.004-.426.834-1.01 1.477-1.752 1.928-.739.447-1.579.671-2.52.671-.944 0-1.788-.224-2.53-.671-.739-.451-1.321-1.096-1.747-1.934-.426-.838-.64-1.837-.64-2.998 0-1.165.214-2.165.64-3 .426-.837 1.008-1.48 1.747-1.928.742-.45 1.586-.676 2.53-.676.941 0 1.781.225 2.52.676.742.448 1.326 1.09 1.752 1.929.426.834.64 1.834.64 2.998zm-1.63 0c0-.888-.143-1.636-.431-2.243-.284-.61-.675-1.073-1.172-1.385a3.044 3.044 0 00-1.678-.474c-.628 0-1.19.158-1.683.474-.494.313-.884.774-1.172 1.385-.284.607-.426 1.355-.426 2.242 0 .888.142 1.637.426 2.248.288.608.678 1.07 1.172 1.385a3.08 3.08 0 001.683.469 3.07 3.07 0 001.678-.469c.497-.316.888-.777 1.172-1.385.288-.61.431-1.36.431-2.247z" fill="#000"/></svg>