<svg width="36" height="37" fill="none" xmlns="http://www.w3.org/2000/svg"><path d="M10.575 9.5h14.85c1.906 0 3.464 1.526 3.57 3.449l.005.207v10.688c0 1.95-1.492 3.543-3.372 3.65l-.203.006h-14.85c-1.906 0-3.464-1.526-3.57-3.449L7 23.844V13.156c0-1.95 1.492-3.543 3.372-3.65l.203-.006h14.85-14.85zm16.775 6.045l-8.966 4.827a.808.808 0 01-.663.047l-.105-.047-8.966-4.826v8.298c0 1.033.778 1.88 1.767 1.962l.158.006h14.85c1.01 0 1.838-.795 1.919-1.807l.006-.161v-8.3zm-1.925-4.357h-14.85c-1.01 0-1.838.795-1.919 1.807l-.006.161v.483L18 18.672l9.35-5.034v-.482c0-1.033-.778-1.88-1.767-1.962l-.158-.007z" fill="#1C6BB9"/><rect x=".5" y="1" width="35" height="35" rx="17.5" stroke="#1C6BB9"/></svg>