<svg width="20" height="20" fill="none" xmlns="http://www.w3.org/2000/svg"><path fill-rule="evenodd" clip-rule="evenodd" d="M4.083 8.457c0-2.065.753-3.556 1.837-4.537C7.016 2.928 8.497 2.417 10 2.417c1.503 0 2.984.51 4.08 1.503 1.084.981 1.837 2.472 1.837 4.537 0 2.383-1.274 4.513-2.745 6.167-.667.75-1.082 1.209-1.531 1.507-.402.266-.861.419-1.64.419-.78 0-1.24-.153-1.642-.42-.448-.297-.864-.756-1.53-1.506-1.472-1.654-2.746-3.784-2.746-6.167zm13.334 0c0-2.462-.914-4.366-2.33-5.649C13.683 1.538 11.83.917 10 .917c-1.83 0-3.683.62-5.087 1.891-1.416 1.283-2.33 3.187-2.33 5.649 0 2.917 1.548 5.391 3.124 7.164l.048.053c.605.68 1.146 1.29 1.775 1.707.693.459 1.454.669 2.47.669 1.016 0 1.778-.21 2.47-.67.63-.417 1.17-1.025 1.775-1.706l.048-.053c1.576-1.773 3.124-4.247 3.124-7.164zM8.25 8.333a1.75 1.75 0 113.5 0 1.75 1.75 0 01-3.5 0zM10 5.083a3.25 3.25 0 100 6.5 3.25 3.25 0 000-6.5z" fill="#818294"/></svg>