<svg width="24" height="25" fill="none" xmlns="http://www.w3.org/2000/svg"><path fill-rule="evenodd" clip-rule="evenodd" d="M2.624 2.851a.75.75 0 01.748-.002L6.5 4.636 9.628 2.85a.75.75 0 01.744 0L13.5 4.636l3.128-1.787a.75.75 0 011.122.651v8.25H21a.75.75 0 01.75.75v7A2.75 2.75 0 0119 22.25H8.945c-1.367 0-2.47 0-3.337-.116-.9-.122-1.658-.38-2.26-.982-.602-.602-.86-1.36-.981-2.26-.117-.867-.117-1.97-.117-3.337V3.5a.75.75 0 01.374-.649zM19 20.75c.69 0 1.25-.56 1.25-1.25v-6.25h-2.5v6.25c0 .69.56 1.25 1.25 1.25zm-2.45 0H9c-1.435 0-2.437-.002-3.192-.103-.734-.099-1.122-.28-1.399-.556-.277-.277-.457-.665-.556-1.4-.101-.755-.103-1.756-.103-3.191V4.792l2.378 1.36a.75.75 0 00.744 0L10 4.363l3.128 1.787a.75.75 0 00.744 0l2.378-1.359V19.5c0 .45.108.875.3 1.25zM6.25 9.5A.75.75 0 017 8.75h4a.75.75 0 010 1.5H7a.75.75 0 01-.75-.75zM10 12.75a.75.75 0 000 1.5h3a.75.75 0 000-1.5h-3zm-.75 4.75a.75.75 0 01.75-.75h3a.75.75 0 010 1.5h-3a.75.75 0 01-.75-.75zM8 13.5a1 1 0 11-2 0 1 1 0 012 0zm-1 5a1 1 0 100-2 1 1 0 000 2z" fill="#818294"/></svg>