<svg width="22" height="22" fill="none" xmlns="http://www.w3.org/2000/svg"><path fill-rule="evenodd" clip-rule="evenodd" d="M9 4.583a2 2 0 014 0v1.084H9V4.583zM7.5 7.181V8.25a.75.75 0 001.5 0V7.167h4V8.25a.75.75 0 101.5 0V7.181c.443.013.82.036 1.148.079.684.089 1.055.252 1.328.503.273.252.465.609.608 1.283.148.696.224 1.62.33 2.95l.067.833c.124 1.54.209 2.615.162 3.43-.045.794-.211 1.214-.49 1.517-.28.303-.685.502-1.473.61-.808.112-1.888.114-3.432.114H9.251c-1.543 0-2.623-.002-3.432-.114-.787-.108-1.193-.307-1.472-.61-.28-.303-.445-.723-.49-1.517-.047-.815.038-1.89.161-3.43l.067-.833c.107-1.33.183-2.254.33-2.95.144-.674.336-1.031.609-1.283.272-.251.644-.414 1.327-.503.329-.043.705-.066 1.149-.079zm0-1.5V4.583a3.5 3.5 0 017 0v1.098c.5.013.946.04 1.342.091.845.11 1.562.345 2.151.889.59.544.88 1.24 1.058 2.073.17.802.253 1.825.355 3.09l.004.052.067.833.004.057c.118 1.469.213 2.649.16 3.58-.056.964-.274 1.784-.886 2.447s-1.412.947-2.37 1.08c-.923.127-2.107.127-3.58.127h-3.61c-1.473 0-2.657 0-3.58-.128-.957-.132-1.758-.416-2.37-1.079-.61-.663-.83-1.483-.885-2.448-.053-.93.041-2.11.16-3.578l.004-.058.067-.833.004-.052c.102-1.265.184-2.288.354-3.09.178-.834.47-1.53 1.058-2.073.59-.544 1.306-.779 2.152-.889.396-.051.842-.078 1.342-.091z" fill="#1B1C1E"/></svg>