<svg width="21" height="20" fill="none" xmlns="http://www.w3.org/2000/svg"><path fill-rule="evenodd" clip-rule="evenodd" d="M1.833 1.5h.417v1-1c1.63 0 3.09.994 3.69 2.5h9.288c.53 0 .978 0 1.34.024.369.024.745.077 1.1.235a3 3 0 011.774 2.561c.023.388-.059.758-.166 1.113-.104.347-.261.765-.448 1.262l-.011.031-.044.116c-.261.698-.457 1.222-.767 1.655a4 4 0 01-2.212 1.532c-.513.139-1.073.138-1.818.138H6A.667.667 0 106 14h12.5a1 1 0 110 2h-.75a2.67 2.67 0 01-2.583 3.333A2.667 2.667 0 0112.584 16h-1.501A2.67 2.67 0 018.5 19.333 2.667 2.667 0 015.918 16 2.667 2.667 0 016 10.667h.365a6.582 6.582 0 01-.152-.29c-.296-.595-.572-1.356-.903-2.266l-.02-.052-1.184-3.26A1.974 1.974 0 002.25 3.5h-.417a1 1 0 110-2zm10.844 9.167H11.64c-.913 0-1.546-.006-2.042-.062-.51-.057-.776-.16-.977-.3-.201-.14-.388-.356-.617-.816-.24-.484-.479-1.138-.834-2.114L6.67 6h8.525c.572 0 .953 0 1.24.02.287.018.385.051.419.066a1 1 0 01.591.854c.003.037 0 .14-.084.415-.083.276-.216.633-.417 1.17-.325.865-.428 1.118-.564 1.307a2 2 0 01-1.106.766c-.224.06-.498.069-1.422.069h-1.175zM8.5 16a.667.667 0 100 1.333.667.667 0 000-1.333zm6.667 0a.667.667 0 100 1.333.667.667 0 000-1.333z" fill="#F5750C"/></svg>