<svg width="19" height="18" fill="none" xmlns="http://www.w3.org/2000/svg"><path fill-rule="evenodd" clip-rule="evenodd" d="M8 3.75a1.5 1.5 0 113 0v.75H8v-.75zM6.5 6.031v.719a.75.75 0 101.5 0V6h3v.75a.75.75 0 001.5 0v-.719c.099.006.193.014.282.022.523.052.821.147 1.049.29.238.148.445.34.613.565.16.215.278.505.372 1.022.095.53.151 1.219.23 2.21.093 1.145.156 1.945.141 2.564-.015.607-.105.947-.257 1.2a2.25 2.25 0 01-.625.678c-.24.172-.572.29-1.176.352C12.513 15 11.71 15 10.56 15H8.44c-1.149 0-1.952-.001-2.568-.066-.604-.063-.935-.18-1.176-.352a2.25 2.25 0 01-.625-.677c-.152-.254-.242-.594-.257-1.2-.015-.62.048-1.42.14-2.565.08-.991.136-1.68.232-2.21.093-.517.211-.807.372-1.022a2.25 2.25 0 01.612-.566c.228-.142.526-.237 1.049-.289.09-.008.183-.016.282-.022zm0-1.502V3.75a3 3 0 116 0v.779c.15.008.293.018.429.032.639.062 1.195.196 1.697.51a3.75 3.75 0 011.021.942c.354.476.531 1.02.645 1.651.11.611.171 1.374.247 2.317l.003.038.003.043c.088 1.093.159 1.972.142 2.679-.018.727-.129 1.364-.47 1.934a3.75 3.75 0 01-1.041 1.129c-.541.385-1.167.546-1.89.622-.704.074-1.586.074-2.682.074H8.396c-1.097 0-1.98 0-2.682-.074-.724-.076-1.35-.237-1.89-.622a3.75 3.75 0 01-1.043-1.13c-.34-.57-.451-1.206-.469-1.933-.017-.707.054-1.586.142-2.68l.003-.042.003-.038c.076-.943.137-1.706.247-2.317.114-.632.291-1.175.645-1.651a3.75 3.75 0 011.02-.942c.503-.314 1.06-.448 1.698-.51.136-.014.279-.024.429-.032z" fill="#fff"/></svg>