<svg width="20" height="20" fill="none" xmlns="http://www.w3.org/2000/svg"><path fill-rule="evenodd" clip-rule="evenodd" d="M9.975.917h.05c.833 0 1.492 0 2.028.033.547.034 1.014.106 1.454.271a4.75 4.75 0 012.772 2.773c.165.44.237.906.27 1.453.034.536.034 1.196.034 2.028v5.05c0 .833 0 1.492-.033 2.028-.034.547-.106 1.014-.271 1.454a4.75 4.75 0 01-2.772 2.772c-.44.165-.907.237-1.454.27-.536.034-1.195.034-2.028.034h-.05c-.833 0-1.492 0-2.028-.033-.547-.034-1.014-.106-1.454-.271a4.75 4.75 0 01-2.772-2.772c-.165-.44-.237-.907-.27-1.454-.034-.536-.034-1.195-.034-2.028v-5.05c0-.832 0-1.492.033-2.028.034-.547.106-1.014.271-1.453A4.75 4.75 0 016.493 1.22c.44-.165.907-.237 1.454-.27C8.483.916 9.142.916 9.975.916zm-1.934 1.53c-.477.03-.778.087-1.02.178a3.25 3.25 0 00-1.896 1.897c-.09.242-.148.542-.178 1.019-.03.483-.03 1.096-.03 1.96v5c0 .862 0 1.475.03 1.958.03.477.087.778.178 1.02a3.25 3.25 0 001.897 1.896c.241.091.542.148 1.019.178.483.03 1.096.03 1.959.03s1.476 0 1.96-.03c.476-.03.777-.087 1.018-.178a3.25 3.25 0 001.897-1.897c.091-.241.148-.542.178-1.019.03-.483.03-1.096.03-1.959v-5c0-.863 0-1.476-.03-1.96-.03-.476-.087-.776-.178-1.018a3.25 3.25 0 00-1.897-1.897c-.241-.09-.542-.148-1.019-.178-.483-.03-1.096-.03-1.959-.03s-1.476 0-1.96.03zm-.458 13.386a.75.75 0 01.75-.75h3.334a.75.75 0 010 1.5H8.333a.75.75 0 01-.75-.75zM10 5a.833.833 0 100-1.667A.833.833 0 0010 5z" fill="#818294"/></svg>