<svg width="16" height="16" fill="none" xmlns="http://www.w3.org/2000/svg"><path fill-rule="evenodd" clip-rule="evenodd" d="M6.937 1.5h2.126c.211 0 .41 0 .576.019.186.021.38.07.563.201.182.131.29.3.368.47.071.152.134.34.2.541l.008.023.249.746H14a.5.5 0 010 1h-.866l-.386 5.8-.002.034c-.058.856-.104 1.546-.212 2.088-.112.564-.303 1.035-.697 1.404-.394.369-.877.528-1.447.602-.548.072-1.24.072-2.097.072h-.586c-.857 0-1.55 0-2.097-.072-.57-.074-1.052-.233-1.447-.602-.394-.37-.585-.84-.697-1.404-.108-.542-.154-1.232-.211-2.088l-.003-.035L2.866 4.5H2a.5.5 0 110-1h2.973l.249-.746.007-.023c.067-.2.13-.389.2-.54.08-.17.187-.34.37-.47.181-.132.376-.18.562-.202.166-.02.365-.019.576-.019zm-.91 2h3.946l-.143-.43a4.913 4.913 0 00-.166-.458.426.426 0 00-.046-.08h-.001V2.53l-.009-.003a.427.427 0 00-.082-.015 4.913 4.913 0 00-.487-.013H6.961c-.243 0-.384 0-.487.013a.427.427 0 00-.082.015l-.008.003h-.001v.001l-.006.007a.426.426 0 00-.04.073 4.913 4.913 0 00-.167.458l-.143.43zm-2.16 1l.383 5.733c.06.898.103 1.524.196 1.994.091.456.218.698.4.868.183.17.432.281.893.342.476.062 1.103.063 2.003.063h.516c.9 0 1.527-.001 2.003-.063.461-.06.71-.171.893-.342.182-.17.309-.412.4-.868.093-.47.136-1.096.196-1.994l.382-5.733H3.868zm2.8 1.667a.5.5 0 01.5.5v4.666a.5.5 0 11-1 0V6.667a.5.5 0 01.5-.5zm3.166.5a.5.5 0 10-1 0v2.666a.5.5 0 001 0V6.667z" fill="#EB5757"/></svg>