<svg width="19" height="19" fill="none" xmlns="http://www.w3.org/2000/svg"><path fill-rule="evenodd" clip-rule="evenodd" d="M8.708 1.625a.75.75 0 00-.75.75v2.417H3.167a.75.75 0 00-.643.364L.149 9.114a.75.75 0 00-.107.386v4.75c0 .414.335.75.75.75h1.647a2.73 2.73 0 005.413 0h2.504a2.73 2.73 0 005.413 0h2.44a.75.75 0 00.75-.75V2.375a.75.75 0 00-.75-.75h-9.5zm-.75 4.708v-.041H3.591L2.116 8.75h5.842V6.333zm1.5 0V9.5a.75.75 0 01-.75.75H1.542v3.25h1.126a2.73 2.73 0 014.955 0h2.962a2.73 2.73 0 014.955 0h1.918V3.125h-8v3.207zm-4.312 7.084a1.23 1.23 0 100 2.458 1.23 1.23 0 000-2.458zm7.917 0a1.23 1.23 0 100 2.458 1.23 1.23 0 000-2.458z" fill="#1C6BB9"/></svg>