<svg width="20" height="20" fill="none" xmlns="http://www.w3.org/2000/svg"><path fill-rule="evenodd" clip-rule="evenodd" d="M10 2.417a7.583 7.583 0 100 15.166 7.583 7.583 0 000-15.166zM.917 10a9.083 9.083 0 1118.166 0A9.083 9.083 0 01.917 10zm7.972 1.583c-.813 0-1.472.66-1.472 1.472 0 .2.161.361.36.361h4.445a.36.36 0 00.361-.36c0-.814-.659-1.473-1.472-1.473H8.89zm-2.972 1.472a2.972 2.972 0 012.972-2.972h2.222a2.972 2.972 0 012.972 2.972 1.861 1.861 0 01-1.86 1.861H7.777a1.861 1.861 0 01-1.861-1.86zm3.166-6.388a.917.917 0 111.834 0 .917.917 0 01-1.834 0zM10 4.25a2.417 2.417 0 100 4.833 2.417 2.417 0 000-4.833z" fill="#818294"/></svg>