<svg width="20" height="20" fill="none" xmlns="http://www.w3.org/2000/svg"><path fill-rule="evenodd" clip-rule="evenodd" d="M7.417 5.833a2.583 2.583 0 115.166 0 2.583 2.583 0 01-5.167 0zM10 1.75a4.083 4.083 0 100 8.167 4.083 4.083 0 000-8.167zM4.917 15.833A2.583 2.583 0 017.5 13.25h5a2.583 2.583 0 012.583 2.583c0 .507-.41.917-.917.917H5.833a.917.917 0 01-.917-.917zM7.5 11.75a4.083 4.083 0 00-4.083 4.083 2.417 2.417 0 002.416 2.417h8.334a2.417 2.417 0 002.416-2.417A4.083 4.083 0 0012.5 11.75h-5z" fill="#1B1C1E"/></svg>