<svg width="20" height="20" fill="none" xmlns="http://www.w3.org/2000/svg"><path fill-rule="evenodd" clip-rule="evenodd" d="M4.333 5.833a2.333 2.333 0 114.667 0 2.333 2.333 0 01-4.667 0zM6.667 1.5a4.333 4.333 0 100 8.667 4.333 4.333 0 000-8.667zm5 0a1 1 0 100 2 2.333 2.333 0 010 4.667 1 1 0 100 2 4.333 4.333 0 000-8.667zM5 13.5a2.333 2.333 0 00-2.333 2.333c0 .368.298.667.666.667H10a.667.667 0 00.667-.667A2.333 2.333 0 008.333 13.5H5zM.667 15.833A4.333 4.333 0 015 11.5h3.333a4.333 4.333 0 014.334 4.333A2.667 2.667 0 0110 18.5H3.333a2.667 2.667 0 01-2.666-2.667zM13.333 11.5a1 1 0 100 2H15a2.333 2.333 0 012.333 2.333.667.667 0 01-.666.667h-3.334a1 1 0 100 2h3.334a2.667 2.667 0 002.666-2.667A4.333 4.333 0 0015 11.5h-1.667z" fill="#F5750C"/></svg>