<svg width="30" height="29" fill="none" xmlns="http://www.w3.org/2000/svg"><path fill-rule="evenodd" clip-rule="evenodd" d="M11.547 8.197c-.263-.586-.54-.598-.791-.608-.205-.009-.44-.008-.674-.008-.235 0-.616.088-.938.44-.322.352-1.23 1.204-1.23 2.936 0 1.733 1.26 3.407 1.435 3.642.176.235 2.433 3.903 6.008 5.314 2.97 1.173 3.575.94 4.22.881.644-.058 2.08-.851 2.373-1.673.293-.822.293-1.527.205-1.674-.088-.147-.322-.235-.674-.411-.352-.176-2.08-1.028-2.403-1.146-.322-.117-.557-.176-.791.177-.235.352-.908 1.145-1.113 1.38-.206.235-.41.264-.762.088-.352-.176-1.485-.548-2.828-1.747-1.046-.933-1.752-2.086-1.957-2.438-.205-.353-.022-.543.155-.719.158-.158.351-.41.527-.617.176-.205.234-.352.352-.587.117-.235.058-.44-.03-.616s-.771-1.918-1.084-2.614z" fill="#818294"/><path d="M25.02 4.131A13.978 13.978 0 0015.065 0C7.307 0 .994 6.319.99 14.086a14.08 14.08 0 001.878 7.043l-1.997 7.3 7.461-1.96a14.051 14.051 0 006.726 1.715h.006c7.757 0 14.07-6.32 14.074-14.087a14.01 14.01 0 00-4.119-9.966zm-9.955 21.674h-.005a11.672 11.672 0 01-5.954-1.632l-.427-.254-4.427 1.162 1.182-4.32-.279-.443a11.688 11.688 0 01-1.788-6.231c.002-6.456 5.25-11.708 11.702-11.708a11.615 11.615 0 018.27 3.434 11.644 11.644 0 013.424 8.284c-.003 6.455-5.25 11.708-11.698 11.708z" fill="#818294"/></svg>