<svg width="60" height="60" fill="none" xmlns="http://www.w3.org/2000/svg"><path fill-rule="evenodd" clip-rule="evenodd" d="M9.25 30C9.25 18.54 18.54 9.25 30 9.25c3.316 0 6.445.777 9.221 2.156a1.75 1.75 0 101.558-3.134A24.158 24.158 0 0030 5.75C16.607 5.75 5.75 16.607 5.75 30S16.607 54.25 30 54.25 54.25 43.393 54.25 30c0-.91-.05-1.808-.148-2.692a1.75 1.75 0 00-3.479.384c.084.757.127 1.527.127 2.308 0 11.46-9.29 20.75-20.75 20.75S9.25 41.46 9.25 30zm44.487-16.263a1.75 1.75 0 10-2.474-2.474L30 32.525l-6.263-6.262a1.75 1.75 0 10-2.474 2.474l7.5 7.5a1.75 1.75 0 002.474 0l22.5-22.5z" fill="#27AE60"/></svg>