<svg width="34" height="40" viewBox="0 0 34 40" fill="none" xmlns="http://www.w3.org/2000/svg">
<path fill-rule="evenodd" clip-rule="evenodd" d="M20.0749 29.9614H22.2842V39.9982H20.0749V29.9614ZM11.6689 29.9614H13.8782V39.9982H11.6689V29.9614ZM15.8878 29.9614H18.0971V39.9982H15.8878V29.9614Z" fill="#F5750C"/>
<path fill-rule="evenodd" clip-rule="evenodd" d="M31.3827 31.4604L25.8294 36.9843V26.4934H22.2097V20.3557H25.8294V9.78669H31.3827V31.4604ZM4.20121 0H16.9922H29.7832C31.4233 0 32.8514 0.943723 33.5425 2.30964H16.9286H2.42493V8.20258H13.8815V26.5484H16.902H19.9756V8.20258H33.9844V32.3154L26.1228 40H23.8764V28.5086H10.108V40H7.86158L0 32.3154V4.16515C0 1.87325 1.88939 0 4.20121 0V0ZM11.6474 26.4934H8.08781V36.9843L2.53274 31.4604V9.78669H8.08781V20.3557H11.6474V26.4934Z" fill="#1C6BB9"/>
</svg>
