<svg width="200" height="53" viewBox="0 0 200 53" fill="none" xmlns="http://www.w3.org/2000/svg">
<path fill-rule="evenodd" clip-rule="evenodd" d="M26.4139 39.4229H29.3208V52.6292H26.4139V39.4229ZM15.3534 39.4229H18.2604V52.6292H15.3534V39.4229ZM20.9046 39.4229H23.8115V52.6292H20.9046V39.4229Z" fill="#F5750C"/>
<path fill-rule="evenodd" clip-rule="evenodd" d="M41.293 41.3952L33.986 48.6636V34.8598H29.2232V26.7838H33.986V12.8772H41.293V41.3952ZM5.52791 0H22.3581H39.1884C41.3465 0 43.2256 1.24174 44.1349 3.039H22.2744H3.1907V10.7929H18.2651V34.9321H22.2395H26.2837V10.7929H44.7163V42.5203L34.3721 52.6316H31.4163V37.5113H13.3V52.6316H10.3442L0 42.5203V5.48046C0 2.46481 2.48605 0 5.52791 0V0ZM15.3256 34.8598H10.6419V48.6636L3.33256 41.3952V12.8772H10.6419V26.7838H15.3256V34.8598Z" fill="white"/>
<path d="M55.4046 34.5492H54.1046V38.4005H54.9325V36.6733C54.9325 36.3325 54.8883 35.854 54.8511 35.5436H54.8604L55.8442 38.4005H56.6L57.5814 35.5436H57.586C57.5488 35.854 57.5046 36.3325 57.5046 36.6733V38.4005H58.3814V34.5492H57.1535L56.2814 37.1191L55.4046 34.5492ZM59.7814 38.4005L59.9232 37.7563H61.2721L61.4186 38.4005H62.3465L61.5302 35.0931C61.4186 34.6589 61.1186 34.4886 60.5976 34.4886C60.0814 34.4886 59.7814 34.6589 59.6697 35.0931L58.8535 38.4005H59.7814ZM60.5976 35.2261C60.6953 35.2261 60.7186 35.2588 60.7279 35.3288L61.0953 36.965H60.1093L60.4721 35.3288C60.4883 35.2588 60.4976 35.2261 60.5976 35.2261ZM62.8186 38.4005H63.7348V37.1728H64.4139C64.8139 37.1728 65.2023 37.0421 65.4674 36.734C65.6581 36.4959 65.7348 36.1831 65.7348 35.854C65.7348 35.5062 65.6302 35.1584 65.3674 34.911C65.1372 34.6916 64.8093 34.5492 64.4139 34.5492H62.8186V38.4005ZM63.7348 35.3405H64.4139C64.5349 35.3405 64.6325 35.3802 64.7 35.4409C64.8139 35.5599 64.8255 35.7046 64.8255 35.854C64.8255 36.0291 64.8023 36.1714 64.7255 36.2601C64.6488 36.3582 64.5279 36.3745 64.4139 36.3745H63.7348V35.3405ZM67.1767 34.5492H66.2604V38.4005H67.1767V36.8437H67.479C67.7372 36.8437 67.9232 37.0141 68.0325 37.4155L68.3116 38.4005H69.3372L68.8558 37.0864C68.7558 36.8203 68.5976 36.4189 68.2907 36.2765L69.2767 34.5492H68.2511L67.4674 36.0781H67.1767V34.5492ZM72.2 38.4005V37.6022H71.0162C70.7418 37.6022 70.5604 37.3992 70.5604 37.1728V36.8763H71.9814V36.0734H70.5604V35.8143C70.5604 35.5389 70.7302 35.3405 71.0162 35.3405H72.2V34.5492H71.0162C70.0441 34.5492 69.6558 35.0978 69.6558 35.6719V37.2451C69.6558 37.8613 70.0883 38.4005 71.0162 38.4005H72.2ZM75.2535 35.3405V34.5492H72.6232V35.3405H73.4767V38.4005H74.3767V35.3405H75.2535ZM78.1767 35.3405H79.2837V38.4005H80.2V34.5492H77.2604V38.4005H78.1767V35.3405ZM82.9581 38.4005H83.8627V34.5492H81.3232C81.2697 35.3849 81.2139 36.1271 81.1093 37.0304C81.0837 37.3338 81.0232 37.6466 80.6232 37.6349V38.4332C81.5 38.4495 81.7302 38.1928 81.9116 37.4038C81.9814 37.0794 82.0697 35.8307 82.1186 35.3405H82.9581V38.4005ZM87.0372 38.4005V37.6022H85.8535C85.579 37.6022 85.3976 37.3992 85.3976 37.1728V36.8763H86.8186V36.0734H85.3976V35.8143C85.3976 35.5389 85.5697 35.3405 85.8535 35.3405H87.0372V34.5492H85.8535C84.8837 34.5492 84.493 35.0978 84.493 35.6719V37.2451C84.493 37.8613 84.9279 38.4005 85.8535 38.4005H87.0372ZM88.9744 33.856C88.8651 33.856 88.7651 33.744 88.7651 33.6343H88.179C88.179 34.0684 88.5023 34.3065 88.8744 34.3065H89.4023C89.779 34.3065 90.0976 34.0684 90.0976 33.6343H89.5162C89.5162 33.744 89.4116 33.856 89.3023 33.856H88.9744ZM90.6069 34.5492H89.7465L88.7697 36.3698C88.6604 36.5682 88.5744 36.7596 88.4907 36.9814H88.479C88.5069 36.7713 88.5302 36.5472 88.5302 36.3372V34.5492H87.6697V38.4005H88.5302L89.5209 36.5519C89.6255 36.3745 89.7093 36.1714 89.7744 35.9964H89.7953C89.7627 36.1878 89.7465 36.3978 89.7465 36.6126V38.4005H90.6069V34.5492ZM93.7046 38.4005V37.6022H92.6209C92.3232 37.6022 92.1604 37.3992 92.1604 37.1728V35.8143C92.1604 35.5389 92.3186 35.3405 92.6209 35.3405H93.7046V34.5492H92.6209C91.6325 34.5492 91.2372 35.0978 91.2372 35.6719V37.2451C91.2372 37.8613 91.6814 38.4005 92.6209 38.4005H93.7046ZM95.5976 34.5492V35.3405H96.7488C97.0441 35.3405 97.1976 35.4339 97.1976 35.7046C97.193 35.9567 97.0186 36.0617 96.7721 36.0617H95.9093V36.832H96.8697C97.1604 36.832 97.2976 36.9697 97.2976 37.2008C97.2976 37.4599 97.1976 37.6022 96.8976 37.6022H95.5976V38.4005H96.8976C97.6604 38.4005 98.2023 38.0434 98.2023 37.2941C98.2023 36.86 97.9883 36.5472 97.686 36.4259C97.8953 36.2811 98.0976 36.0244 98.1023 35.6649C98.1255 34.911 97.6046 34.5492 96.8418 34.5492H95.5976ZM99.3046 38.4005L99.4465 37.7563H100.795L100.944 38.4005H101.87L101.053 35.0931C100.944 34.6589 100.642 34.4886 100.121 34.4886C99.6069 34.4886 99.3046 34.6589 99.1953 35.0931L98.3767 38.4005H99.3046ZM100.121 35.2261C100.221 35.2261 100.242 35.2588 100.253 35.3288L100.621 36.965H99.6325L99.9953 35.3288C100.012 35.2588 100.023 35.2261 100.121 35.2261ZM103.258 35.3405H104.365V38.4005H105.281V34.5492H102.342V38.4005H103.258V35.3405ZM108.895 38.4005V34.5492H107.979V36.2391H107.36C106.998 36.2391 106.865 36.0571 106.865 35.7536V34.5492H105.96V35.7536C105.96 36.5519 106.514 37.0094 107.36 37.0094H107.979V38.4005H108.895ZM110.293 38.4005L110.435 37.7563H111.784L111.933 38.4005H112.86L112.042 35.0931C111.933 34.6589 111.63 34.4886 111.109 34.4886C110.595 34.4886 110.293 34.6589 110.184 35.0931L109.365 38.4005H110.293ZM111.109 35.2261C111.209 35.2261 111.23 35.2588 111.242 35.3288L111.609 36.965H110.621L110.984 35.3288C111 35.2588 111.012 35.2261 111.109 35.2261ZM115.693 38.4005V37.6022H114.609C114.312 37.6022 114.149 37.3992 114.149 37.1728V35.8143C114.149 35.5389 114.307 35.3405 114.609 35.3405H115.693V34.5492H114.609C113.621 34.5492 113.228 35.0978 113.228 35.6719V37.2451C113.228 37.8613 113.67 38.4005 114.609 38.4005H115.693ZM118.677 35.3405V34.5492H116.044V35.3405H116.9V38.4005H117.8V35.3405H118.677ZM121.644 38.4005V37.6022H120.46C120.186 37.6022 120.005 37.3992 120.005 37.1728V36.8763H121.426V36.0734H120.005V35.8143C120.005 35.5389 120.174 35.3405 120.46 35.3405H121.644V34.5492H120.46C119.488 34.5492 119.1 35.0978 119.1 35.6719V37.2451C119.1 37.8613 119.533 38.4005 120.46 38.4005H121.644ZM123.579 33.856C123.47 33.856 123.37 33.744 123.37 33.6343H122.784C122.784 34.0684 123.107 34.3065 123.481 34.3065H124.007C124.386 34.3065 124.702 34.0684 124.702 33.6343H124.123C124.123 33.744 124.019 33.856 123.909 33.856H123.579ZM125.214 34.5492H124.353L123.377 36.3698C123.267 36.5682 123.179 36.7596 123.098 36.9814H123.086C123.114 36.7713 123.135 36.5472 123.135 36.3372V34.5492H122.274V38.4005H123.135L124.128 36.5519C124.233 36.3745 124.314 36.1714 124.379 35.9964H124.402C124.37 36.1878 124.353 36.3978 124.353 36.6126V38.4005H125.214V34.5492ZM128.333 35.3405H129.693V34.5492H127.428V38.4005H128.333V35.3405ZM130.219 38.4005H131.135V37.1728H131.816C132.216 37.1728 132.605 37.0421 132.867 36.734C133.06 36.4959 133.137 36.1831 133.137 35.854C133.137 35.5062 133.033 35.1584 132.77 34.911C132.539 34.6916 132.209 34.5492 131.816 34.5492H130.219V38.4005ZM131.135 35.3405H131.816C131.935 35.3405 132.035 35.3802 132.1 35.4409C132.216 35.5599 132.226 35.7046 132.226 35.854C132.226 36.0291 132.205 36.1714 132.128 36.2601C132.051 36.3582 131.93 36.3745 131.816 36.3745H131.135V35.3405ZM133.844 37.6022V38.4005H134.446C135.302 38.4005 135.577 38.0387 135.791 37.2498L136.526 34.5492H135.544L135.112 36.3745H134.935C134.77 36.3745 134.709 36.3418 134.672 36.2041L134.212 34.5492H133.242L133.888 36.4912C134.042 36.9254 134.3 37.1728 134.77 37.1728H134.919C134.858 37.4272 134.77 37.6022 134.446 37.6022H133.844ZM136.8 34.5492V35.3405H137.951C138.246 35.3405 138.4 35.4339 138.4 35.7046C138.395 35.9567 138.219 36.0617 137.972 36.0617H137.112V36.832H138.072C138.363 36.832 138.5 36.9697 138.5 37.2008C138.5 37.4599 138.4 37.6022 138.1 37.6022H136.8V38.4005H138.1C138.86 38.4005 139.405 38.0434 139.405 37.2941C139.405 36.86 139.191 36.5472 138.888 36.4259C139.098 36.2811 139.3 36.0244 139.305 35.6649C139.328 34.911 138.807 34.5492 138.044 34.5492H136.8ZM143.342 36.4749C143.342 35.3405 142.979 34.5096 141.626 34.5096C140.265 34.5096 139.902 35.3405 139.902 36.4749C139.902 37.5976 140.253 38.4332 141.626 38.4332C142.995 38.4332 143.342 37.5976 143.342 36.4749ZM141.626 35.3078C142.381 35.3078 142.437 35.8867 142.437 36.4749C142.437 37.0537 142.388 37.6349 141.626 37.6349C140.858 37.6349 140.819 37.0537 140.819 36.4749C140.819 35.8867 140.867 35.3078 141.626 35.3078ZM143.972 38.4005H145.486C146.242 38.4005 146.812 38.0434 146.823 37.2941C146.823 36.86 146.605 36.5472 146.291 36.4259C146.512 36.2811 146.698 36.0244 146.702 35.6649C146.726 34.911 146.165 34.5492 145.409 34.5492H143.972V38.4005ZM144.849 36.832H145.495C145.798 36.832 145.923 36.9697 145.923 37.2008C145.923 37.4599 145.83 37.6256 145.535 37.6256H144.849V36.832ZM145.381 35.3288C145.677 35.3288 145.83 35.4339 145.83 35.7046C145.83 35.9567 145.649 36.0734 145.402 36.0734H144.849V35.3288H145.381ZM150.733 36.4749C150.733 35.3405 150.372 34.5096 149.016 34.5096C147.656 34.5096 147.295 35.3405 147.295 36.4749C147.295 37.5976 147.646 38.4332 149.016 38.4332C150.388 38.4332 150.733 37.5976 150.733 36.4749ZM149.016 35.3078C149.774 35.3078 149.828 35.8867 149.828 36.4749C149.828 37.0537 149.779 37.6349 149.016 37.6349C148.249 37.6349 148.212 37.0537 148.212 36.4749C148.212 35.8867 148.26 35.3078 149.016 35.3078ZM152.667 33.856C152.558 33.856 152.46 33.744 152.46 33.6343H151.874C151.874 34.0684 152.198 34.3065 152.57 34.3065H153.095C153.474 34.3065 153.793 34.0684 153.793 33.6343H153.212C153.212 33.744 153.107 33.856 152.998 33.856H152.667ZM154.302 34.5492H153.442L152.465 36.3698C152.356 36.5682 152.267 36.7596 152.186 36.9814H152.174C152.202 36.7713 152.223 36.5472 152.223 36.3372V34.5492H151.363V38.4005H152.223L153.216 36.5519C153.321 36.3745 153.402 36.1714 153.47 35.9964H153.491C153.458 36.1878 153.442 36.3978 153.442 36.6126V38.4005H154.302V34.5492ZM159.451 34.5492H158.586L157.609 36.3698C157.5 36.5682 157.416 36.7596 157.339 36.9814H157.323C157.351 36.7713 157.372 36.5472 157.372 36.3372V34.5492H156.519V38.4005H157.372L158.365 36.5519C158.465 36.3745 158.551 36.1714 158.623 35.9964H158.639C158.602 36.1878 158.586 36.3978 158.586 36.6126V38.4005H159.451V34.5492ZM164.03 38.4005V37.6022H162.944C162.649 37.6022 162.484 37.3992 162.484 37.1728V35.8143C162.484 35.5389 162.642 35.3405 162.944 35.3405H164.03V34.5492H162.944C161.958 34.5492 161.563 35.0978 161.563 35.6719V37.2451C161.563 37.8613 162.007 38.4005 162.944 38.4005H164.03ZM165.505 35.3405H166.612V38.4005H167.528V34.5492H164.588V38.4005H165.505V35.3405ZM170.702 38.4005V37.6022H169.519C169.244 37.6022 169.063 37.3992 169.063 37.1728V36.8763H170.484V36.0734H169.063V35.8143C169.063 35.5389 169.233 35.3405 169.519 35.3405H170.702V34.5492H169.519C168.549 34.5492 168.158 35.0978 168.158 35.6719V37.2451C168.158 37.8613 168.593 38.4005 169.519 38.4005H170.702ZM173.358 37.6022H172.244V34.5492H171.333V38.4005H173.698L173.774 39.1497H174.607V37.6022H174.263V34.5492H173.358V37.6022ZM179.086 35.3405V34.5492H176.456V35.3405H177.309V38.4005H178.209V35.3405H179.086ZM182.053 38.4005V37.6022H180.87C180.595 37.6022 180.414 37.3992 180.414 37.1728V36.8763H181.835V36.0734H180.414V35.8143C180.414 35.5389 180.584 35.3405 180.87 35.3405H182.053V34.5492H180.87C179.898 34.5492 179.509 35.0978 179.509 35.6719V37.2451C179.509 37.8613 179.942 38.4005 180.87 38.4005H182.053ZM185.651 34.5492H184.614L184.039 35.6439L183.467 34.5492H182.437L183.6 36.4189L182.316 38.4005H183.386L184.039 37.2078L184.698 38.4005H185.772L184.484 36.4189L185.651 34.5492ZM187.053 34.5492H186.139V38.4005H187.053V36.8203H188.256V38.4005H189.165V34.5492H188.256V36.0244H187.053V34.5492ZM192.835 34.5492H191.967L190.991 36.3698C190.881 36.5682 190.8 36.7596 190.723 36.9814H190.707C190.735 36.7713 190.756 36.5472 190.756 36.3372V34.5492H189.9V38.4005H190.756L191.749 36.5519C191.846 36.3745 191.935 36.1714 192.007 35.9964H192.023C191.984 36.1878 191.967 36.3978 191.967 36.6126V38.4005H192.835V34.5492ZM194.484 34.5492H193.57V38.4005H194.484V36.8437H194.786C195.044 36.8437 195.23 37.0141 195.339 37.4155L195.619 38.4005H196.644L196.163 37.0864C196.063 36.8203 195.905 36.4189 195.598 36.2765L196.584 34.5492H195.558L194.774 36.0781H194.484V34.5492ZM200 34.5492H199.135L198.158 36.3698C198.049 36.5682 197.967 36.7596 197.888 36.9814H197.872C197.9 36.7713 197.923 36.5472 197.923 36.3372V34.5492H197.067V38.4005H197.923L198.914 36.5519C199.014 36.3745 199.102 36.1714 199.172 35.9964H199.188C199.151 36.1878 199.135 36.3978 199.135 36.6126V38.4005H200V34.5492Z" fill="#F5750C"/>
<path fill-rule="evenodd" clip-rule="evenodd" d="M193.337 22.0037C194.532 22.0037 195.442 21.7493 196.06 21.2404C196.679 20.7316 196.991 20.0034 196.991 19.0557C196.991 18.1104 196.679 17.3822 196.06 16.8733C195.442 16.3645 194.532 16.1101 193.337 16.1101H190.125V22.0037H193.337ZM193.463 13.7783C194.744 13.7783 195.86 13.9907 196.811 14.4155C197.76 14.838 198.491 15.4449 198.995 16.2385C199.502 17.0274 199.758 17.968 199.758 19.0557C199.758 20.1294 199.502 21.0677 198.995 21.8636C198.491 22.6642 197.76 23.2734 196.811 23.6982C195.86 24.123 194.744 24.3354 193.463 24.3354H190.125V28.6185H187.379V13.7783H193.463ZM176.502 26.4128C177.486 26.4128 178.374 26.1887 179.163 25.7452C179.951 25.2994 180.57 24.6786 181.023 23.8803C181.472 23.0797 181.698 22.1881 181.698 21.1984C181.698 20.2088 181.472 19.3148 181.023 18.5165C180.57 17.7159 179.951 17.0951 179.163 16.6493C178.374 16.2058 177.486 15.984 176.502 15.984C175.516 15.984 174.628 16.2058 173.839 16.6493C173.051 17.0951 172.432 17.7159 171.981 18.5165C171.53 19.3148 171.305 20.2088 171.305 21.1984C171.305 22.1881 171.53 23.0797 171.981 23.8803C172.432 24.6786 173.051 25.2994 173.839 25.7452C174.628 26.1887 175.516 26.4128 176.502 26.4128ZM176.502 28.8286C174.995 28.8286 173.637 28.4995 172.423 27.8436C171.214 27.1854 170.263 26.2751 169.574 25.108C168.884 23.941 168.537 22.6386 168.537 21.1984C168.537 19.7559 168.884 18.4512 169.574 17.2865C170.263 16.1194 171.214 15.2091 172.423 14.5509C173.637 13.895 174.995 13.5659 176.502 13.5659C178.009 13.5659 179.367 13.895 180.579 14.5509C181.788 15.2091 182.739 16.1171 183.43 17.2748C184.118 18.4348 184.465 19.7419 184.465 21.1984C184.465 22.6526 184.118 23.962 183.43 25.1197C182.739 26.2798 181.788 27.1854 180.579 27.8436C179.367 28.4995 178.009 28.8286 176.502 28.8286ZM155.232 22.2581V24.6529V28.6185H152.486V13.7783H155.232V18.5936V19.9053V22.2581ZM165.623 13.7783V28.6185H162.877V22.2581H156.13V19.9053H162.877V13.7783H165.623ZM143.784 28.8286C142.644 28.8286 141.542 28.6675 140.479 28.3408C139.414 28.0163 138.574 27.5845 137.956 27.0477L138.905 24.9073C139.511 25.3881 140.253 25.7803 141.132 26.0837C142.014 26.3871 142.898 26.5388 143.784 26.5388C144.881 26.5388 145.702 26.3614 146.244 26.009C146.786 25.6565 147.058 25.1897 147.058 24.6109C147.058 24.1861 146.907 23.8383 146.602 23.5629C146.3 23.2851 145.916 23.0704 145.451 22.914C144.988 22.7599 144.353 22.5825 143.551 22.3841C142.425 22.1157 141.514 21.8473 140.816 21.5789C140.118 21.3105 139.521 20.8903 139.021 20.3161C138.521 19.7443 138.272 18.9717 138.272 17.996C138.272 17.1768 138.493 16.4322 138.937 15.76C139.381 15.0877 140.049 14.5556 140.942 14.1588C141.837 13.7643 142.932 13.5659 144.228 13.5659C145.13 13.5659 146.016 13.678 146.888 13.9044C147.763 14.1308 148.516 14.4552 149.149 14.88L148.284 17.0204C147.635 16.6376 146.958 16.3505 146.256 16.1521C145.551 15.9537 144.867 15.8557 144.207 15.8557C143.123 15.8557 142.316 16.0377 141.788 16.4065C141.258 16.773 140.995 17.2608 140.995 17.87C140.995 18.2925 141.146 18.6379 141.451 18.9063C141.751 19.1771 142.137 19.3895 142.602 19.5435C143.065 19.6999 143.7 19.875 144.502 20.0734C145.6 20.3278 146.502 20.5939 147.205 20.8693C147.909 21.1447 148.511 21.5649 149.011 22.1297C149.511 22.6946 149.763 23.4602 149.763 24.4195C149.763 25.2411 149.539 25.981 149.095 26.6462C148.653 27.3091 147.979 27.8389 147.079 28.2357C146.177 28.6302 145.079 28.8286 143.784 28.8286Z" fill="#F5750C"/>
<path fill-rule="evenodd" clip-rule="evenodd" d="M122.684 23.2315L121.121 24.9073V28.6186H116.979V13.7784H121.121V19.9474L126.844 13.7784H131.449L125.407 20.3512L131.765 28.6186H126.907L122.684 23.2315ZM108.765 28.915C107.214 28.915 105.823 28.5859 104.591 27.93C103.36 27.2718 102.391 26.3545 101.688 25.1828C100.984 24.0111 100.633 22.6806 100.633 21.1985C100.633 19.714 100.984 18.3859 101.688 17.2118C102.391 16.0378 103.36 15.1251 104.591 14.4669C105.823 13.8087 107.214 13.4819 108.765 13.4819C110.116 13.4819 111.333 13.7223 112.419 14.2008C113.502 14.684 114.402 15.3749 115.121 16.2805L112.46 18.6963C111.502 17.5386 110.34 16.9574 108.974 16.9574C108.172 16.9574 107.458 17.1348 106.83 17.4872C106.205 17.842 105.719 18.3392 105.374 18.9811C105.028 19.6253 104.856 20.3629 104.856 21.1985C104.856 22.0317 105.028 22.7693 105.374 23.4135C105.719 24.0554 106.205 24.5526 106.83 24.9073C107.458 25.2621 108.172 25.4372 108.974 25.4372C110.34 25.4372 111.502 24.8583 112.46 23.6983L115.121 26.1164C114.402 27.0197 113.502 27.7129 112.419 28.1938C111.333 28.6722 110.116 28.915 108.765 28.915ZM91.6116 28.915C89.4163 28.915 87.707 28.3128 86.4907 27.1131C85.2721 25.911 84.6628 24.2071 84.6628 22.0037V13.7784H88.8442V21.8754C88.8442 24.2515 89.7814 25.4372 91.6535 25.4372C93.5116 25.4372 94.4419 24.2515 94.4419 21.8754V13.7784H98.5605V22.0037C98.5605 24.2071 97.9535 25.911 96.7349 27.1131C95.5163 28.3128 93.8093 28.915 91.6116 28.915ZM75.621 24.6739H74.5372V21.4295H75.6651C76.5233 21.4295 77.1698 21.2428 77.607 20.8694C78.0442 20.4936 78.2628 19.9614 78.2628 19.2682C78.2628 18.5749 78.0442 18.0381 77.607 17.6576C77.1698 17.2748 76.5233 17.0834 75.6651 17.0834H73.3419C73.3419 20.937 73.314 24.7486 73.314 28.6186H69.1582V13.7784H75.9186C77.2558 13.7784 78.4163 14.0001 79.4023 14.4459C80.3884 14.8917 81.1489 15.5266 81.6861 16.3529C82.2186 17.1791 82.4861 18.1525 82.4861 19.2682C82.4861 20.3418 82.2372 21.2778 81.7372 22.0761C81.2372 22.8767 80.5233 23.4999 79.5954 23.9527L82.7837 28.6186H78.3047L75.621 24.6739ZM58.8931 17.1068H54.3535V13.7784H67.5954V17.1068H63.0768V28.6186H58.8931V17.1068Z" fill="white"/>
</svg>
