<svg width="152" height="40" viewBox="0 0 152 40" fill="none" xmlns="http://www.w3.org/2000/svg">
<path fill-rule="evenodd" clip-rule="evenodd" d="M20.0745 29.9614H22.2838V39.9982H20.0745V29.9614ZM11.6686 29.9614H13.8779V39.9982H11.6686V29.9614ZM15.8875 29.9614H18.0968V39.9982H15.8875V29.9614Z" fill="#F5750C"/>
<path fill-rule="evenodd" clip-rule="evenodd" d="M31.3827 31.4604L25.8294 36.9843V26.4934H22.2097V20.3557H25.8294V9.78669H31.3827V31.4604ZM4.20121 0H16.9922H29.7832C31.4233 0 32.8514 0.943723 33.5425 2.30964H16.9286H2.42493V8.20258H13.8815V26.5484H16.902H19.9756V8.20258H33.9844V32.3154L26.1228 40H23.8764V28.5086H10.108V40H7.86158L0 32.3154V4.16515C0 1.87325 1.88939 0 4.20121 0V0ZM11.6474 26.4934H8.08781V36.9843L2.53274 31.4604V9.78669H8.08781V20.3557H11.6474V26.4934Z" fill="#184C80"/>
<path d="M42.1075 26.2575H41.1195V29.1844H41.7487V27.8717C41.7487 27.6128 41.7151 27.2491 41.6869 27.0132H41.6939L42.4416 29.1844H43.016L43.7618 27.0132H43.7654C43.7371 27.2491 43.7035 27.6128 43.7035 27.8717V29.1844H44.3698V26.2575H43.4366L42.7738 28.2106L42.1075 26.2575ZM45.4338 29.1844L45.5416 28.6948H46.5668L46.6781 29.1844H47.3833L46.7629 26.6708C46.6781 26.3409 46.4501 26.2114 46.0542 26.2114C45.6618 26.2114 45.4338 26.3409 45.349 26.6708L44.7286 29.1844H45.4338ZM46.0542 26.7719C46.1284 26.7719 46.1461 26.7968 46.1532 26.85L46.4324 28.0935H45.683L45.9588 26.85C45.9711 26.7968 45.9782 26.7719 46.0542 26.7719ZM47.7421 29.1844H48.4385V28.2514H48.9546C49.2586 28.2514 49.5537 28.152 49.7552 27.9179C49.9002 27.7369 49.9585 27.4992 49.9585 27.2491C49.9585 26.9848 49.8789 26.7205 49.6792 26.5324C49.5042 26.3657 49.255 26.2575 48.9546 26.2575H47.7421V29.1844ZM48.4385 26.8588H48.9546C49.0465 26.8588 49.1207 26.889 49.172 26.9351C49.2586 27.0256 49.2674 27.1356 49.2674 27.2491C49.2674 27.3821 49.2497 27.4904 49.1914 27.5578C49.1331 27.6323 49.0412 27.6447 48.9546 27.6447H48.4385V26.8588ZM51.0543 26.2575H50.3579V29.1844H51.0543V28.0012H51.2841C51.4803 28.0012 51.6216 28.1307 51.7047 28.4359L51.9168 29.1844H52.6962L52.3304 28.1857C52.2544 27.9835 52.1342 27.6784 51.9009 27.5702L52.6503 26.2575H51.8709L51.2752 27.4194H51.0543V26.2575ZM54.872 29.1844V28.5778H53.9723C53.7638 28.5778 53.6259 28.4234 53.6259 28.2514V28.0261H54.7058V27.4159H53.6259V27.2189C53.6259 27.0096 53.7549 26.8588 53.9723 26.8588H54.872V26.2575H53.9723C53.2336 26.2575 52.9384 26.6744 52.9384 27.1107V28.3064C52.9384 28.7747 53.2671 29.1844 53.9723 29.1844H54.872ZM57.1926 26.8588V26.2575H55.1936V26.8588H55.8423V29.1844H56.5263V26.8588H57.1926ZM59.4143 26.8588H60.2556V29.1844H60.952V26.2575H58.7179V29.1844H59.4143V26.8588ZM63.0482 29.1844H63.7357V26.2575H61.8056C61.765 26.8925 61.7226 27.4566 61.643 28.1432C61.6236 28.3738 61.5776 28.6115 61.2736 28.6026V29.2093C61.94 29.2217 62.1149 29.0266 62.2528 28.427C62.3058 28.1804 62.373 27.2314 62.4101 26.8588H63.0482V29.1844ZM66.1483 29.1844V28.5778H65.2486C65.0401 28.5778 64.9022 28.4234 64.9022 28.2514V28.0261H65.9821V27.4159H64.9022V27.2189C64.9022 27.0096 65.033 26.8588 65.2486 26.8588H66.1483V26.2575H65.2486C64.5116 26.2575 64.2147 26.6744 64.2147 27.1107V28.3064C64.2147 28.7747 64.5452 29.1844 65.2486 29.1844H66.1483ZM67.6205 25.7306C67.5375 25.7306 67.4615 25.6455 67.4615 25.5621H67.0161C67.0161 25.8921 67.2617 26.073 67.5445 26.073H67.9457C68.2321 26.073 68.4742 25.8921 68.4742 25.5621H68.0323C68.0323 25.6455 67.9528 25.7306 67.8697 25.7306H67.6205ZM68.8613 26.2575H68.2073L67.465 27.6411C67.3819 27.7919 67.3165 27.9374 67.2529 28.1059H67.2441C67.2653 27.9463 67.2829 27.776 67.2829 27.6163V26.2575H66.629V29.1844H67.2829L68.0359 27.7795C68.1154 27.6447 68.179 27.4904 68.2285 27.3573H68.2444C68.2197 27.5028 68.2073 27.6624 68.2073 27.8256V29.1844H68.8613V26.2575ZM71.2155 29.1844V28.5778H70.3919C70.1656 28.5778 70.0419 28.4234 70.0419 28.2514V27.2189C70.0419 27.0096 70.1621 26.8588 70.3919 26.8588H71.2155V26.2575H70.3919C69.6407 26.2575 69.3403 26.6744 69.3403 27.1107V28.3064C69.3403 28.7747 69.6778 29.1844 70.3919 29.1844H71.2155ZM72.6542 26.2575V26.8588H73.5291C73.7535 26.8588 73.8702 26.9298 73.8702 27.1356C73.8667 27.3272 73.7341 27.407 73.5468 27.407H72.891V27.9924H73.621C73.8419 27.9924 73.9462 28.097 73.9462 28.2727C73.9462 28.4696 73.8702 28.5778 73.6422 28.5778H72.6542V29.1844H73.6422C74.2219 29.1844 74.6337 28.913 74.6337 28.3436C74.6337 28.0137 74.4711 27.776 74.2414 27.6837C74.4004 27.5737 74.5542 27.3786 74.5577 27.1054C74.5754 26.5324 74.1795 26.2575 73.5998 26.2575H72.6542ZM75.4715 29.1844L75.5793 28.6948H76.6044L76.7175 29.1844H77.421L76.8006 26.6708C76.7175 26.3409 76.4878 26.2114 76.0919 26.2114C75.7013 26.2114 75.4715 26.3409 75.3884 26.6708L74.7663 29.1844H75.4715ZM76.0919 26.7719C76.1679 26.7719 76.1838 26.7968 76.1926 26.85L76.4719 28.0935H75.7207L75.9964 26.85C76.0088 26.7968 76.0176 26.7719 76.0919 26.7719ZM78.4762 26.8588H79.3175V29.1844H80.0138V26.2575H77.7798V29.1844H78.4762V26.8588ZM82.7604 29.1844V26.2575H82.0641V27.5418H81.5939C81.3182 27.5418 81.2175 27.4034 81.2175 27.1728V26.2575H80.5299V27.1728C80.5299 27.7795 80.9506 28.1272 81.5939 28.1272H82.0641V29.1844H82.7604ZM83.8227 29.1844L83.9305 28.6948H84.9556L85.0687 29.1844H85.7739L85.1518 26.6708C85.0687 26.3409 84.8389 26.2114 84.443 26.2114C84.0524 26.2114 83.8227 26.3409 83.7396 26.6708L83.1175 29.1844H83.8227ZM84.443 26.7719C84.519 26.7719 84.5349 26.7968 84.5438 26.85L84.823 28.0935H84.0719L84.3476 26.85C84.36 26.7968 84.3688 26.7719 84.443 26.7719ZM87.9267 29.1844V28.5778H87.103C86.8768 28.5778 86.7531 28.4234 86.7531 28.2514V27.2189C86.7531 27.0096 86.8733 26.8588 87.103 26.8588H87.9267V26.2575H87.103C86.3519 26.2575 86.0532 26.6744 86.0532 27.1107V28.3064C86.0532 28.7747 86.389 29.1844 87.103 29.1844H87.9267ZM90.1943 26.8588V26.2575H88.1935V26.8588H88.844V29.1844H89.528V26.8588H90.1943ZM92.4496 29.1844V28.5778H91.5499C91.3414 28.5778 91.2035 28.4234 91.2035 28.2514V28.0261H92.2834V27.4159H91.2035V27.2189C91.2035 27.0096 91.3325 26.8588 91.5499 26.8588H92.4496V26.2575H91.5499C90.8111 26.2575 90.516 26.6744 90.516 27.1107V28.3064C90.516 28.7747 90.8447 29.1844 91.5499 29.1844H92.4496ZM93.9201 25.7306C93.837 25.7306 93.761 25.6455 93.761 25.5621H93.3156C93.3156 25.8921 93.5613 26.073 93.8458 26.073H94.2453C94.5334 26.073 94.7737 25.8921 94.7737 25.5621H94.3336C94.3336 25.6455 94.2541 25.7306 94.171 25.7306H93.9201ZM95.1626 26.2575H94.5086L93.7663 27.6411C93.6832 27.7919 93.6161 27.9374 93.5542 28.1059H93.5454C93.5666 27.9463 93.5825 27.776 93.5825 27.6163V26.2575H92.9285V29.1844H93.5825L94.3372 27.7795C94.4167 27.6447 94.4786 27.4904 94.5281 27.3573H94.5457C94.521 27.5028 94.5086 27.6624 94.5086 27.8256V29.1844H95.1626V26.2575ZM97.5327 26.8588H98.5667V26.2575H96.8452V29.1844H97.5327V26.8588ZM98.9661 29.1844H99.6625V28.2514H100.18C100.484 28.2514 100.78 28.152 100.979 27.9179C101.126 27.7369 101.184 27.4992 101.184 27.2491C101.184 26.9848 101.105 26.7205 100.905 26.5324C100.73 26.3657 100.479 26.2575 100.18 26.2575H98.9661V29.1844ZM99.6625 26.8588H100.18C100.27 26.8588 100.346 26.889 100.396 26.9351C100.484 27.0256 100.491 27.1356 100.491 27.2491C100.491 27.3821 100.476 27.4904 100.417 27.5578C100.359 27.6323 100.267 27.6447 100.18 27.6447H99.6625V26.8588ZM101.722 28.5778V29.1844H102.179C102.83 29.1844 103.038 28.9095 103.201 28.3099L103.759 26.2575H103.014L102.685 27.6447H102.55C102.425 27.6447 102.379 27.6199 102.351 27.5152L102.001 26.2575H101.264L101.755 27.7334C101.872 28.0633 102.068 28.2514 102.425 28.2514H102.538C102.492 28.4447 102.425 28.5778 102.179 28.5778H101.722ZM103.968 26.2575V26.8588H104.843C105.067 26.8588 105.184 26.9298 105.184 27.1356C105.18 27.3272 105.046 27.407 104.859 27.407H104.205V27.9924H104.935C105.156 27.9924 105.26 28.097 105.26 28.2727C105.26 28.4696 105.184 28.5778 104.956 28.5778H103.968V29.1844H104.956C105.534 29.1844 105.948 28.913 105.948 28.3436C105.948 28.0137 105.785 27.776 105.555 27.6837C105.714 27.5737 105.868 27.3786 105.871 27.1054C105.889 26.5324 105.493 26.2575 104.914 26.2575H103.968ZM108.94 27.721C108.94 26.8588 108.664 26.2273 107.635 26.2273C106.601 26.2273 106.326 26.8588 106.326 27.721C106.326 28.5742 106.593 29.2093 107.635 29.2093C108.676 29.2093 108.94 28.5742 108.94 27.721ZM107.635 26.834C108.21 26.834 108.252 27.2739 108.252 27.721C108.252 28.1609 108.215 28.6026 107.635 28.6026C107.052 28.6026 107.022 28.1609 107.022 27.721C107.022 27.2739 107.059 26.834 107.635 26.834ZM109.419 29.1844H110.569C111.144 29.1844 111.577 28.913 111.586 28.3436C111.586 28.0137 111.419 27.776 111.181 27.6837C111.349 27.5737 111.49 27.3786 111.494 27.1054C111.511 26.5324 111.085 26.2575 110.511 26.2575H109.419V29.1844ZM110.085 27.9924H110.576C110.806 27.9924 110.902 28.097 110.902 28.2727C110.902 28.4696 110.831 28.5955 110.606 28.5955H110.085V27.9924ZM110.49 26.85C110.714 26.85 110.831 26.9298 110.831 27.1356C110.831 27.3272 110.693 27.4159 110.506 27.4159H110.085V26.85H110.49ZM114.557 27.721C114.557 26.8588 114.283 26.2273 113.252 26.2273C112.218 26.2273 111.944 26.8588 111.944 27.721C111.944 28.5742 112.211 29.2093 113.252 29.2093C114.295 29.2093 114.557 28.5742 114.557 27.721ZM113.252 26.834C113.829 26.834 113.869 27.2739 113.869 27.721C113.869 28.1609 113.832 28.6026 113.252 28.6026C112.669 28.6026 112.641 28.1609 112.641 27.721C112.641 27.2739 112.678 26.834 113.252 26.834ZM116.027 25.7306C115.944 25.7306 115.87 25.6455 115.87 25.5621H115.425C115.425 25.8921 115.67 26.073 115.953 26.073H116.352C116.641 26.073 116.883 25.8921 116.883 25.5621H116.441C116.441 25.6455 116.361 25.7306 116.278 25.7306H116.027ZM117.27 26.2575H116.616L115.873 27.6411C115.79 27.7919 115.723 27.9374 115.661 28.1059H115.653C115.674 27.9463 115.69 27.776 115.69 27.6163V26.2575H115.036V29.1844H115.69L116.444 27.7795C116.524 27.6447 116.586 27.4904 116.637 27.3573H116.653C116.628 27.5028 116.616 27.6624 116.616 27.8256V29.1844H117.27V26.2575ZM121.183 26.2575H120.525L119.783 27.6411C119.7 27.7919 119.636 27.9374 119.578 28.1059H119.566C119.587 27.9463 119.603 27.776 119.603 27.6163V26.2575H118.954V29.1844H119.603L120.357 27.7795C120.433 27.6447 120.499 27.4904 120.554 27.3573H120.566C120.538 27.5028 120.525 27.6624 120.525 27.8256V29.1844H121.183V26.2575ZM124.663 29.1844V28.5778H123.838C123.613 28.5778 123.488 28.4234 123.488 28.2514V27.2189C123.488 27.0096 123.608 26.8588 123.838 26.8588H124.663V26.2575H123.838C123.088 26.2575 122.788 26.6744 122.788 27.1107V28.3064C122.788 28.7747 123.125 29.1844 123.838 29.1844H124.663ZM125.783 26.8588H126.625V29.1844H127.321V26.2575H125.087V29.1844H125.783V26.8588ZM129.734 29.1844V28.5778H128.834C128.626 28.5778 128.488 28.4234 128.488 28.2514V28.0261H129.568V27.4159H128.488V27.2189C128.488 27.0096 128.617 26.8588 128.834 26.8588H129.734V26.2575H128.834C128.097 26.2575 127.8 26.6744 127.8 27.1107V28.3064C127.8 28.7747 128.131 29.1844 128.834 29.1844H129.734ZM131.752 28.5778H130.906V26.2575H130.213V29.1844H132.01L132.069 29.7539H132.701V28.5778H132.44V26.2575H131.752V28.5778ZM136.105 26.8588V26.2575H134.106V26.8588H134.755V29.1844H135.439V26.8588H136.105ZM138.361 29.1844V28.5778H137.461C137.252 28.5778 137.115 28.4234 137.115 28.2514V28.0261H138.194V27.4159H137.115V27.2189C137.115 27.0096 137.244 26.8588 137.461 26.8588H138.361V26.2575H137.461C136.722 26.2575 136.427 26.6744 136.427 27.1107V28.3064C136.427 28.7747 136.756 29.1844 137.461 29.1844H138.361ZM141.095 26.2575H140.307L139.87 27.0895L139.435 26.2575H138.652L139.536 27.6784L138.56 29.1844H139.373L139.87 28.278L140.37 29.1844H141.187L140.208 27.6784L141.095 26.2575ZM142.161 26.2575H141.466V29.1844H142.161V27.9835H143.074V29.1844H143.765V26.2575H143.074V27.3786H142.161V26.2575ZM146.554 26.2575H145.895L145.153 27.6411C145.07 27.7919 145.008 27.9374 144.95 28.1059H144.937C144.958 27.9463 144.974 27.776 144.974 27.6163V26.2575H144.324V29.1844H144.974L145.729 27.7795C145.803 27.6447 145.87 27.4904 145.925 27.3573H145.938C145.908 27.5028 145.895 27.6624 145.895 27.8256V29.1844H146.554V26.2575ZM147.808 26.2575H147.113V29.1844H147.808V28.0012H148.037C148.234 28.0012 148.375 28.1307 148.458 28.4359L148.67 29.1844H149.45L149.084 28.1857C149.008 27.9835 148.887 27.6784 148.654 27.5702L149.404 26.2575H148.624L148.029 27.4194H147.808V26.2575ZM152 26.2575H151.342L150.6 27.6411C150.517 27.7919 150.455 27.9374 150.395 28.1059H150.383C150.404 27.9463 150.422 27.776 150.422 27.6163V26.2575H149.771V29.1844H150.422L151.175 27.7795C151.251 27.6447 151.318 27.4904 151.371 27.3573H151.383C151.355 27.5028 151.342 27.6624 151.342 27.8256V29.1844H152V26.2575Z" fill="#F5750C"/>
<path fill-rule="evenodd" clip-rule="evenodd" d="M146.936 16.7227C147.845 16.7227 148.536 16.5293 149.006 16.1426C149.476 15.7559 149.713 15.2024 149.713 14.4822C149.713 13.7638 149.476 13.2103 149.006 12.8236C148.536 12.4369 147.845 12.2436 146.936 12.2436H144.495V16.7227H146.936ZM147.032 10.4714C148.005 10.4714 148.854 10.6328 149.577 10.9557C150.298 11.2768 150.853 11.738 151.236 12.3411C151.622 12.9407 151.816 13.6556 151.816 14.4822C151.816 15.2982 151.622 16.0114 151.236 16.6163C150.853 17.2247 150.298 17.6877 149.577 18.0106C148.854 18.3334 148.005 18.4948 147.032 18.4948H144.495V21.75H142.408V10.4714H147.032ZM134.142 20.0736C134.889 20.0736 135.564 19.9033 136.164 19.5663C136.763 19.2275 137.233 18.7556 137.578 18.1489C137.919 17.5405 138.09 16.8628 138.09 16.1107C138.09 15.3586 137.919 14.6791 137.578 14.0725C137.233 13.464 136.763 12.9921 136.164 12.6533C135.564 12.3163 134.889 12.1478 134.142 12.1478C133.392 12.1478 132.717 12.3163 132.118 12.6533C131.519 12.9921 131.049 13.464 130.706 14.0725C130.363 14.6791 130.191 15.3586 130.191 16.1107C130.191 16.8628 130.363 17.5405 130.706 18.1489C131.049 18.7556 131.519 19.2275 132.118 19.5663C132.717 19.9033 133.392 20.0736 134.142 20.0736ZM134.142 21.9096C132.996 21.9096 131.964 21.6595 131.042 21.161C130.122 20.6608 129.4 19.969 128.876 19.082C128.352 18.195 128.088 17.2052 128.088 16.1107C128.088 15.0144 128.352 14.0228 128.876 13.1376C129.4 12.2507 130.122 11.5588 131.042 11.0586C131.964 10.5601 132.996 10.31 134.142 10.31C135.287 10.31 136.319 10.5601 137.24 11.0586C138.159 11.5588 138.882 12.2489 139.407 13.1287C139.93 14.0104 140.193 15.0038 140.193 16.1107C140.193 17.2158 139.93 18.211 139.407 19.0909C138.882 19.9725 138.159 20.6608 137.24 21.161C136.319 21.6595 135.287 21.9096 134.142 21.9096ZM117.977 16.916V18.7361V21.75H115.889V10.4714H117.977V14.131V15.1279V16.916ZM125.874 10.4714V21.75H123.786V16.916H118.659V15.1279H123.786V10.4714H125.874ZM109.276 21.9096C108.409 21.9096 107.572 21.7872 106.764 21.5389C105.954 21.2923 105.316 20.9641 104.846 20.5561L105.567 18.9294C106.029 19.2949 106.593 19.5929 107.261 19.8235C107.93 20.0541 108.602 20.1694 109.276 20.1694C110.11 20.1694 110.734 20.0346 111.145 19.7667C111.557 19.4989 111.764 19.1441 111.764 18.7042C111.764 18.3813 111.649 18.117 111.418 17.9077C111.188 17.6966 110.896 17.5334 110.543 17.4145C110.191 17.2974 109.709 17.1626 109.099 17.0118C108.243 16.8078 107.55 16.6038 107.02 16.3998C106.49 16.1958 106.036 15.8765 105.656 15.4402C105.276 15.0055 105.087 14.4184 105.087 13.6769C105.087 13.0542 105.255 12.4884 105.592 11.9775C105.93 11.4666 106.437 11.0621 107.116 10.7606C107.796 10.4608 108.629 10.31 109.613 10.31C110.299 10.31 110.972 10.3951 111.635 10.5672C112.3 10.7393 112.872 10.9859 113.353 11.3087L112.696 12.9354C112.202 12.6445 111.688 12.4263 111.154 12.2755C110.619 12.1247 110.099 12.0502 109.597 12.0502C108.774 12.0502 108.16 12.1886 107.759 12.4688C107.356 12.7473 107.156 13.1181 107.156 13.5811C107.156 13.9022 107.271 14.1647 107.503 14.3687C107.731 14.5745 108.024 14.7359 108.378 14.853C108.729 14.9718 109.212 15.1049 109.822 15.2557C110.656 15.449 111.342 15.6512 111.875 15.8606C112.411 16.0699 112.869 16.3892 113.249 16.8185C113.629 17.2478 113.82 17.8296 113.82 18.5587C113.82 19.1831 113.65 19.7454 113.312 20.251C112.977 20.7548 112.464 21.1575 111.78 21.459C111.094 21.7588 110.26 21.9096 109.276 21.9096Z" fill="#F5750C"/>
<path fill-rule="evenodd" clip-rule="evenodd" d="M93.2397 17.6558L92.052 18.9294V21.75H88.9041V10.4714H92.052V15.1599L96.4016 10.4714H99.9012L95.3093 15.4668L100.142 21.75H96.4494L93.2397 17.6558ZM82.6615 21.9753C81.4827 21.9753 80.4257 21.7251 79.489 21.2267C78.554 20.7264 77.817 20.0293 77.2832 19.1388C76.7477 18.2483 76.4808 17.2371 76.4808 16.1107C76.4808 14.9825 76.7477 13.9731 77.2832 13.0808C77.817 12.1886 78.554 11.495 79.489 10.9947C80.4257 10.4945 81.4827 10.2461 82.6615 10.2461C83.6884 10.2461 84.6128 10.4288 85.4382 10.7925C86.2618 11.1597 86.9458 11.6848 87.492 12.3731L85.47 14.2091C84.7418 13.3292 83.8581 12.8875 82.8206 12.8875C82.2108 12.8875 81.6682 13.0223 81.191 13.2902C80.7156 13.5598 80.3462 13.9376 80.0846 14.4255C79.8213 14.9151 79.6905 15.4756 79.6905 16.1107C79.6905 16.744 79.8213 17.3045 80.0846 17.7941C80.3462 18.282 80.7156 18.6598 81.191 18.9294C81.6682 19.1991 82.2108 19.3321 82.8206 19.3321C83.8581 19.3321 84.7418 18.8922 85.47 18.0106L87.492 19.8483C86.9458 20.5348 86.2618 21.0617 85.4382 21.4271C84.6128 21.7908 83.6884 21.9753 82.6615 21.9753ZM69.6249 21.9753C67.9564 21.9753 66.6574 21.5176 65.733 20.6058C64.8068 19.6922 64.3438 18.3973 64.3438 16.7227V10.4714H67.5216V16.6251C67.5216 18.431 68.2339 19.3321 69.6567 19.3321C71.0689 19.3321 71.7759 18.431 71.7759 16.6251V10.4714H74.906V16.7227C74.906 18.3973 74.4447 19.6922 73.5186 20.6058C72.5924 21.5176 71.2951 21.9753 69.6249 21.9753ZM57.472 18.7521H56.6483V16.2863H57.5055C58.1577 16.2863 58.6491 16.1444 58.9814 15.8606C59.3136 15.575 59.4798 15.1705 59.4798 14.6437C59.4798 14.1168 59.3136 13.7088 58.9814 13.4197C58.6491 13.1287 58.1577 12.9833 57.5055 12.9833H55.7399C55.7399 15.912 55.7187 18.8088 55.7187 21.75H52.5602V10.4714H57.6982C58.7145 10.4714 59.5964 10.6399 60.3458 10.9788C61.0952 11.3176 61.6732 11.8001 62.0815 12.428C62.4862 13.056 62.6895 13.7957 62.6895 14.6437C62.6895 15.4597 62.5003 16.171 62.1203 16.7777C61.7403 17.3861 61.1977 17.8598 60.4925 18.2039L62.9157 21.75H59.5116L57.472 18.7521ZM44.7588 13.001H41.3087V10.4714H51.3725V13.001H47.9384V21.75H44.7588V13.001Z" fill="#184C80"/>
</svg>
