<svg width="159" height="95" viewBox="0 0 159 95" fill="none" xmlns="http://www.w3.org/2000/svg">
<path d="M1.48653 90.007H0.0687256V94.1858H0.970968V92.3135C0.970968 91.9404 0.923481 91.4248 0.882779 91.0857H0.889563L1.9614 94.1858H2.78224L3.85407 91.0857H3.86086C3.82015 91.4248 3.77267 91.9404 3.77267 92.3135V94.1858H4.72918V90.007H3.38599L2.43626 92.7952L1.48653 90.007ZM6.24875 94.1858L6.40477 93.4871H7.87007L8.03288 94.1858H9.04366L8.15499 90.5972C8.03288 90.1291 7.70726 89.9392 7.13742 89.9392C6.57437 89.9392 6.24875 90.1291 6.12664 90.5972L5.23796 94.1858H6.24875ZM7.13742 90.7397C7.24596 90.7397 7.2731 90.7736 7.27988 90.855L7.68012 92.6256H6.60829L7.00175 90.855C7.0221 90.7736 7.02888 90.7397 7.13742 90.7397ZM9.55923 94.1858H10.5564V92.8562H11.2959C11.73 92.8562 12.1506 92.7138 12.4423 92.3746C12.6526 92.1236 12.734 91.7776 12.734 91.4248C12.734 91.045 12.6187 90.6718 12.3338 90.4005C12.0828 90.1631 11.7233 90.007 11.2959 90.007H9.55923V94.1858ZM10.5564 90.8686H11.2959C11.4248 90.8686 11.5333 90.9093 11.6011 90.9771C11.73 91.106 11.7436 91.262 11.7436 91.4248C11.7436 91.6148 11.7165 91.7708 11.6351 91.8658C11.5537 91.9675 11.418 91.9879 11.2959 91.9879H10.5564V90.8686ZM14.3011 90.007H13.3039V94.1858H14.3011V92.4967H14.6335C14.9116 92.4967 15.1151 92.6798 15.2372 93.114L15.5357 94.1858H16.6551L16.1327 92.7612C16.0242 92.4695 15.8478 92.0354 15.5154 91.8794L16.5872 90.007H15.4747L14.6199 91.6691H14.3011V90.007ZM19.7756 94.1858V93.3175H18.4799C18.1814 93.3175 17.9847 93.1004 17.9847 92.8562V92.5306H19.5314V91.6623H17.9847V91.3774C17.9847 91.0789 18.1746 90.8686 18.4799 90.8686H19.7756V90.007H18.4799C17.4284 90.007 17.001 90.604 17.001 91.2281V92.9308C17.001 93.6024 17.4759 94.1858 18.4799 94.1858H19.7756ZM23.0996 90.8686V90.007H20.2301V90.8686H21.1663V94.1858H22.1431V90.8686H23.0996ZM26.2812 90.8686H27.4887V94.1858H28.486V90.007H25.284V94.1858H26.2812V90.8686ZM31.4844 94.1858H32.4748V90.007H29.707C29.646 90.9161 29.5849 91.7233 29.4764 92.7002C29.4425 93.0258 29.3814 93.365 28.9405 93.3582V94.2198C29.897 94.2401 30.148 93.962 30.3447 93.1072C30.4261 92.7545 30.5211 91.3977 30.5754 90.8686H31.4844V94.1858ZM35.9278 94.1858V93.3175H34.6388C34.3404 93.3175 34.1436 93.1004 34.1436 92.8562V92.5306H35.6903V91.6623H34.1436V91.3774C34.1436 91.0789 34.3268 90.8686 34.6388 90.8686H35.9278V90.007H34.6388C33.5806 90.007 33.16 90.604 33.16 91.2281V92.9308C33.16 93.6024 33.6281 94.1858 34.6388 94.1858H35.9278ZM38.0375 89.254C37.9154 89.254 37.8069 89.1319 37.8069 89.0166H37.1692C37.1692 89.4847 37.522 89.7425 37.929 89.7425H38.4988C38.9126 89.7425 39.2586 89.4847 39.2586 89.0166H38.6277C38.6277 89.1319 38.5124 89.254 38.3971 89.254H38.0375ZM39.8149 90.007H38.8787L37.8137 91.9811C37.6983 92.1982 37.6034 92.4085 37.5084 92.6459H37.5016C37.5287 92.4221 37.5491 92.1711 37.5491 91.9472V90.007H36.6129V94.1858H37.5491L38.6345 92.1778C38.7498 91.9879 38.838 91.7708 38.9058 91.5741H38.933C38.8991 91.7844 38.8787 92.015 38.8787 92.2457V94.1858H39.8149V90.007ZM43.1864 94.1858V93.3175H42.006C41.6872 93.3175 41.504 93.1004 41.504 92.8562V91.3774C41.504 91.0789 41.6804 90.8686 42.006 90.8686H43.1864V90.007H42.006C40.9342 90.007 40.5 90.604 40.5 91.2281V92.9308C40.5 93.6024 40.9885 94.1858 42.006 94.1858H43.1864ZM45.2487 90.007V90.8686H46.5037C46.8225 90.8686 46.9921 90.9703 46.9921 91.262C46.9853 91.5334 46.7954 91.6487 46.524 91.6487H45.5879V92.4831H46.6326C46.9514 92.4831 47.1006 92.6324 47.1006 92.8834C47.1006 93.1683 46.9921 93.3175 46.6665 93.3175H45.2487V94.1858H46.6665C47.4941 94.1858 48.0843 93.7992 48.0843 92.9851C48.0843 92.517 47.8536 92.1711 47.5212 92.0422C47.7519 91.8861 47.969 91.608 47.9758 91.2213C48.0029 90.4005 47.4331 90.007 46.6054 90.007H45.2487ZM49.285 94.1858L49.441 93.4871H50.9063L51.0692 94.1858H52.0799L51.1913 90.5972C51.0692 90.1291 50.7435 89.9392 50.1737 89.9392C49.6106 89.9392 49.285 90.1291 49.1629 90.5972L48.2742 94.1858H49.285ZM50.1737 90.7397C50.2822 90.7397 50.3026 90.7736 50.3162 90.855L50.7164 92.6256H49.6446L50.038 90.855C50.0584 90.7736 50.0652 90.7397 50.1737 90.7397ZM53.5927 90.8686H54.7934V94.1858H55.7907V90.007H52.5955V94.1858H53.5927V90.8686ZM59.7253 94.1858V90.007H58.728V91.8387H58.0564C57.663 91.8387 57.5205 91.6419 57.5205 91.3163V90.007H56.5301V91.3163C56.5301 92.1778 57.1339 92.6731 58.0564 92.6731H58.728V94.1858H59.7253ZM61.2516 94.1858L61.4076 93.4871H62.8729L63.0357 94.1858H64.0465L63.1578 90.5972C63.0357 90.1291 62.7101 89.9392 62.1403 89.9392C61.5772 89.9392 61.2516 90.1291 61.1295 90.5972L60.2408 94.1858H61.2516ZM62.1403 90.7397C62.2488 90.7397 62.2692 90.7736 62.2827 90.855L62.683 92.6256H61.6111L62.0046 90.855C62.0182 90.7736 62.0317 90.7397 62.1403 90.7397ZM67.1331 94.1858V93.3175H65.946C65.6271 93.3175 65.444 93.1004 65.444 92.8562V91.3774C65.444 91.0789 65.6204 90.8686 65.946 90.8686H67.1331V90.007H65.946C64.8741 90.007 64.4468 90.604 64.4468 91.2281V92.9308C64.4468 93.6024 64.9284 94.1858 65.946 94.1858H67.1331ZM70.3758 90.8686V90.007H67.513V90.8686H68.4424V94.1858H69.4261V90.8686H70.3758ZM73.6116 94.1858V93.3175H72.3159C72.0175 93.3175 71.8207 93.1004 71.8207 92.8562V92.5306H73.3674V91.6623H71.8207V91.3774C71.8207 91.0789 72.0107 90.8686 72.3159 90.8686H73.6116V90.007H72.3159C71.2645 90.007 70.8371 90.604 70.8371 91.2281V92.9308C70.8371 93.6024 71.3119 94.1858 72.3159 94.1858H73.6116ZM75.7146 89.254C75.5993 89.254 75.4908 89.1319 75.4908 89.0166H74.8531C74.8531 89.4847 75.2058 89.7425 75.6061 89.7425H76.1827C76.5965 89.7425 76.9425 89.4847 76.9425 89.0166H76.3048C76.3048 89.1319 76.1963 89.254 76.0742 89.254H75.7146ZM77.4987 90.007H76.5558L75.4975 91.9811C75.3754 92.1982 75.2804 92.4085 75.1923 92.6459H75.1787C75.2058 92.4221 75.233 92.1711 75.233 91.9472V90.007H74.2968V94.1858H75.233L76.3116 92.1778C76.4269 91.9879 76.5151 91.7708 76.5897 91.5741H76.6101C76.5762 91.7844 76.5558 92.015 76.5558 92.2457V94.1858H77.4987V90.007ZM80.8906 90.8686H82.3763V90.007H79.907V94.1858H80.8906V90.8686ZM82.9461 94.1858H83.9433V92.8562H84.6828C85.1169 92.8562 85.5443 92.7138 85.8292 92.3746C86.0395 92.1236 86.1209 91.7776 86.1209 91.4248C86.1209 91.045 86.0124 90.6718 85.7207 90.4005C85.4697 90.1631 85.1169 90.007 84.6828 90.007H82.9461V94.1858ZM83.9433 90.8686H84.6828C84.8184 90.8686 84.9202 90.9093 84.9948 90.9771C85.1169 91.106 85.1305 91.262 85.1305 91.4248C85.1305 91.6148 85.1101 91.7708 85.022 91.8658C84.9406 91.9675 84.8117 91.9879 84.6828 91.9879H83.9433V90.8686ZM86.8943 93.3175V94.1858H87.5523C88.4817 94.1858 88.7802 93.7924 89.0108 92.9376L89.8113 90.007H88.7462L88.2714 91.9879H88.0814C87.9051 91.9879 87.8372 91.954 87.7965 91.8047L87.2945 90.007H86.2363L86.9418 92.1168C87.1114 92.5849 87.3895 92.8562 87.9051 92.8562H88.0611C88 93.1276 87.9051 93.3175 87.5523 93.3175H86.8943ZM90.1098 90.007V90.8686H91.3648C91.6904 90.8686 91.8532 90.9703 91.8532 91.262C91.8464 91.5334 91.6565 91.6487 91.3919 91.6487H90.449V92.4831H91.5005C91.8125 92.4831 91.9618 92.6324 91.9618 92.8834C91.9618 93.1683 91.8532 93.3175 91.5276 93.3175H90.1098V94.1858H91.5276C92.3552 94.1858 92.9454 93.7992 92.9454 92.9851C92.9454 92.517 92.7148 92.1711 92.3891 92.0422C92.613 91.8861 92.8369 91.608 92.8436 91.2213C92.864 90.4005 92.2942 90.007 91.4665 90.007H90.1098ZM97.2327 92.0964C97.2327 90.8686 96.8393 89.9663 95.3672 89.9663C93.8884 89.9663 93.4949 90.8686 93.4949 92.0964C93.4949 93.3175 93.8748 94.2198 95.3672 94.2198C96.8596 94.2198 97.2327 93.3175 97.2327 92.0964ZM95.3672 90.8279C96.188 90.8279 96.2491 91.4588 96.2491 92.0964C96.2491 92.7205 96.1948 93.3582 95.3672 93.3582C94.5328 93.3582 94.4853 92.7205 94.4853 92.0964C94.4853 91.4588 94.5396 90.8279 95.3672 90.8279ZM97.9247 94.1858H99.5732C100.394 94.1858 101.011 93.7992 101.025 92.9851C101.025 92.517 100.787 92.1711 100.448 92.0422C100.686 91.8861 100.889 91.608 100.896 91.2213C100.916 90.4005 100.313 90.007 99.485 90.007H97.9247V94.1858ZM98.8744 92.4831H99.5799C99.9123 92.4831 100.048 92.6324 100.048 92.8834C100.048 93.1683 99.9463 93.3447 99.6206 93.3447H98.8744V92.4831ZM99.4578 90.855C99.7767 90.855 99.9463 90.9703 99.9463 91.262C99.9463 91.5334 99.7495 91.6623 99.4782 91.6623H98.8744V90.855H99.4578ZM105.285 92.0964C105.285 90.8686 104.892 89.9663 103.413 89.9663C101.934 89.9663 101.54 90.8686 101.54 92.0964C101.54 93.3175 101.92 94.2198 103.413 94.2198C104.905 94.2198 105.285 93.3175 105.285 92.0964ZM103.413 90.8279C104.24 90.8279 104.301 91.4588 104.301 92.0964C104.301 92.7205 104.247 93.3582 103.413 93.3582C102.578 93.3582 102.538 92.7205 102.538 92.0964C102.538 91.4588 102.592 90.8279 103.413 90.8279ZM107.395 89.254C107.273 89.254 107.164 89.1319 107.164 89.0166H106.527C106.527 89.4847 106.879 89.7425 107.286 89.7425H107.856C108.27 89.7425 108.616 89.4847 108.616 89.0166H107.985C107.985 89.1319 107.87 89.254 107.748 89.254H107.395ZM109.172 90.007H108.236L107.171 91.9811C107.049 92.1982 106.954 92.4085 106.866 92.6459H106.852C106.886 92.4221 106.906 92.1711 106.906 91.9472V90.007H105.97V94.1858H106.906L107.992 92.1778C108.1 91.9879 108.189 91.7708 108.263 91.5741H108.29C108.25 91.7844 108.236 92.015 108.236 92.2457V94.1858H109.172V90.007ZM114.776 90.007H113.833L112.768 91.9811C112.652 92.1982 112.564 92.4085 112.476 92.6459H112.462C112.489 92.4221 112.517 92.1711 112.517 91.9472V90.007H111.58V94.1858H112.517L113.595 92.1778C113.704 91.9879 113.799 91.7708 113.873 91.5741H113.894C113.853 91.7844 113.833 92.015 113.833 92.2457V94.1858H114.776V90.007ZM119.762 94.1858V93.3175H118.581C118.256 93.3175 118.079 93.1004 118.079 92.8562V91.3774C118.079 91.0789 118.249 90.8686 118.581 90.8686H119.762V90.007H118.581C117.503 90.007 117.075 90.604 117.075 91.2281V92.9308C117.075 93.6024 117.557 94.1858 118.581 94.1858H119.762ZM121.369 90.8686H122.577V94.1858H123.574V90.007H120.372V94.1858H121.369V90.8686ZM127.027 94.1858V93.3175H125.738C125.44 93.3175 125.243 93.1004 125.243 92.8562V92.5306H126.79V91.6623H125.243V91.3774C125.243 91.0789 125.426 90.8686 125.738 90.8686H127.027V90.007H125.738C124.68 90.007 124.259 90.604 124.259 91.2281V92.9308C124.259 93.6024 124.727 94.1858 125.738 94.1858H127.027ZM129.917 93.3175H128.709V90.007H127.712V94.1858H130.29L130.372 94.9999H131.281V93.3175H130.901V90.007H129.917V93.3175ZM136.158 90.8686V90.007H133.289V90.8686H134.225V94.1858H135.202V90.8686H136.158ZM139.387 94.1858V93.3175H138.098C137.8 93.3175 137.603 93.1004 137.603 92.8562V92.5306H139.15V91.6623H137.603V91.3774C137.603 91.0789 137.786 90.8686 138.098 90.8686H139.387V90.007H138.098C137.04 90.007 136.619 90.604 136.619 91.2281V92.9308C136.619 93.6024 137.087 94.1858 138.098 94.1858H139.387ZM143.301 90.007H142.175L141.551 91.1942L140.927 90.007H139.808L141.07 92.0354L139.672 94.1858H140.839L141.551 92.8901L142.263 94.1858H143.437L142.033 92.0354L143.301 90.007ZM144.835 90.007H143.837V94.1858H144.835V92.4695H146.137V94.1858H147.134V90.007H146.137V91.608H144.835V90.007ZM151.123 90.007H150.18L149.122 91.9811C149 92.1982 148.912 92.4085 148.83 92.6459H148.81C148.837 92.4221 148.864 92.1711 148.864 91.9472V90.007H147.928V94.1858H148.864L149.943 92.1778C150.051 91.9879 150.146 91.7708 150.221 91.5741H150.241C150.2 91.7844 150.18 92.015 150.18 92.2457V94.1858H151.123V90.007ZM152.921 90.007H151.924V94.1858H152.921V92.4967H153.253C153.531 92.4967 153.735 92.6798 153.857 93.114L154.162 94.1858H155.275L154.752 92.7612C154.644 92.4695 154.467 92.0354 154.135 91.8794L155.207 90.007H154.094L153.24 91.6691H152.921V90.007ZM158.931 90.007H157.988L156.923 91.9811C156.801 92.1982 156.713 92.4085 156.632 92.6459H156.611C156.645 92.4221 156.665 92.1711 156.665 91.9472V90.007H155.736V94.1858H156.665L157.744 92.1778C157.853 91.9879 157.948 91.7708 158.029 91.5741H158.043C158.002 91.7844 157.988 92.015 157.988 92.2457V94.1858H158.931V90.007Z" fill="#F5750C"/>
<path fill-rule="evenodd" clip-rule="evenodd" d="M83.9162 42.7715H87.0774V57.092H83.9162V42.7715ZM71.8682 42.7715H75.0362V57.092H71.8682V42.7715ZM77.9125 42.7715H81.0805V57.092H77.9125V42.7715Z" fill="#F5750C"/>
<path fill-rule="evenodd" clip-rule="evenodd" d="M100.116 44.9086L92.1585 52.7913V37.8196H86.9757V29.0549H92.1585V13.9678H100.116V44.9086ZM61.177 0H79.4999H97.8229C100.177 0 102.219 1.34997 103.209 3.29692H79.405H58.6262V11.7088H75.043V37.8942H79.371H83.7737V11.7088H103.847V46.1297L92.579 57.099H89.3635V40.6959H69.6363V57.099H66.4208L55.153 46.1297V5.94259C55.153 2.67281 57.8597 0 61.177 0V0ZM71.841 37.8196H66.7396V52.7913L58.7823 44.9086V13.9678H66.7396V29.0549H71.841V37.8196Z" fill="#184C80"/>
<path fill-rule="evenodd" clip-rule="evenodd" d="M151.666 76.3988C152.968 76.3988 153.959 76.1207 154.637 75.5712C155.309 75.0149 155.648 74.228 155.648 73.1969C155.648 72.1725 155.309 71.3856 154.637 70.8293C153.959 70.2799 152.968 70.0017 151.666 70.0017H148.172V76.3988H151.666ZM151.808 67.4714C153.199 67.4714 154.42 67.702 155.451 68.1633C156.489 68.6246 157.276 69.2826 157.832 70.1442C158.382 70.9989 158.66 72.0165 158.66 73.1969C158.66 74.3637 158.382 75.3813 157.832 76.2496C157.276 77.1111 156.489 77.7759 155.451 78.2372C154.42 78.6985 153.199 78.9292 151.808 78.9292H148.172V83.5693H145.18V67.4714H151.808ZM133.336 81.1814C134.408 81.1814 135.378 80.9372 136.239 80.4555C137.094 79.9739 137.766 79.2955 138.261 78.434C138.749 77.5656 138.994 76.5956 138.994 75.5237C138.994 74.4519 138.749 73.4818 138.261 72.6135C137.766 71.7451 137.094 71.0736 136.239 70.5919C135.378 70.1035 134.408 69.866 133.336 69.866C132.264 69.866 131.301 70.1035 130.439 70.5919C129.585 71.0736 128.906 71.7451 128.418 72.6135C127.923 73.4818 127.678 74.4519 127.678 75.5237C127.678 76.5956 127.923 77.5656 128.418 78.434C128.906 79.2955 129.585 79.9739 130.439 80.4555C131.301 80.9372 132.264 81.1814 133.336 81.1814ZM133.336 83.7999C131.694 83.7999 130.215 83.4472 128.899 82.7349C127.583 82.0158 126.545 81.0321 125.792 79.7636C125.046 78.5018 124.666 77.084 124.666 75.5237C124.666 73.9567 125.046 72.5456 125.792 71.2771C126.545 70.0153 127.583 69.0249 128.899 68.3126C130.215 67.6003 131.694 67.2407 133.336 67.2407C134.978 67.2407 136.457 67.6003 137.779 68.3126C139.095 69.0249 140.133 70.0085 140.88 71.2703C141.633 72.5253 142.006 73.9431 142.006 75.5237C142.006 77.1043 141.633 78.5221 140.88 79.7771C140.133 81.0321 139.095 82.0158 137.779 82.7349C136.457 83.4472 134.978 83.7999 133.336 83.7999ZM110.176 76.6702V79.2684V83.5693H107.191V67.4714H110.176V72.7017V74.1195V76.6702ZM121.491 67.4714V83.5693H118.5V76.6702H111.16V74.1195H118.5V67.4714H121.491ZM97.7144 83.7999C96.4729 83.7999 95.2722 83.6235 94.1122 83.2708C92.9589 82.918 92.0431 82.45 91.3647 81.8733L92.4027 79.5465C93.0607 80.0688 93.868 80.4962 94.8245 80.8218C95.7878 81.1542 96.7511 81.3171 97.7144 81.3171C98.9083 81.3171 99.8038 81.1271 100.394 80.7404C100.984 80.3605 101.276 79.8518 101.276 79.2277C101.276 78.7664 101.113 78.3865 100.781 78.088C100.455 77.7895 100.034 77.5521 99.5324 77.3825C99.0236 77.2197 98.3385 77.0229 97.4634 76.8126C96.2355 76.5209 95.2451 76.2292 94.4853 75.9375C93.7255 75.6458 93.0743 75.1913 92.5248 74.5672C91.9821 73.9499 91.7107 73.1087 91.7107 72.0504C91.7107 71.1617 91.9549 70.3545 92.4366 69.6218C92.9182 68.896 93.6441 68.3193 94.621 67.8852C95.5978 67.4578 96.785 67.2407 98.196 67.2407C99.1797 67.2407 100.143 67.3628 101.093 67.6138C102.042 67.858 102.863 68.2108 103.555 68.6721L102.612 70.9922C101.907 70.5783 101.174 70.2663 100.408 70.0492C99.6342 69.8321 98.8947 69.7304 98.1757 69.7304C96.9953 69.7304 96.1134 69.9271 95.5436 70.3273C94.9669 70.7208 94.6752 71.2499 94.6752 71.9147C94.6752 72.3693 94.8448 72.7491 95.1704 73.0408C95.5029 73.3326 95.9234 73.5632 96.4254 73.726C96.9342 73.8956 97.6194 74.0856 98.4945 74.3026C99.6884 74.5808 100.672 74.8657 101.439 75.1642C102.205 75.4627 102.863 75.924 103.406 76.5345C103.949 77.145 104.22 77.9794 104.22 79.0174C104.22 79.906 103.983 80.7133 103.494 81.4324C103.012 82.1515 102.28 82.7281 101.303 83.1555C100.319 83.5896 99.1254 83.7999 97.7144 83.7999Z" fill="#F5750C"/>
<path fill-rule="evenodd" clip-rule="evenodd" d="M74.7378 77.7287L73.035 79.5468V83.5696H68.5306V67.4717H73.035V74.1673L79.2693 67.4717H84.2825L77.7091 74.6014L84.6285 83.5696H79.3372L74.7378 77.7287ZM59.5828 83.8952C57.8936 83.8952 56.3809 83.5356 55.0377 82.8234C53.7013 82.1111 52.643 81.1206 51.8764 79.8453C51.1099 78.5767 50.73 77.1318 50.73 75.524C50.73 73.9163 51.1099 72.4713 51.8764 71.2027C52.643 69.9274 53.7013 68.937 55.0377 68.2179C56.3809 67.5056 57.8936 67.1528 59.5828 67.1528C61.0549 67.1528 62.3777 67.4106 63.5649 67.933C64.7385 68.4553 65.7221 69.2083 66.5023 70.1852L63.6056 72.8105C62.5677 71.5555 61.2991 70.9246 59.8135 70.9246C58.9383 70.9246 58.1582 71.1146 57.4798 71.5012C56.7947 71.8811 56.2655 72.4238 55.8924 73.1226C55.5125 73.8145 55.3294 74.615 55.3294 75.524C55.3294 76.4263 55.5125 77.2267 55.8924 77.9255C56.2655 78.6242 56.7947 79.1669 57.4798 79.5468C58.1582 79.9335 58.9383 80.1234 59.8135 80.1234C61.2991 80.1234 62.5677 79.4925 63.6056 78.2375L66.5023 80.8561C65.7221 81.8397 64.7385 82.5927 63.5649 83.1151C62.3777 83.6306 61.0549 83.8952 59.5828 83.8952ZM40.9071 83.8952C38.5192 83.8952 36.6536 83.2439 35.3308 81.9415C34.008 80.639 33.3432 78.787 33.3432 76.3991V67.4717H37.8951V76.2567C37.8951 78.8345 38.9126 80.1234 40.9546 80.1234C42.9761 80.1234 43.9869 78.8345 43.9869 76.2567V67.4717H48.471V76.3991C48.471 78.787 47.813 80.639 46.4833 81.9415C45.1605 83.2439 43.3017 83.8952 40.9071 83.8952ZM23.4999 79.2958H22.3127V75.775H23.5406C24.4768 75.775 25.1823 75.5715 25.6571 75.1645C26.132 74.7574 26.3762 74.1808 26.3762 73.4278C26.3762 72.6816 26.132 72.0982 25.6571 71.6844C25.1823 71.2706 24.4768 71.0603 23.5406 71.0603H21.017C21.017 75.2391 20.9831 79.3772 20.9831 83.5696H16.4583V67.4717H23.8187C25.2772 67.4717 26.539 67.7159 27.6177 68.1975C28.6895 68.6792 29.5171 69.3711 30.1005 70.2666C30.6771 71.162 30.9688 72.2203 30.9688 73.4278C30.9688 74.5946 30.6975 75.6122 30.1548 76.4737C29.6121 77.3421 28.8319 78.0204 27.8212 78.5157L31.2945 83.5696H26.4169L23.4999 79.2958ZM5.28546 71.0806H0.340088V67.4717H14.7556V71.0806H9.83737V83.5696H5.28546V71.0806Z" fill="#184C80"/>
</svg>
