<svg width="202" height="116" viewBox="0 0 202 116" fill="none" xmlns="http://www.w3.org/2000/svg">
<path fill-rule="evenodd" clip-rule="evenodd" d="M106.879 59.1218H110.902V78.618H106.879V59.1218ZM91.5464 59.1218H95.5781V78.618H91.5464V59.1218ZM99.2386 59.1218H103.27V78.618H99.2386V59.1218Z" fill="white"/>
<path fill-rule="evenodd" clip-rule="evenodd" d="M127.495 62.0313L117.369 72.763V52.3802H110.773V40.4479H117.369V19.9081H127.495V62.0313ZM77.9407 0.892151H101.259H124.577C127.573 0.892151 130.172 2.73002 131.432 5.38061H101.138H74.6946V16.8327H95.587V52.4818H101.095H106.698V16.8327H132.244V63.6937L117.904 78.6275H113.812V56.296H88.7063V78.6275H84.6142L70.2744 63.6937V8.98247C70.2744 4.53095 73.7191 0.892151 77.9407 0.892151V0.892151ZM91.5121 52.3802H85.0199V72.763L74.8932 62.0313V19.9081H85.0199V40.4479H91.5121V52.3802Z" fill="white"/>
<path fill-rule="evenodd" clip-rule="evenodd" d="M193.099 104.903C194.757 104.903 196.017 104.524 196.881 103.776C197.735 103.019 198.167 101.947 198.167 100.543C198.167 99.1489 197.735 98.0776 196.881 97.3203C196.017 96.5722 194.757 96.1935 193.099 96.1935H188.653V104.903H193.099ZM193.281 92.7487C195.051 92.7487 196.605 93.0627 197.917 93.6907C199.238 94.3187 200.239 95.2146 200.947 96.3875C201.646 97.5512 202 98.9365 202 100.543C202 102.132 201.646 103.517 200.947 104.699C200.239 105.872 199.238 106.777 197.917 107.405C196.605 108.033 195.051 108.347 193.281 108.347H188.653V114.665H184.846V92.7487H193.281ZM169.773 111.414C171.137 111.414 172.371 111.081 173.468 110.425C174.555 109.77 175.41 108.846 176.04 107.673C176.662 106.491 176.973 105.17 176.973 103.711C176.973 102.252 176.662 100.931 176.04 99.7492C175.41 98.5671 174.555 97.6528 173.468 96.997C172.371 96.3321 171.137 96.0088 169.773 96.0088C168.408 96.0088 167.183 96.3321 166.086 96.997C164.998 97.6528 164.135 98.5671 163.513 99.7492C162.883 100.931 162.572 102.252 162.572 103.711C162.572 105.17 162.883 106.491 163.513 107.673C164.135 108.846 164.998 109.77 166.086 110.425C167.183 111.081 168.408 111.414 169.773 111.414ZM169.773 114.979C167.683 114.979 165.801 114.498 164.126 113.529C162.452 112.55 161.131 111.211 160.172 109.483C159.223 107.766 158.739 105.835 158.739 103.711C158.739 101.578 159.223 99.6569 160.172 97.9298C161.131 96.212 162.452 94.8636 164.126 93.8939C165.801 92.9242 167.683 92.4347 169.773 92.4347C171.862 92.4347 173.744 92.9242 175.427 93.8939C177.102 94.8636 178.423 96.2028 179.373 97.9206C180.331 99.6292 180.806 101.559 180.806 103.711C180.806 105.863 180.331 107.793 179.373 109.502C178.423 111.211 177.102 112.55 175.427 113.529C173.744 114.498 171.862 114.979 169.773 114.979ZM140.299 105.272V108.809V114.665H136.5V92.7487H140.299V99.8693V101.8V105.272ZM154.699 92.7487V114.665H150.892V105.272H141.551V101.8H150.892V92.7487H154.699ZM124.44 114.979C122.86 114.979 121.332 114.738 119.855 114.258C118.388 113.778 117.222 113.141 116.359 112.356L117.68 109.188C118.517 109.899 119.545 110.481 120.762 110.924C121.988 111.377 123.214 111.598 124.44 111.598C125.959 111.598 127.099 111.34 127.85 110.813C128.601 110.296 128.972 109.604 128.972 108.754C128.972 108.126 128.765 107.609 128.342 107.202C127.927 106.796 127.392 106.473 126.753 106.242C126.106 106.02 125.234 105.752 124.12 105.466C122.558 105.069 121.297 104.672 120.33 104.275C119.363 103.878 118.534 103.259 117.835 102.409C117.145 101.569 116.799 100.423 116.799 98.9827C116.799 97.7728 117.11 96.6738 117.723 95.6764C118.336 94.6882 119.26 93.9031 120.503 93.3121C121.746 92.7302 123.257 92.4347 125.053 92.4347C126.304 92.4347 127.53 92.6009 128.739 92.9426C129.948 93.2751 130.992 93.7554 131.873 94.3834L130.673 97.5419C129.775 96.9786 128.843 96.5537 127.867 96.2582C126.883 95.9627 125.942 95.8241 125.027 95.8241C123.524 95.8241 122.402 96.092 121.677 96.6369C120.943 97.1725 120.572 97.8929 120.572 98.798C120.572 99.4167 120.788 99.9339 121.202 100.331C121.625 100.728 122.16 101.042 122.799 101.264C123.447 101.495 124.319 101.753 125.432 102.049C126.952 102.428 128.204 102.815 129.179 103.222C130.155 103.628 130.992 104.256 131.683 105.087C132.373 105.919 132.719 107.055 132.719 108.468C132.719 109.677 132.417 110.776 131.795 111.755C131.182 112.734 130.25 113.519 129.007 114.101C127.755 114.692 126.235 114.979 124.44 114.979Z" fill="white"/>
<path fill-rule="evenodd" clip-rule="evenodd" d="M95.1984 106.713L93.0315 109.188V114.665H87.299V92.7487H93.0315V101.864L100.965 92.7487H107.345L98.9798 102.455L107.786 114.665H101.052L95.1984 106.713ZM75.9118 115.108C73.7622 115.108 71.837 114.618 70.1276 113.649C68.4268 112.679 67.0801 111.331 66.1045 109.594C65.129 107.867 64.6455 105.9 64.6455 103.711C64.6455 101.522 65.129 99.5553 66.1045 97.8282C67.0801 96.092 68.4268 94.7436 70.1276 93.7646C71.837 92.7949 73.7622 92.3146 75.9118 92.3146C77.7852 92.3146 79.4687 92.6656 80.9795 93.3767C82.4731 94.0879 83.7249 95.113 84.7177 96.4429L81.0313 100.017C79.7105 98.3085 78.096 97.4496 76.2054 97.4496C75.0917 97.4496 74.0989 97.7082 73.2355 98.2346C72.3636 98.7518 71.6902 99.4906 71.2154 100.442C70.7319 101.384 70.4988 102.474 70.4988 103.711C70.4988 104.94 70.7319 106.029 71.2154 106.981C71.6902 107.932 72.3636 108.671 73.2355 109.188C74.0989 109.714 75.0917 109.973 76.2054 109.973C78.096 109.973 79.7105 109.114 81.0313 107.405L84.7177 110.97C83.7249 112.31 82.4731 113.335 80.9795 114.046C79.4687 114.748 77.7852 115.108 75.9118 115.108ZM52.1446 115.108C49.1057 115.108 46.7316 114.221 45.0481 112.448C43.3647 110.675 42.5186 108.154 42.5186 104.903V92.7487H48.3115V104.709C48.3115 108.218 49.6065 109.973 52.2051 109.973C54.7778 109.973 56.0641 108.218 56.0641 104.709V92.7487H61.7707V104.903C61.7707 108.154 60.9332 110.675 59.2411 112.448C57.5576 114.221 55.1922 115.108 52.1446 115.108ZM29.9918 108.846H28.481V104.053H30.0436C31.235 104.053 32.1329 103.776 32.7372 103.222C33.3415 102.668 33.6523 101.883 33.6523 100.857C33.6523 99.8416 33.3415 99.0473 32.7372 98.484C32.1329 97.9206 31.235 97.6343 30.0436 97.6343H26.8321C26.8321 103.323 26.7889 108.957 26.7889 114.665H21.0306V92.7487H30.3976C32.2537 92.7487 33.8595 93.0812 35.2322 93.7369C36.5962 94.3926 37.6495 95.3347 38.3919 96.5537C39.1258 97.7728 39.497 99.2136 39.497 100.857C39.497 102.446 39.1517 103.831 38.461 105.004C37.7703 106.186 36.7775 107.11 35.4912 107.784L39.9114 114.665H33.7041L29.9918 108.846ZM6.81167 97.662H0.518066V92.7487H18.8636V97.662H12.6046V114.665H6.81167V97.662Z" fill="white"/>
</svg>
