<svg width="102" height="102" viewBox="0 0 102 102" fill="none" xmlns="http://www.w3.org/2000/svg">
<path fill-rule="evenodd" clip-rule="evenodd" d="M39.75 21.25C39.75 15.0368 44.7868 10 51 10C57.2132 10 62.25 15.0368 62.25 21.25V28.2622C60.659 28.25 58.9494 28.25 57.1092 28.25H57.1092H57.0135H44.9865H44.8908H44.8908C43.0507 28.25 41.3411 28.25 39.75 28.2622V21.25ZM36.75 31.3066V38.25C36.75 39.0784 37.4216 39.75 38.25 39.75C39.0785 39.75 39.75 39.0784 39.75 38.25V31.2626C41.3472 31.2502 43.0859 31.25 44.9865 31.25H57.0135C58.9142 31.25 60.6528 31.2502 62.25 31.2626V38.25C62.25 39.0784 62.9216 39.75 63.75 39.75C64.5785 39.75 65.25 39.0784 65.25 38.25V31.3066C67.3926 31.3574 69.2439 31.4539 70.8751 31.637C74.2709 32.0182 76.5381 32.76 78.368 34.1239C79.1811 34.7299 79.9284 35.4196 80.5976 36.1815C82.1037 37.8963 83.0247 40.0968 83.6766 43.4512C84.3348 46.8375 84.6895 51.2234 85.1727 57.2372C85.7318 64.194 86.1378 69.2783 85.9842 73.2263C85.8318 77.1431 85.1312 79.7291 83.6358 81.7835C82.9746 82.6917 82.2102 83.5201 81.3578 84.2519C79.4298 85.9071 76.9082 86.8125 73.0162 87.2781C69.0932 87.7475 63.9927 87.75 57.0135 87.75H44.9865C38.0073 87.75 32.9069 87.7475 28.9839 87.2781C25.0919 86.8125 22.5703 85.9071 20.6423 84.2519C19.7899 83.5201 19.0254 82.6917 18.3643 81.7835C16.8688 79.7291 16.1683 77.1431 16.0159 73.2263C15.8623 69.2783 16.2683 64.194 16.8273 57.2372C17.3106 51.2234 17.6652 46.8375 18.3234 43.4512C18.9754 40.0968 19.8964 37.8963 21.4025 36.1815C22.0717 35.4196 22.8189 34.7299 23.632 34.1239C25.462 32.76 27.7291 32.0182 31.125 31.637C32.7562 31.4539 34.6075 31.3574 36.75 31.3066ZM36.75 28.3058V21.25C36.75 13.3799 43.13 7 51 7C58.8701 7 65.25 13.3799 65.25 21.25V28.3058C67.4896 28.3581 69.4612 28.4595 71.2097 28.6558C74.8763 29.0674 77.7359 29.9112 80.1608 31.7185C81.1421 32.4499 82.044 33.2822 82.8517 34.2018C84.8474 36.4741 85.9176 39.257 86.6215 42.8788C87.3155 46.4494 87.6814 51.0026 88.1554 56.9011L88.1631 56.9969L88.1715 57.101L88.1715 57.1015C88.7204 63.9326 89.1433 69.1949 88.9819 73.3429C88.8185 77.5433 88.0533 80.8124 86.0612 83.549C85.2633 84.6452 84.3407 85.6449 83.3119 86.5281C80.7437 88.7329 77.5463 89.7575 73.3726 90.2569C69.2507 90.75 63.9713 90.75 57.1179 90.75H57.1178H57.0135H44.9865H44.8822H44.8822C38.0288 90.75 32.7493 90.75 28.6275 90.2569C24.4537 89.7575 21.2564 88.7329 18.6881 86.5281C17.6594 85.6449 16.7367 84.6452 15.9388 83.549C13.9468 80.8124 13.1816 77.5433 13.0182 73.3429C12.8568 69.1948 13.2796 63.9323 13.8286 57.1009L13.837 56.9969L13.8446 56.9015C14.3186 51.0028 14.6845 46.4495 15.3785 42.8788C16.0825 39.257 17.1527 36.4741 19.1484 34.2018C19.9561 33.2822 20.8579 32.4499 21.8392 31.7185C24.2641 29.9112 27.1238 29.0674 30.7903 28.6558C32.5389 28.4595 34.5105 28.3581 36.75 28.3058Z" fill="#818294"/>
</svg>
