<svg width="22" height="22" viewBox="0 0 22 22" fill="none" xmlns="http://www.w3.org/2000/svg">
<path fill-rule="evenodd" clip-rule="evenodd" d="M10.5286 2L10.5835 2H11.4168L11.4717 2C12.8393 1.99998 13.9416 1.99996 14.8086 2.11652C15.7087 2.23754 16.4666 2.49643 17.0685 3.09835C17.6704 3.70027 17.9293 4.45814 18.0503 5.35825C18.1669 6.22522 18.1669 7.32754 18.1668 8.69513V8.75V19.25C18.1668 19.5174 18.0245 19.7645 17.7933 19.8987C17.562 20.0329 17.2769 20.0338 17.0447 19.9012L12.6126 17.3686C12.1156 17.0845 11.7888 16.8988 11.5213 16.7788C11.2688 16.6655 11.1231 16.6368 11.0002 16.6368C10.8772 16.6368 10.7315 16.6655 10.479 16.7788C10.2115 16.8988 9.88475 17.0845 9.38771 17.3685L4.9556 19.9012C4.72347 20.0338 4.43829 20.0329 4.20705 19.8987C3.97582 19.7645 3.8335 19.5174 3.8335 19.25V8.75L3.8335 8.69513C3.83348 7.32754 3.83346 6.22522 3.95002 5.35825C4.07104 4.45814 4.32993 3.70027 4.93185 3.09835C5.53376 2.49643 6.29164 2.23754 7.19175 2.11652C8.05871 1.99996 9.16103 1.99998 10.5286 2ZM7.39162 3.60315C6.65784 3.7018 6.26927 3.88225 5.99251 4.15901C5.71574 4.43577 5.5353 4.82435 5.43664 5.55812C5.33509 6.31347 5.3335 7.31459 5.3335 8.75V17.9576L8.6435 16.0662L8.67352 16.049C9.13241 15.7868 9.52281 15.5637 9.86515 15.4101C10.2299 15.2466 10.592 15.1368 11.0002 15.1368C11.4083 15.1368 11.7705 15.2466 12.1352 15.4101C12.4775 15.5637 12.8679 15.7868 13.3268 16.049L13.3568 16.0662L16.6668 17.9576V8.75C16.6668 7.31459 16.6652 6.31347 16.5637 5.55812C16.465 4.82435 16.2846 4.43577 16.0078 4.15901C15.7311 3.88225 15.3425 3.7018 14.6087 3.60315C13.8534 3.50159 12.8522 3.5 11.4168 3.5H10.5835C9.14808 3.5 8.14697 3.50159 7.39162 3.60315Z" fill="#1B1C1E"/>
</svg>
