<svg width="22" height="22" viewBox="0 0 22 22" fill="none" xmlns="http://www.w3.org/2000/svg">
<path fill-rule="evenodd" clip-rule="evenodd" d="M10.5284 2L10.5833 2H11.4167L11.4715 2C12.8391 1.99998 13.9414 1.99996 14.8084 2.11652C15.7085 2.23754 16.4664 2.49643 17.0683 3.09835C17.6702 3.70027 17.9291 4.45814 18.0501 5.35825C18.1667 6.22522 18.1667 7.32754 18.1666 8.69513V8.75V19.25C18.1666 19.5174 18.0243 19.7645 17.7931 19.8987C17.5619 20.0329 17.2767 20.0338 17.0445 19.9012L12.6124 17.3686C12.1154 17.0845 11.7886 16.8988 11.5212 16.7788C11.2686 16.6655 11.1229 16.6368 11 16.6368C10.877 16.6368 10.7314 16.6655 10.4788 16.7788C10.2113 16.8988 9.88457 17.0845 9.38753 17.3685L4.95542 19.9012C4.72329 20.0338 4.43811 20.0329 4.20687 19.8987C3.97563 19.7645 3.83331 19.5174 3.83331 19.25V8.75L3.83331 8.69513C3.83329 7.32754 3.83328 6.22522 3.94984 5.35825C4.07085 4.45814 4.32975 3.70027 4.93166 3.09835C5.53358 2.49643 6.29145 2.23754 7.19156 2.11652C8.05853 1.99996 9.16085 1.99998 10.5284 2ZM7.39143 3.60315C6.65766 3.7018 6.26909 3.88225 5.99232 4.15901C5.71556 4.43577 5.53511 4.82435 5.43646 5.55812C5.33491 6.31347 5.33331 7.31459 5.33331 8.75V17.9576L8.64332 16.0662L8.67333 16.049C9.13223 15.7868 9.52263 15.5637 9.86496 15.4101C10.2297 15.2466 10.5918 15.1368 11 15.1368C11.4081 15.1368 11.7703 15.2466 12.135 15.4101C12.4773 15.5637 12.8677 15.7868 13.3266 16.049L13.3566 16.0662L16.6666 17.9576V8.75C16.6666 7.31459 16.6651 6.31347 16.5635 5.55812C16.4648 4.82435 16.2844 4.43577 16.0076 4.15901C15.7309 3.88225 15.3423 3.7018 14.6085 3.60315C13.8532 3.50159 12.8521 3.5 11.4167 3.5H10.5833C9.1479 3.5 8.14678 3.50159 7.39143 3.60315Z" fill="#818294"/>
</svg>
