<svg width="58" height="74" viewBox="0 0 58 74" fill="none" xmlns="http://www.w3.org/2000/svg">
<path fill-rule="evenodd" clip-rule="evenodd" d="M27.879 0.78003L27.9956 0.78003H30.0045L30.1211 0.78003C36.1506 0.780009 40.829 0.779994 44.4689 1.26936C48.1753 1.76767 51.0286 2.79802 53.2575 5.02698C55.4865 7.25594 56.5168 10.1092 57.0151 13.8156C57.5045 17.4555 57.5045 22.1339 57.5045 28.1635V28.28V71.72C57.5045 72.2547 57.2198 72.749 56.7574 73.0174C56.2949 73.2857 55.7245 73.2877 55.2603 73.0224L30.2404 58.7253C29.7308 58.4341 29.4406 58.2702 29.2143 58.1687C29.1129 58.1232 29.0554 58.105 29.0261 58.0975C29.0124 58.094 29.0052 58.0929 29.003 58.0926L29 58.0924L28.9971 58.0926C28.9949 58.0929 28.9877 58.094 28.974 58.0975C28.9447 58.105 28.8872 58.1232 28.7858 58.1687C28.5594 58.2702 28.2693 58.4341 27.7597 58.7253L2.73981 73.0224C2.27556 73.2877 1.70519 73.2857 1.24272 73.0174C0.780244 72.749 0.495606 72.2547 0.495606 71.72V28.28L0.495606 28.1635C0.495585 22.1339 0.49557 17.4555 0.984933 13.8156C1.48325 10.1092 2.5136 7.25594 4.74256 5.02698C6.97152 2.79802 9.82479 1.76767 13.5312 1.26936C17.171 0.779994 21.8495 0.780009 27.879 0.78003ZM13.9309 4.24261C10.5572 4.69619 8.44253 5.56965 6.86388 7.1483C5.28523 8.72695 4.41177 10.8416 3.95818 14.2154C3.49879 17.6323 3.49561 22.1094 3.49561 28.28V69.1352L26.2713 56.1206L26.3218 56.0917C26.7627 55.8397 27.1816 55.6003 27.5581 55.4314C27.9789 55.2427 28.4493 55.0924 29 55.0924C29.5508 55.0924 30.0212 55.2427 30.442 55.4314C30.8185 55.6003 31.2374 55.8397 31.6783 56.0917L31.7288 56.1206L54.5045 69.1352V28.28C54.5045 22.1094 54.5013 17.6323 54.0419 14.2154C53.5883 10.8416 52.7149 8.72695 51.1362 7.1483C49.5575 5.56965 47.4429 4.69619 44.0691 4.24261C40.6522 3.78322 36.1751 3.78003 30.0045 3.78003H27.9956C21.8249 3.78003 17.3478 3.78322 13.9309 4.24261Z" fill="#818294"/>
</svg>
