<svg width="25" height="24" viewBox="0 0 25 24" fill="none" xmlns="http://www.w3.org/2000/svg">
<path fill-rule="evenodd" clip-rule="evenodd" d="M9.5 3.25H9.44513C8.07754 3.24998 6.97522 3.24996 6.10825 3.36652C5.20814 3.48754 4.45027 3.74643 3.84835 4.34835C3.24643 4.95027 2.98754 5.70814 2.86652 6.60825C2.74996 7.47522 2.74998 8.57754 2.75 9.94513V10V12V12.0549C2.74998 13.4225 2.74996 14.5248 2.86652 15.3918C2.98754 16.2919 3.24643 17.0497 3.84835 17.6517C4.45027 18.2536 5.20814 18.5125 6.10825 18.6335C6.97521 18.75 8.07752 18.75 9.44511 18.75H9.44511H9.44512H9.44513H9.5H15.6115C16.5852 18.75 16.9536 18.7546 17.3024 18.8369C17.6513 18.9193 17.9828 19.0799 18.8538 19.5154L21.1646 20.6708C21.3971 20.7871 21.6732 20.7746 21.8943 20.638C22.1154 20.5013 22.25 20.2599 22.25 20V10V9.94513C22.25 8.57754 22.25 7.47522 22.1335 6.60825C22.0125 5.70814 21.7536 4.95027 21.1517 4.34835C20.5497 3.74643 19.7919 3.48754 18.8918 3.36652C18.0248 3.24996 16.9225 3.24998 15.5549 3.25H15.5H9.5ZM4.90901 5.40901C5.18577 5.13225 5.57434 4.9518 6.30812 4.85315C7.06347 4.75159 8.06458 4.75 9.5 4.75H15.5C16.9354 4.75 17.9365 4.75159 18.6919 4.85315C19.4257 4.9518 19.8142 5.13225 20.091 5.40901C20.3678 5.68577 20.5482 6.07434 20.6469 6.80812C20.7484 7.56347 20.75 8.56458 20.75 10V18.7865L19.5246 18.1738L19.4454 18.1341C18.6803 17.7515 18.1864 17.5044 17.6471 17.3771C17.1077 17.2498 16.5554 17.2498 15.7 17.25L15.6115 17.25H9.5C8.06458 17.25 7.06347 17.2484 6.30812 17.1469C5.57434 17.0482 5.18577 16.8678 4.90901 16.591C4.63225 16.3142 4.4518 15.9257 4.35315 15.1919C4.25159 14.4365 4.25 13.4354 4.25 12V10C4.25 8.56458 4.25159 7.56347 4.35315 6.80812C4.4518 6.07434 4.63225 5.68577 4.90901 5.40901ZM8.5 12C9.05228 12 9.5 11.5523 9.5 11C9.5 10.4477 9.05228 10 8.5 10C7.94772 10 7.5 10.4477 7.5 11C7.5 11.5523 7.94772 12 8.5 12ZM13.5 11C13.5 11.5523 13.0523 12 12.5 12C11.9477 12 11.5 11.5523 11.5 11C11.5 10.4477 11.9477 10 12.5 10C13.0523 10 13.5 10.4477 13.5 11ZM16.5 12C17.0523 12 17.5 11.5523 17.5 11C17.5 10.4477 17.0523 10 16.5 10C15.9477 10 15.5 10.4477 15.5 11C15.5 11.5523 15.9477 12 16.5 12Z" fill="white"/>
</svg>
