<svg width="20" height="20" viewBox="0 0 20 20" fill="none" xmlns="http://www.w3.org/2000/svg">
<path fill-rule="evenodd" clip-rule="evenodd" d="M14.6919 4.18664C13.9365 4.08509 12.9354 4.0835 11.5 4.0835H8.33333C6.98008 4.0835 6.03635 4.08492 5.32052 4.17602C4.6239 4.26467 4.24976 4.42736 3.97992 4.67462C3.93166 4.71885 3.88535 4.76516 3.84113 4.81342C3.59386 5.08326 3.43117 5.45739 3.34252 6.15402C3.25143 6.86985 3.25 7.81357 3.25 9.16683C3.25 10.5201 3.25143 11.4638 3.34252 12.1796C3.43117 12.8763 3.59386 13.2504 3.84113 13.5202C3.88535 13.5685 3.93166 13.6148 3.97992 13.659C4.24976 13.9063 4.6239 14.069 5.32052 14.1576C6.03635 14.2487 6.98008 14.2502 8.33334 14.2502H12.2781L12.3667 14.2502C13.2221 14.25 13.7744 14.2499 14.3137 14.3772C14.853 14.5045 15.347 14.7516 16.112 15.1343L16.112 15.1343L16.112 15.1343L16.1912 15.1739L16.75 15.4533V9.3335C16.75 7.89808 16.7484 6.89697 16.6469 6.14162C16.5482 5.40784 16.3678 5.01927 16.091 4.74251C15.8142 4.46574 15.4257 4.2853 14.6919 4.18664ZM14.8918 2.70002C15.7919 2.82104 16.5497 3.07993 17.1517 3.68185C17.7536 4.28376 18.0125 5.04164 18.1335 5.94175C18.25 6.80871 18.25 7.91104 18.25 9.27863V9.3335V16.6668C18.25 16.9268 18.1154 17.1682 17.8943 17.3048C17.6732 17.4415 17.3971 17.4539 17.1646 17.3377L15.5204 16.5156C14.6495 16.0801 14.3179 15.9195 13.9691 15.8371C13.6202 15.7548 13.2518 15.7502 12.2781 15.7502H8.33334H8.2817C6.99223 15.7502 5.95275 15.7502 5.13116 15.6456C4.27943 15.5373 3.55683 15.3059 2.96654 14.765C2.8861 14.6912 2.80892 14.6141 2.73521 14.5336C2.1943 13.9433 1.96291 13.2207 1.85452 12.369C1.74997 11.5474 1.74998 10.5079 1.75 9.21845V9.21844V9.16683V9.11522V9.11521C1.74998 7.82573 1.74997 6.78625 1.85452 5.96466C1.96291 5.11292 2.1943 4.39033 2.73521 3.80003C2.80892 3.7196 2.8861 3.64241 2.96654 3.56871C3.55683 3.0278 4.27943 2.79641 5.13116 2.68802C5.95275 2.58346 6.99223 2.58348 8.2817 2.5835H8.28172H8.33333H11.5H11.5549H11.5549C12.9225 2.58348 14.0248 2.58346 14.8918 2.70002ZM5.08333 6.66683C5.08333 6.25262 5.41912 5.91683 5.83333 5.91683H12.5C12.9142 5.91683 13.25 6.25262 13.25 6.66683C13.25 7.08104 12.9142 7.41683 12.5 7.41683H5.83333C5.41912 7.41683 5.08333 7.08104 5.08333 6.66683ZM5.83333 9.25016C5.41912 9.25016 5.08333 9.58595 5.08333 10.0002C5.08333 10.4144 5.41912 10.7502 5.83333 10.7502H9.16667C9.58088 10.7502 9.91667 10.4144 9.91667 10.0002C9.91667 9.58595 9.58088 9.25016 9.16667 9.25016H5.83333Z" fill="#818294"/>
</svg>
