<svg width="20" height="20" viewBox="0 0 20 20" fill="none" xmlns="http://www.w3.org/2000/svg">
<path fill-rule="evenodd" clip-rule="evenodd" d="M14.6919 4.1864C13.9365 4.08485 12.9354 4.08325 11.5 4.08325H8.33333C6.98008 4.08325 6.03635 4.08468 5.32052 4.17577C4.6239 4.26443 4.24976 4.42712 3.97992 4.67438C3.93166 4.7186 3.88535 4.76491 3.84113 4.81318C3.59386 5.08301 3.43117 5.45715 3.34252 6.15377C3.25143 6.8696 3.25 7.81333 3.25 9.16659C3.25 10.5198 3.25143 11.4636 3.34252 12.1794C3.43117 12.876 3.59386 13.2502 3.84113 13.52C3.88535 13.5683 3.93166 13.6146 3.97992 13.6588C4.24976 13.9061 4.6239 14.0687 5.32052 14.1574C6.03635 14.2485 6.98008 14.2499 8.33334 14.2499H12.2781L12.3667 14.2499C13.2221 14.2498 13.7744 14.2497 14.3137 14.377C14.853 14.5043 15.347 14.7514 16.112 15.1341L16.112 15.1341L16.112 15.1341L16.1912 15.1737L16.75 15.4531V9.33325C16.75 7.89784 16.7484 6.89672 16.6469 6.14137C16.5482 5.4076 16.3678 5.01903 16.091 4.74226C15.8142 4.4655 15.4257 4.28505 14.6919 4.1864ZM14.8918 2.69978C15.7919 2.82079 16.5497 3.07969 17.1517 3.6816C17.7536 4.28352 18.0125 5.04139 18.1335 5.9415C18.25 6.80847 18.25 7.91079 18.25 9.27838V9.33325V16.6666C18.25 16.9265 18.1154 17.1679 17.8943 17.3046C17.6732 17.4412 17.3971 17.4537 17.1646 17.3374L15.5204 16.5153C14.6495 16.0799 14.3179 15.9192 13.9691 15.8369C13.6202 15.7545 13.2518 15.7499 12.2781 15.7499H8.33334H8.2817C6.99223 15.7499 5.95275 15.75 5.13116 15.6454C4.27943 15.537 3.55683 15.3056 2.96654 14.7647C2.8861 14.691 2.80892 14.6138 2.73521 14.5334C2.1943 13.9431 1.96291 13.2205 1.85452 12.3688C1.74997 11.5472 1.74998 10.5077 1.75 9.21821V9.21819V9.16659V9.11498V9.11496C1.74998 7.82549 1.74997 6.786 1.85452 5.96441C1.96291 5.11268 2.1943 4.39009 2.73521 3.79979C2.80892 3.71935 2.8861 3.64217 2.96654 3.56846C3.55683 3.02756 4.27943 2.79616 5.13116 2.68777C5.95275 2.58322 6.99223 2.58323 8.2817 2.58325H8.28172H8.33333H11.5H11.5549H11.5549C12.9225 2.58323 14.0248 2.58322 14.8918 2.69978ZM5.08333 6.66659C5.08333 6.25237 5.41912 5.91659 5.83333 5.91659H12.5C12.9142 5.91659 13.25 6.25237 13.25 6.66659C13.25 7.0808 12.9142 7.41659 12.5 7.41659H5.83333C5.41912 7.41659 5.08333 7.0808 5.08333 6.66659ZM5.83333 9.24992C5.41912 9.24992 5.08333 9.58571 5.08333 9.99992C5.08333 10.4141 5.41912 10.7499 5.83333 10.7499H9.16667C9.58088 10.7499 9.91667 10.4141 9.91667 9.99992C9.91667 9.58571 9.58088 9.24992 9.16667 9.24992H5.83333Z" fill="#818294"/>
</svg>
