<svg width="19" height="18" viewBox="0 0 19 18" fill="none" xmlns="http://www.w3.org/2000/svg">
<path fill-rule="evenodd" clip-rule="evenodd" d="M14.8446 3.15538C14.5162 2.82696 13.9837 2.82695 13.6553 3.15537L13.4805 3.33011C13.504 3.97327 14.0266 4.49587 14.6697 4.51952L14.8445 4.34467C15.173 4.01626 15.173 3.4838 14.8446 3.15538ZM13.4693 5.71986C12.9601 5.45757 12.5423 5.03977 12.2801 4.53051L8.84705 7.96351C8.04027 8.77027 7.73969 9.07968 7.53354 9.44377C7.35164 9.76504 7.24408 10.1274 7.03119 10.9687C7.87243 10.7558 8.23484 10.6482 8.55611 10.4663C8.92019 10.2602 9.2296 9.95961 10.0364 9.15285L13.4693 5.71986ZM12.5946 2.0947C13.5088 1.18049 14.9911 1.18051 15.9052 2.09474C16.8194 3.00895 16.8194 4.49114 15.9052 5.40533L11.097 10.2135L11.0235 10.2871L11.0235 10.2871C10.3154 10.9954 9.85813 11.4529 9.29515 11.7716C8.73218 12.0904 8.10462 12.2471 7.13292 12.4899L7.13291 12.4899L7.03202 12.5151L6.18173 12.7276C5.92615 12.7915 5.65579 12.7167 5.4695 12.5304C5.28322 12.3441 5.20833 12.0737 5.27223 11.8181L5.48479 10.9679L5.51 10.867C5.75273 9.89527 5.90949 9.2677 6.22824 8.70472C6.547 8.14174 7.00448 7.68444 7.71285 6.97637L7.7864 6.90284L12.5946 2.0947ZM3 15.75C3 15.3358 3.33579 15 3.75 15H15.75C16.1642 15 16.5 15.3358 16.5 15.75C16.5 16.1643 16.1642 16.5 15.75 16.5H3.75C3.33579 16.5 3 16.1643 3 15.75Z" fill="white"/>
</svg>
