<svg width="20" height="20" viewBox="0 0 20 20" fill="none" xmlns="http://www.w3.org/2000/svg">
<path fill-rule="evenodd" clip-rule="evenodd" d="M14.5833 1.74999H14.5602H14.5602C14.153 1.74999 13.8131 1.74998 13.5335 1.76748C13.2426 1.78569 12.9673 1.82489 12.698 1.92625C11.9568 2.20521 11.3719 2.79014 11.0929 3.53131C10.9916 3.80061 10.9524 4.07595 10.9342 4.3668C10.9167 4.64639 10.9167 4.98634 10.9167 5.39355V5.41666V5.43977C10.9167 5.84698 10.9167 6.18693 10.9342 6.46652C10.9524 6.75737 10.9916 7.03271 11.0929 7.30201C11.3719 8.04318 11.9568 8.62811 12.698 8.90707C12.9673 9.00843 13.2426 9.04763 13.5335 9.06584C13.8131 9.08334 14.153 9.08333 14.5602 9.08333H14.5833H14.6064C15.0136 9.08333 15.3536 9.08334 15.6332 9.06584C15.924 9.04763 16.1994 9.00843 16.4687 8.90707C17.2099 8.62811 17.7948 8.04318 18.0737 7.30201C18.1751 7.03271 18.2143 6.75737 18.2325 6.46652C18.25 6.18692 18.25 5.84697 18.25 5.43976V5.41666V5.39356C18.25 4.98635 18.25 4.6464 18.2325 4.3668C18.2143 4.07595 18.1751 3.80061 18.0737 3.53131C17.7948 2.79014 17.2099 2.20521 16.4687 1.92625C16.1994 1.82489 15.924 1.78569 15.6332 1.76748C15.3536 1.74998 15.0137 1.74999 14.6065 1.74999H14.6064H14.5833ZM13.2264 3.33011C13.2976 3.30328 13.406 3.27839 13.6272 3.26455C13.8543 3.25033 14.1471 3.24999 14.5833 3.24999C15.0196 3.24999 15.3123 3.25033 15.5395 3.26455C15.7606 3.27839 15.869 3.30328 15.9403 3.33011C16.2772 3.45691 16.5431 3.72279 16.6699 4.05968C16.6967 4.13096 16.7216 4.23935 16.7354 4.4605C16.7497 4.68765 16.75 4.98041 16.75 5.41666C16.75 5.85291 16.7497 6.14567 16.7354 6.37282C16.7216 6.59397 16.6967 6.70236 16.6699 6.77364C16.5431 7.11053 16.2772 7.37641 15.9403 7.50321C15.869 7.53004 15.7606 7.55493 15.5395 7.56877C15.3123 7.58298 15.0196 7.58333 14.5833 7.58333C14.1471 7.58333 13.8543 7.58298 13.6272 7.56877C13.406 7.55493 13.2976 7.53004 13.2264 7.50321C12.8895 7.37641 12.6236 7.11053 12.4968 6.77364C12.47 6.70236 12.4451 6.59397 12.4312 6.37282C12.417 6.14567 12.4167 5.85291 12.4167 5.41666C12.4167 4.98041 12.417 4.68765 12.4312 4.4605C12.4451 4.23935 12.47 4.13096 12.4968 4.05968C12.6236 3.72279 12.8895 3.45691 13.2264 3.33011ZM5.41667 1.74999H5.39356H5.39351C4.98633 1.74999 4.64639 1.74998 4.36681 1.76748C4.07595 1.78569 3.80062 1.82489 3.53131 1.92625C2.79015 2.20521 2.20522 2.79014 1.92626 3.53131C1.8249 3.80061 1.78569 4.07595 1.76749 4.3668C1.74999 4.64638 1.74999 4.98632 1.75 5.3935V5.39355V5.41666V5.43977V5.43982C1.74999 5.847 1.74999 6.18694 1.76749 6.46652C1.78569 6.75737 1.8249 7.03271 1.92626 7.30201C2.20522 8.04318 2.79015 8.62811 3.53131 8.90707C3.80062 9.00843 4.07595 9.04763 4.36681 9.06584C4.6464 9.08334 4.98635 9.08333 5.39356 9.08333H5.39356H5.39357H5.39357H5.41667H5.43977H5.43977H5.43978H5.43978C5.84698 9.08333 6.18694 9.08334 6.46653 9.06584C6.75738 9.04763 7.03271 9.00843 7.30202 8.90707C8.04319 8.62811 8.62812 8.04318 8.90708 7.30201C9.00844 7.03271 9.04764 6.75737 9.06585 6.46652C9.08335 6.18693 9.08334 5.84698 9.08333 5.43977V5.43977V5.43976V5.43976V5.41666V5.39356V5.39356V5.39355V5.39355C9.08334 4.98635 9.08335 4.64639 9.06585 4.3668C9.04764 4.07595 9.00844 3.80061 8.90708 3.53131C8.62812 2.79014 8.04319 2.20521 7.30202 1.92625C7.03271 1.82489 6.75738 1.78569 6.46653 1.76748C6.18695 1.74998 5.84701 1.74999 5.43983 1.74999H5.43978H5.41667ZM4.05969 3.33011C4.13097 3.30328 4.23936 3.27839 4.46051 3.26455C4.68765 3.25034 4.98042 3.24999 5.41667 3.24999C5.85292 3.24999 6.14568 3.25034 6.37282 3.26455C6.59397 3.27839 6.70237 3.30328 6.77365 3.33011C7.11054 3.45691 7.37642 3.72279 7.50322 4.05968C7.53004 4.13096 7.55493 4.23935 7.56878 4.4605C7.58299 4.68765 7.58333 4.98041 7.58333 5.41666C7.58333 5.85291 7.58299 6.14567 7.56878 6.37282C7.55493 6.59397 7.53004 6.70236 7.50322 6.77364C7.37642 7.11053 7.11054 7.37641 6.77365 7.50321C6.70237 7.53004 6.59397 7.55493 6.37282 7.56877C6.14568 7.58299 5.85292 7.58333 5.41667 7.58333C4.98042 7.58333 4.68765 7.58299 4.46051 7.56877C4.23936 7.55493 4.13097 7.53004 4.05969 7.50321C3.7228 7.37641 3.45692 7.11053 3.33012 6.77364C3.30329 6.70236 3.2784 6.59397 3.26456 6.37282C3.25034 6.14567 3.25 5.85291 3.25 5.41666C3.25 4.98041 3.25034 4.68765 3.26456 4.4605C3.2784 4.23935 3.30329 4.13096 3.33012 4.05968C3.45692 3.72279 3.7228 3.45691 4.05969 3.33011ZM5.39355 10.9167H5.41667H5.43978C5.84698 10.9167 6.18694 10.9166 6.46653 10.9341C6.75738 10.9524 7.03271 10.9916 7.30202 11.0929C8.04319 11.3719 8.62812 11.9568 8.90708 12.698C9.00844 12.9673 9.04764 13.2426 9.06585 13.5335C9.08335 13.8131 9.08334 14.153 9.08333 14.5602V14.5833V14.6064C9.08334 15.0136 9.08335 15.3536 9.06585 15.6332C9.04764 15.924 9.00844 16.1994 8.90708 16.4687C8.62812 17.2098 8.04319 17.7948 7.30202 18.0737C7.03271 18.1751 6.75738 18.2143 6.46653 18.2325C6.18693 18.25 5.84697 18.25 5.43976 18.25H5.41667H5.39357C4.98636 18.25 4.6464 18.25 4.36681 18.2325C4.07595 18.2143 3.80062 18.1751 3.53131 18.0737C2.79015 17.7948 2.20521 17.2098 1.92626 16.4687C1.8249 16.1994 1.78569 15.924 1.76749 15.6332C1.74999 15.3536 1.74999 15.0136 1.75 14.6065V14.6064V14.5833V14.5602V14.5602C1.74999 14.153 1.74999 13.8131 1.76749 13.5335C1.78569 13.2426 1.8249 12.9673 1.92626 12.698C2.20521 11.9568 2.79015 11.3719 3.53131 11.0929C3.80062 10.9916 4.07595 10.9524 4.36681 10.9341C4.6464 10.9166 4.98635 10.9167 5.39355 10.9167ZM4.46051 12.4312C4.23936 12.4451 4.13097 12.4699 4.05969 12.4968C3.72279 12.6236 3.45692 12.8895 3.33012 13.2263C3.30329 13.2976 3.2784 13.406 3.26456 13.6272C3.25034 13.8543 3.25 14.1471 3.25 14.5833C3.25 15.0196 3.25034 15.3123 3.26456 15.5395C3.2784 15.7606 3.30329 15.869 3.33012 15.9403C3.45692 16.2772 3.72279 16.5431 4.05969 16.6699C4.13097 16.6967 4.23936 16.7216 4.46051 16.7354C4.68765 16.7497 4.98042 16.75 5.41667 16.75C5.85292 16.75 6.14568 16.7497 6.37282 16.7354C6.59397 16.7216 6.70237 16.6967 6.77365 16.6699C7.11054 16.5431 7.37642 16.2772 7.50322 15.9403C7.53004 15.869 7.55493 15.7606 7.56878 15.5395C7.58299 15.3123 7.58333 15.0196 7.58333 14.5833C7.58333 14.1471 7.58299 13.8543 7.56878 13.6272C7.55493 13.406 7.53004 13.2976 7.50322 13.2263C7.37642 12.8895 7.11054 12.6236 6.77365 12.4968C6.70237 12.4699 6.59397 12.4451 6.37282 12.4312C6.14568 12.417 5.85292 12.4167 5.41667 12.4167C4.98042 12.4167 4.68765 12.417 4.46051 12.4312ZM14.5833 10.9167H14.5602C14.153 10.9167 13.8131 10.9166 13.5335 10.9341C13.2426 10.9524 12.9673 10.9916 12.698 11.0929C11.9568 11.3719 11.3719 11.9568 11.0929 12.698C10.9916 12.9673 10.9524 13.2426 10.9342 13.5335C10.9167 13.8131 10.9167 14.153 10.9167 14.5602V14.5833V14.6064C10.9167 15.0136 10.9167 15.3536 10.9342 15.6332C10.9524 15.924 10.9916 16.1994 11.0929 16.4687C11.3719 17.2098 11.9568 17.7948 12.698 18.0737C12.9673 18.1751 13.2426 18.2143 13.5335 18.2325C13.8131 18.25 14.153 18.25 14.5602 18.25H14.5602H14.5833H14.6064H14.6065C15.0137 18.25 15.3536 18.25 15.6332 18.2325C15.924 18.2143 16.1994 18.1751 16.4687 18.0737C17.2099 17.7948 17.7948 17.2098 18.0737 16.4687C18.1751 16.1994 18.2143 15.924 18.2325 15.6332C18.25 15.3536 18.25 15.0137 18.25 14.6065V14.6064V14.5833V14.5602V14.5602C18.25 14.153 18.25 13.813 18.2325 13.5335C18.2143 13.2426 18.1751 12.9673 18.0737 12.698C17.7948 11.9568 17.2099 11.3719 16.4687 11.0929C16.1994 10.9916 15.924 10.9524 15.6332 10.9341C15.3536 10.9166 15.0136 10.9167 14.6064 10.9167H14.5833ZM13.2264 12.4968C13.2976 12.47 13.406 12.4451 13.6272 12.4312C13.8543 12.417 14.1471 12.4167 14.5833 12.4167C15.0196 12.4167 15.3123 12.417 15.5395 12.4312C15.7606 12.4451 15.869 12.47 15.9403 12.4968C16.2772 12.6236 16.5431 12.8895 16.6699 13.2263C16.6967 13.2976 16.7216 13.406 16.7354 13.6272C16.7497 13.8543 16.75 14.1471 16.75 14.5833C16.75 15.0196 16.7497 15.3123 16.7354 15.5395C16.7216 15.7606 16.6967 15.869 16.6699 15.9403C16.5431 16.2772 16.2772 16.5431 15.9403 16.6699C15.869 16.6967 15.7606 16.7216 15.5395 16.7354C15.3123 16.7497 15.0196 16.75 14.5833 16.75C14.1471 16.75 13.8543 16.7497 13.6272 16.7354C13.406 16.7216 13.2976 16.6967 13.2264 16.6699C12.8895 16.5431 12.6236 16.2772 12.4968 15.9403C12.47 15.869 12.4451 15.7606 12.4312 15.5395C12.417 15.3123 12.4167 15.0196 12.4167 14.5833C12.4167 14.1471 12.417 13.8543 12.4312 13.6272C12.4451 13.406 12.47 13.2976 12.4968 13.2263C12.6236 12.8895 12.8895 12.6236 13.2264 12.4968Z" fill="white"/>
</svg>
