<svg width="20" height="20" viewBox="0 0 20 20" fill="none" xmlns="http://www.w3.org/2000/svg">
<path fill-rule="evenodd" clip-rule="evenodd" d="M8.33329 2.58325H8.2965H8.2965C7.08152 2.58324 6.11875 2.58324 5.34572 2.6533C4.5546 2.725 3.8889 2.87479 3.29163 3.21963C2.56953 3.63653 1.96991 4.23616 1.55301 4.95825C1.20817 5.55553 1.05838 6.22123 0.986675 7.01235C0.916613 7.78537 0.916619 8.74815 0.916626 9.96312V9.96313V9.99992V10.0367V10.0367C0.916619 11.2517 0.916613 12.2145 0.986675 12.9875C1.05838 13.7786 1.20817 14.4443 1.55301 15.0416C1.96991 15.7637 2.56953 16.3633 3.29163 16.7802C3.8889 17.125 4.5546 17.2748 5.34572 17.3465C6.11875 17.4166 7.08154 17.4166 8.29653 17.4166H8.3333H11.6666H11.7034C12.9184 17.4166 13.8812 17.4166 14.6542 17.3465C15.4453 17.2748 16.111 17.125 16.7083 16.7802C17.4304 16.3633 18.03 15.7637 18.4469 15.0416C18.7918 14.4443 18.9415 13.7786 19.0132 12.9875C19.0833 12.2145 19.0833 11.2517 19.0833 10.0367V9.99992V9.9631C19.0833 8.74814 19.0833 7.78537 19.0132 7.01235C18.9415 6.22123 18.7918 5.55553 18.4469 4.95825C18.03 4.23616 17.4304 3.63653 16.7083 3.21963C16.111 2.87479 15.4453 2.725 14.6542 2.6533C13.8812 2.58324 12.9184 2.58324 11.7034 2.58325H11.6666H8.33329ZM4.04163 4.51867C4.37255 4.32761 4.79403 4.20945 5.48112 4.14718C6.17851 4.08397 7.07334 4.08325 8.33329 4.08325H11.6666C12.9266 4.08325 13.8214 4.08397 14.5188 4.14718C15.2059 4.20945 15.6274 4.32761 15.9583 4.51867C16.4524 4.80392 16.8626 5.21419 17.1479 5.70825C17.3389 6.03918 17.4571 6.46066 17.5194 7.14774C17.5826 7.84514 17.5833 8.73996 17.5833 9.99992C17.5833 11.2599 17.5826 12.1547 17.5194 12.8521C17.4571 13.5392 17.3389 13.9607 17.1479 14.2916C16.8626 14.7856 16.4524 15.1959 15.9583 15.4812C15.6274 15.6722 15.2059 15.7904 14.5188 15.8527C13.8214 15.9159 12.9266 15.9166 11.6666 15.9166H8.3333C7.07334 15.9166 6.17851 15.9159 5.48112 15.8527C4.79403 15.7904 4.37255 15.6722 4.04163 15.4812C3.54756 15.1959 3.13729 14.7856 2.85204 14.2916C2.66098 13.9607 2.54282 13.5392 2.48055 12.8521C2.41734 12.1547 2.41663 11.2599 2.41663 9.99992C2.41663 8.73996 2.41734 7.84514 2.48055 7.14774C2.54282 6.46066 2.66098 6.03918 2.85204 5.70825C3.13729 5.21419 3.54756 4.80392 4.04163 4.51867ZM5.41598 6.04255C5.07134 5.81278 4.60569 5.90591 4.37592 6.25056C4.14616 6.59521 4.23929 7.06086 4.58393 7.29062L9.58393 10.624C9.83586 10.7919 10.1641 10.7919 10.416 10.624L15.416 7.29062C15.7606 7.06086 15.8538 6.59521 15.624 6.25056C15.3942 5.90591 14.9286 5.81278 14.5839 6.04255L9.99996 9.09853L5.41598 6.04255Z" fill="#818294"/>
</svg>
