<svg width="20" height="20" viewBox="0 0 20 20" fill="none" xmlns="http://www.w3.org/2000/svg">
<path fill-rule="evenodd" clip-rule="evenodd" d="M8.33335 2.5835H8.29656H8.29656C7.08159 2.58349 6.11881 2.58348 5.34578 2.65355C4.55466 2.72525 3.88896 2.87504 3.29169 3.21988C2.5696 3.63678 1.96997 4.2364 1.55307 4.9585C1.20823 5.55577 1.05844 6.22147 0.986736 7.01259C0.916675 7.78561 0.91668 8.74839 0.916687 9.96337V9.96337V10.0002V10.037V10.037C0.91668 11.2519 0.916675 12.2147 0.986736 12.9877C1.05844 13.7789 1.20823 14.4446 1.55307 15.0418C1.96997 15.7639 2.5696 16.3635 3.29169 16.7804C3.88896 17.1253 4.55466 17.2751 5.34578 17.3468C6.11881 17.4168 7.0816 17.4168 8.29659 17.4168H8.33336H11.6667H11.7035C12.9184 17.4168 13.8812 17.4168 14.6543 17.3468C15.4454 17.2751 16.1111 17.1253 16.7084 16.7804C17.4304 16.3635 18.0301 15.7639 18.447 15.0418C18.7918 14.4446 18.9416 13.7789 19.0133 12.9877C19.0834 12.2147 19.0834 11.2519 19.0834 10.037V10.0002V9.96335C19.0834 8.74838 19.0834 7.78561 19.0133 7.01259C18.9416 6.22147 18.7918 5.55577 18.447 4.9585C18.0301 4.2364 17.4304 3.63678 16.7084 3.21988C16.1111 2.87504 15.4454 2.72525 14.6543 2.65355C13.8812 2.58348 12.9185 2.58349 11.7035 2.5835H11.6667H8.33335ZM4.04169 4.51891C4.37261 4.32785 4.79409 4.20969 5.48118 4.14742C6.17857 4.08421 7.0734 4.0835 8.33335 4.0835H11.6667C12.9266 4.0835 13.8215 4.08421 14.5189 4.14742C15.2059 4.20969 15.6274 4.32785 15.9584 4.51891C16.4524 4.80416 16.8627 5.21443 17.1479 5.7085C17.339 6.03942 17.4572 6.4609 17.5194 7.14799C17.5826 7.84538 17.5834 8.7402 17.5834 10.0002C17.5834 11.2601 17.5826 12.1549 17.5194 12.8523C17.4572 13.5394 17.339 13.9609 17.1479 14.2918C16.8627 14.7859 16.4524 15.1962 15.9584 15.4814C15.6274 15.6725 15.2059 15.7906 14.5189 15.8529C13.8215 15.9161 12.9266 15.9168 11.6667 15.9168H8.33336C7.0734 15.9168 6.17858 15.9161 5.48118 15.8529C4.79409 15.7906 4.37261 15.6725 4.04169 15.4814C3.54762 15.1962 3.13735 14.7859 2.8521 14.2918C2.66104 13.9609 2.54289 13.5394 2.48061 12.8523C2.41741 12.1549 2.41669 11.2601 2.41669 10.0002C2.41669 8.7402 2.41741 7.84538 2.48061 7.14799C2.54289 6.4609 2.66104 6.03942 2.8521 5.7085C3.13735 5.21443 3.54762 4.80416 4.04169 4.51891ZM5.41605 6.04279C5.0714 5.81303 4.60575 5.90616 4.37598 6.2508C4.14622 6.59545 4.23935 7.0611 4.584 7.29087L9.584 10.6242C9.83592 10.7922 10.1641 10.7922 10.416 10.6242L15.416 7.29087C15.7607 7.0611 15.8538 6.59545 15.6241 6.2508C15.3943 5.90616 14.9286 5.81303 14.584 6.04279L10 9.09877L5.41605 6.04279Z" fill="#818294"/>
</svg>
