<svg width="24" height="25" viewBox="0 0 24 25" fill="none" xmlns="http://www.w3.org/2000/svg">
<path d="M23.9653 12.2141C23.9653 5.59625 18.6005 0.231445 11.9826 0.231445C5.3648 0.231445 0 5.59625 0 12.2141C0 18.1949 4.38185 23.1522 10.1103 24.0511V15.6778H7.06788V12.2141H10.1103V9.57416C10.1103 6.57101 11.8993 4.91216 14.6364 4.91216C15.947 4.91216 17.3186 5.1462 17.3186 5.1462V8.09505H15.8077C14.3192 8.09505 13.8549 9.01879 13.8549 9.96734V12.2141H17.1782L16.647 15.6778H13.8549V24.0511C19.5834 23.1522 23.9653 18.1949 23.9653 12.2141Z" fill="#818294"/>
<path d="M16.647 15.6778L17.1782 12.214H13.8549V9.96728C13.8549 9.01967 14.3192 8.095 15.8077 8.095H17.3186V5.14615C17.3186 5.14615 15.9474 4.91211 14.6364 4.91211C11.8993 4.91211 10.1103 6.57096 10.1103 9.5741V12.214H7.06787V15.6778H10.1103V24.0511C11.351 24.2452 12.6143 24.2452 13.8549 24.0511V15.6778H16.647Z" fill="#F0FBFF"/>
</svg>
