<svg width="25" height="24" viewBox="0 0 25 24" fill="none" xmlns="http://www.w3.org/2000/svg">
<path d="M5.5 6V3" stroke="#1B1C1E" stroke-width="1.5" stroke-linecap="round" stroke-linejoin="round"/>
<path d="M5.5 21V10" stroke="#1B1C1E" stroke-width="1.5" stroke-linecap="round" stroke-linejoin="round"/>
<path d="M12.5 14V3" stroke="#1B1C1E" stroke-width="1.5" stroke-linecap="round" stroke-linejoin="round"/>
<path d="M12.5 21V18" stroke="#1B1C1E" stroke-width="1.5" stroke-linecap="round" stroke-linejoin="round"/>
<path d="M19.5 6V3" stroke="#1B1C1E" stroke-width="1.5" stroke-linecap="round" stroke-linejoin="round"/>
<path d="M19.5 21V10" stroke="#1B1C1E" stroke-width="1.5" stroke-linecap="round" stroke-linejoin="round"/>
<path d="M6.91422 6.58579C7.69527 7.36684 7.69527 8.63317 6.91422 9.41422C6.13317 10.1953 4.86684 10.1953 4.08579 9.41422C3.30474 8.63317 3.30474 7.36684 4.08579 6.58579C4.86684 5.80474 6.13317 5.80474 6.91422 6.58579" stroke="#1B1C1E" stroke-width="1.5" stroke-linecap="round" stroke-linejoin="round"/>
<path d="M13.9142 14.5858C14.6953 15.3668 14.6953 16.6332 13.9142 17.4142C13.1332 18.1953 11.8668 18.1953 11.0858 17.4142C10.3047 16.6332 10.3047 15.3668 11.0858 14.5858C11.8668 13.8047 13.1332 13.8047 13.9142 14.5858" stroke="#1B1C1E" stroke-width="1.5" stroke-linecap="round" stroke-linejoin="round"/>
<path d="M20.9142 6.58579C21.6953 7.36684 21.6953 8.63317 20.9142 9.41422C20.1332 10.1953 18.8668 10.1953 18.0858 9.41422C17.3047 8.63317 17.3047 7.36684 18.0858 6.58579C18.8668 5.80474 20.1332 5.80474 20.9142 6.58579" stroke="#1B1C1E" stroke-width="1.5" stroke-linecap="round" stroke-linejoin="round"/>
</svg>
