<svg width="24" height="24" viewBox="0 0 24 24" fill="none" xmlns="http://www.w3.org/2000/svg">
<path fill-rule="evenodd" clip-rule="evenodd" d="M10.4398 6.9751C8.88285 5.38281 6.32087 5.38281 4.76396 6.9751C3.25576 8.51758 3.25576 10.9823 4.76396 12.5248L11.8631 19.7853C11.9392 19.8631 12.0645 19.8631 12.1406 19.7853L19.2398 12.5248C20.748 10.9823 20.748 8.51758 19.2398 6.9751C17.6828 5.38281 15.1209 5.38281 13.564 6.9751L12.5381 8.02427C12.397 8.16858 12.2037 8.24993 12.0019 8.24993C11.8 8.24993 11.6067 8.16858 11.4656 8.02427L10.4398 6.9751ZM3.69145 5.92642C5.83675 3.73237 9.36697 3.73237 11.5123 5.92642L12.0019 6.42715L12.4915 5.92642C14.6367 3.73237 18.167 3.73237 20.3123 5.92642C22.3904 8.05184 22.3904 11.448 20.3123 13.5734L13.2131 20.8339C12.5486 21.5135 11.4551 21.5135 10.7906 20.8339L3.69145 13.5734C1.61326 11.448 1.61327 8.05184 3.69145 5.92642Z" fill="#818294"/>
</svg>
