<svg width="24" height="25" viewBox="0 0 24 25" fill="none" xmlns="http://www.w3.org/2000/svg">
<path fill-rule="evenodd" clip-rule="evenodd" d="M12 2.75C8.77743 2.75 6.36338 4.0959 4.76986 5.42383C4.38294 5.74627 4.04305 6.06863 3.75 6.37217V4.5C3.75 4.08579 3.41421 3.75 3 3.75C2.58579 3.75 2.25 4.08579 2.25 4.5V8.5C2.25 8.91421 2.58579 9.25 3 9.25H6.5C6.91421 9.25 7.25 8.91421 7.25 8.5C7.25 8.08579 6.91421 7.75 6.5 7.75H4.51757C4.83634 7.39199 5.24073 6.98401 5.73014 6.57617C7.13662 5.4041 9.22257 4.25 12 4.25C16.5842 4.25 20.25 7.94205 20.25 12.5C20.25 17.0563 16.5563 20.75 12 20.75C7.44365 20.75 3.75 17.0563 3.75 12.5C3.75 12.0858 3.41421 11.75 3 11.75C2.58579 11.75 2.25 12.0858 2.25 12.5C2.25 17.8848 6.61522 22.25 12 22.25C17.3848 22.25 21.75 17.8848 21.75 12.5C21.75 7.11682 17.4158 2.75 12 2.75ZM12.75 8.5C12.75 8.08579 12.4142 7.75 12 7.75C11.5858 7.75 11.25 8.08579 11.25 8.5V12.5C11.25 12.7508 11.3753 12.9849 11.584 13.124L14.584 15.124C14.9286 15.3538 15.3943 15.2607 15.624 14.916C15.8538 14.5714 15.7607 14.1057 15.416 13.876L12.75 12.0986V8.5Z" fill="#818294"/>
</svg>
