<svg width="25" height="24" viewBox="0 0 25 24" fill="none" xmlns="http://www.w3.org/2000/svg">
<path fill-rule="evenodd" clip-rule="evenodd" d="M13.25 3.00012C13.25 2.58591 12.9142 2.25012 12.5 2.25012C12.0858 2.25012 11.75 2.58591 11.75 3.00012V15.1895L9.03033 12.4698C8.73744 12.1769 8.26256 12.1769 7.96967 12.4698C7.67678 12.7627 7.67678 13.2376 7.96967 13.5305L11.9697 17.5305C12.1103 17.6711 12.3011 17.7501 12.5 17.7501C12.6989 17.7501 12.8897 17.6711 13.0303 17.5305L17.0303 13.5305C17.3232 13.2376 17.3232 12.7627 17.0303 12.4698C16.7374 12.1769 16.2626 12.1769 15.9697 12.4698L13.25 15.1895V3.00012ZM8 8.25005H7.95481C6.82039 8.25003 5.9057 8.25003 5.17621 8.33227C4.42193 8.4173 3.77341 8.59813 3.21713 9.02499C2.95714 9.22449 2.72443 9.4572 2.52493 9.71719C2.09808 10.2735 1.91725 10.922 1.83221 11.6763C1.74997 12.4058 1.74999 13.3205 1.75 14.4549V14.5001V15.0001V15.0549C1.74998 16.4225 1.74996 17.5248 1.86652 18.3918C1.98754 19.2919 2.24643 20.0498 2.84835 20.6517C3.45027 21.2536 4.20814 21.5125 5.10825 21.6335C5.9752 21.7501 7.07751 21.7501 8.44507 21.7501H8.5H16.5H16.5548C17.9224 21.7501 19.0248 21.7501 19.8918 21.6335C20.7919 21.5125 21.5497 21.2536 22.1516 20.6517C22.7536 20.0498 23.0125 19.2919 23.1335 18.3918C23.25 17.5248 23.25 16.4225 23.25 15.0549V15.0001V14.5001V14.4549C23.25 13.3204 23.25 12.4058 23.1678 11.6763C23.0828 10.922 22.9019 10.2735 22.4751 9.71719C22.2756 9.4572 22.0429 9.22449 21.7829 9.02499C21.2266 8.59814 20.5781 8.4173 19.8238 8.33227C19.0943 8.25003 18.1796 8.25003 17.0452 8.25005H17.0452H17L17 9.00005L17 8.25005L16.5 8.25006C16.0858 8.25007 15.75 8.58587 15.75 9.00008C15.75 9.4143 16.0858 9.75007 16.5 9.75006L17 9.75005H17C18.1902 9.75005 19.0201 9.75117 19.6558 9.82283C20.2763 9.89278 20.6181 10.0219 20.8697 10.215C21.0257 10.3347 21.1653 10.4743 21.285 10.6303C21.4781 10.882 21.6073 11.2238 21.6772 11.8443C21.7489 12.4799 21.75 13.3098 21.75 14.5001V15.0001C21.75 16.4355 21.7484 17.4366 21.6469 18.1919C21.5482 18.9257 21.3678 19.3143 21.091 19.5911C20.8142 19.8678 20.4257 20.0483 19.6919 20.1469C18.9365 20.2485 17.9354 20.2501 16.5 20.2501H8.5C7.06458 20.2501 6.06347 20.2485 5.30812 20.1469C4.57435 20.0483 4.18577 19.8678 3.90901 19.591C3.63225 19.3143 3.4518 18.9257 3.35315 18.1919C3.25159 17.4366 3.25 16.4355 3.25 15.0001V14.5001C3.25 13.3098 3.25112 12.4799 3.32277 11.8443C3.39273 11.2238 3.52187 10.882 3.71496 10.6303C3.83466 10.4743 3.97429 10.3347 4.13028 10.215C4.38192 10.0219 4.72375 9.89278 5.34425 9.82283C5.97986 9.75117 6.80976 9.75005 7.99998 9.75005H8L8.49998 9.75006C8.91419 9.75007 9.24999 9.4143 9.25 9.00008C9.25001 8.58587 8.91424 8.25007 8.50002 8.25006L8.00002 8.25005L8 9.00005L8 8.25005Z" fill="white"/>
</svg>
