<svg width="27" height="26" viewBox="0 0 27 26" fill="none" xmlns="http://www.w3.org/2000/svg">
<path d="M13.547 2.90047C16.9087 2.90047 17.3068 2.91521 18.6289 2.97419C19.8576 3.02825 20.5211 3.23467 20.9634 3.40669C21.5483 3.63276 21.9709 3.90799 22.4083 4.3454C22.8507 4.78773 23.121 5.20548 23.3471 5.79034C23.5191 6.23267 23.7255 6.90107 23.7796 8.12485C23.8385 9.45183 23.8533 9.84993 23.8533 13.2067C23.8533 16.5684 23.8385 16.9665 23.7796 18.2886C23.7255 19.5172 23.5191 20.1807 23.3471 20.6231C23.121 21.2079 22.8457 21.6306 22.4083 22.068C21.966 22.5103 21.5483 22.7806 20.9634 23.0067C20.5211 23.1787 19.8527 23.3852 18.6289 23.4392C17.3019 23.4982 16.9038 23.5129 13.547 23.5129C10.1853 23.5129 9.78725 23.4982 8.46518 23.4392C7.2365 23.3852 6.573 23.1787 6.13068 23.0067C5.54582 22.7806 5.12315 22.5054 4.68574 22.068C4.24341 21.6257 3.9731 21.2079 3.74702 20.6231C3.575 20.1807 3.36859 19.5123 3.31452 18.2886C3.25555 16.9616 3.2408 16.5635 3.2408 13.2067C3.2408 9.84501 3.25555 9.44692 3.31452 8.12485C3.36859 6.89616 3.575 6.23267 3.74702 5.79034C3.9731 5.20548 4.24833 4.78282 4.68574 4.3454C5.12807 3.90308 5.54582 3.63276 6.13068 3.40669C6.573 3.23467 7.24141 3.02825 8.46518 2.97419C9.78725 2.91521 10.1853 2.90047 13.547 2.90047ZM13.547 0.634766C10.1313 0.634766 9.7037 0.64951 8.36197 0.708487C7.02516 0.767464 6.1061 0.983713 5.30991 1.29334C4.47932 1.61772 3.77651 2.0453 3.07861 2.74811C2.37581 3.446 1.94822 4.14881 1.62385 4.97449C1.31422 5.7756 1.09797 6.68974 1.03899 8.02655C0.980015 9.37319 0.965271 9.80078 0.965271 13.2165C0.965271 16.6323 0.980015 17.0599 1.03899 18.4016C1.09797 19.7384 1.31422 20.6575 1.62385 21.4537C1.94822 22.2842 2.37581 22.9871 3.07861 23.685C3.77651 24.3828 4.47932 24.8153 5.305 25.1348C6.1061 25.4444 7.02025 25.6607 8.35706 25.7197C9.69879 25.7786 10.1264 25.7934 13.5421 25.7934C16.9579 25.7934 17.3855 25.7786 18.7272 25.7197C20.064 25.6607 20.9831 25.4444 21.7792 25.1348C22.6049 24.8153 23.3077 24.3828 24.0056 23.685C24.7035 22.9871 25.136 22.2842 25.4555 21.4586C25.7651 20.6575 25.9814 19.7433 26.0403 18.4065C26.0993 17.0648 26.1141 16.6372 26.1141 13.2214C26.1141 9.80569 26.0993 9.37811 26.0403 8.03638C25.9814 6.69957 25.7651 5.78051 25.4555 4.98432C25.1459 4.14881 24.7183 3.446 24.0155 2.74811C23.3176 2.05021 22.6148 1.61772 21.7891 1.29826C20.988 0.988628 20.0738 0.772379 18.737 0.713402C17.3904 0.64951 16.9628 0.634766 13.547 0.634766Z" fill="#818294"/>
<path d="M13.5471 6.75342C9.97896 6.75342 7.08417 9.64821 7.08417 13.2163C7.08417 16.7844 9.97896 19.6792 13.5471 19.6792C17.1152 19.6792 20.01 16.7844 20.01 13.2163C20.01 9.64821 17.1152 6.75342 13.5471 6.75342ZM13.5471 17.4086C11.2322 17.4086 9.35478 15.5312 9.35478 13.2163C9.35478 10.9015 11.2322 9.02403 13.5471 9.02403C15.8619 9.02403 17.7393 10.9015 17.7393 13.2163C17.7393 15.5312 15.8619 17.4086 13.5471 17.4086Z" fill="#818294"/>
<path d="M21.7743 6.49809C21.7743 7.3336 21.0961 8.00692 20.2655 8.00692C19.43 8.00692 18.7567 7.32868 18.7567 6.49809C18.7567 5.66258 19.4349 4.98926 20.2655 4.98926C21.0961 4.98926 21.7743 5.66749 21.7743 6.49809Z" fill="#818294"/>
</svg>
