<svg width="80" height="41" viewBox="0 0 80 41" fill="none" xmlns="http://www.w3.org/2000/svg">
<rect x="0.5" y="1" width="79" height="39" rx="7.5" fill="#F0FBFF" stroke="#DCF6FF"/>
<path d="M20.1985 26V15.0909H21.8445V24.5831H26.7876V26H20.1985ZM37.7167 20.5455C37.7167 21.7102 37.5036 22.7116 37.0775 23.5497C36.6514 24.3842 36.0672 25.027 35.325 25.478C34.5864 25.9254 33.7465 26.1491 32.8055 26.1491C31.8609 26.1491 31.0175 25.9254 30.2753 25.478C29.5367 25.027 28.9543 24.3825 28.5281 23.5444C28.102 22.7063 27.8889 21.7067 27.8889 20.5455C27.8889 19.3807 28.102 18.381 28.5281 17.5465C28.9543 16.7085 29.5367 16.0657 30.2753 15.6183C31.0175 15.1673 31.8609 14.9418 32.8055 14.9418C33.7465 14.9418 34.5864 15.1673 35.325 15.6183C36.0672 16.0657 36.6514 16.7085 37.0775 17.5465C37.5036 18.381 37.7167 19.3807 37.7167 20.5455ZM36.0867 20.5455C36.0867 19.6577 35.9429 18.9102 35.6553 18.3029C35.3712 17.6921 34.9806 17.2305 34.4834 16.918C33.9898 16.6019 33.4305 16.4439 32.8055 16.4439C32.1769 16.4439 31.6159 16.6019 31.1222 16.918C30.6286 17.2305 30.238 17.6921 29.9504 18.3029C29.6663 18.9102 29.5242 19.6577 29.5242 20.5455C29.5242 21.4332 29.6663 22.1825 29.9504 22.7933C30.238 23.4006 30.6286 23.8622 31.1222 24.1783C31.6159 24.4908 32.1769 24.647 32.8055 24.647C33.4305 24.647 33.9898 24.4908 34.4834 24.1783C34.9806 23.8622 35.3712 23.4006 35.6553 22.7933C35.9429 22.1825 36.0867 21.4332 36.0867 20.5455ZM47.1516 18.5373C47.0487 18.2141 46.9102 17.9247 46.7362 17.669C46.5657 17.4098 46.3615 17.1896 46.1236 17.0085C45.8857 16.8239 45.614 16.6836 45.3086 16.5877C45.0067 16.4918 44.6747 16.4439 44.3125 16.4439C43.6982 16.4439 43.1442 16.6019 42.6506 16.918C42.157 17.234 41.7663 17.6974 41.4787 18.3082C41.1946 18.9155 41.0526 19.6594 41.0526 20.5401C41.0526 21.4244 41.1964 22.1719 41.484 22.7827C41.7717 23.3935 42.1658 23.8569 42.6665 24.1729C43.1673 24.489 43.7372 24.647 44.3764 24.647C44.9695 24.647 45.4862 24.5263 45.9265 24.2848C46.3704 24.0433 46.7131 23.7024 46.9545 23.2621C47.1996 22.8182 47.3221 22.2962 47.3221 21.696L47.7482 21.7759H44.6268V20.4176H48.9148V21.6587C48.9148 22.5749 48.7195 23.3704 48.3288 24.0451C47.9418 24.7163 47.4055 25.2347 46.7202 25.6005C46.0384 25.9663 45.2571 26.1491 44.3764 26.1491C43.3892 26.1491 42.5227 25.9219 41.777 25.4673C41.0348 25.0128 40.456 24.3683 40.0405 23.5337C39.625 22.6957 39.4173 21.7013 39.4173 20.5508C39.4173 19.6808 39.538 18.8995 39.7795 18.207C40.021 17.5146 40.3601 16.9268 40.7969 16.4439C41.2372 15.9574 41.7539 15.5863 42.3469 15.3306C42.9435 15.0714 43.5952 14.9418 44.3018 14.9418C44.8913 14.9418 45.44 15.0288 45.9478 15.2028C46.4592 15.3768 46.9137 15.6236 47.3114 15.9432C47.7127 16.2628 48.0447 16.6428 48.3075 17.0831C48.5703 17.5199 48.7479 18.0046 48.8402 18.5373H47.1516ZM60.4804 20.5455C60.4804 21.7102 60.2673 22.7116 59.8412 23.5497C59.415 24.3842 58.8309 25.027 58.0887 25.478C57.3501 25.9254 56.5102 26.1491 55.5692 26.1491C54.6246 26.1491 53.7812 25.9254 53.039 25.478C52.3003 25.027 51.718 24.3825 51.2918 23.5444C50.8657 22.7063 50.6526 21.7067 50.6526 20.5455C50.6526 19.3807 50.8657 18.381 51.2918 17.5465C51.718 16.7085 52.3003 16.0657 53.039 15.6183C53.7812 15.1673 54.6246 14.9418 55.5692 14.9418C56.5102 14.9418 57.3501 15.1673 58.0887 15.6183C58.8309 16.0657 59.415 16.7085 59.8412 17.5465C60.2673 18.381 60.4804 19.3807 60.4804 20.5455ZM58.8504 20.5455C58.8504 19.6577 58.7066 18.9102 58.4189 18.3029C58.1349 17.6921 57.7442 17.2305 57.2471 16.918C56.7535 16.6019 56.1942 16.4439 55.5692 16.4439C54.9406 16.4439 54.3795 16.6019 53.8859 16.918C53.3923 17.2305 53.0017 17.6921 52.714 18.3029C52.43 18.9102 52.2879 19.6577 52.2879 20.5455C52.2879 21.4332 52.43 22.1825 52.714 22.7933C53.0017 23.4006 53.3923 23.8622 53.8859 24.1783C54.3795 24.4908 54.9406 24.647 55.5692 24.647C56.1942 24.647 56.7535 24.4908 57.2471 24.1783C57.7442 23.8622 58.1349 23.4006 58.4189 22.7933C58.7066 22.1825 58.8504 21.4332 58.8504 20.5455Z" fill="black"/>
</svg>
