<svg width="36" height="37" viewBox="0 0 36 37" fill="none" xmlns="http://www.w3.org/2000/svg">
<path d="M10.575 9.5H25.425C27.3313 9.5 28.8892 11.026 28.9943 12.9488L29 13.1562V23.8438C29 25.7934 27.5079 27.3867 25.6279 27.4942L25.425 27.5H10.575C8.66867 27.5 7.11083 25.974 7.00566 24.0512L7 23.8438V13.1562C7 11.2066 8.4921 9.61335 10.3721 9.50579L10.575 9.5H25.425H10.575ZM27.35 15.5446L18.3842 20.3716C18.1781 20.4826 17.9374 20.4985 17.7214 20.4192L17.6158 20.3716L8.65 15.5457V23.8438C8.65 24.8767 9.42782 25.7238 10.4171 25.806L10.575 25.8125H25.425C26.435 25.8125 27.2633 25.017 27.3436 24.0052L27.35 23.8438V15.5446ZM25.425 11.1875H10.575C9.56501 11.1875 8.73669 11.983 8.65638 12.9948L8.65 13.1562V13.6389L18 18.6715L27.35 13.6378V13.1562C27.35 12.1233 26.5722 11.2762 25.5829 11.194L25.425 11.1875Z" fill="#1C6BB9"/>
<rect x="0.5" y="1" width="35" height="35" rx="17.5" stroke="#1C6BB9"/>
</svg>
