<svg width="40" height="39" viewBox="0 0 40 39" fill="none" xmlns="http://www.w3.org/2000/svg">
<path d="M13.1176 10.5H17.3529L19.4706 15.7941L16.8235 17.3824C17.9575 19.6816 19.8184 21.5425 22.1176 22.6765L23.7059 20.0294L29 22.1471V26.3824C29 26.944 28.7769 27.4826 28.3798 27.8798C27.9826 28.2769 27.444 28.5 26.8824 28.5C22.7522 28.249 18.8566 26.4951 15.9308 23.5692C13.0049 20.6434 11.251 16.7478 11 12.6176C11 12.056 11.2231 11.5174 11.6202 11.1202C12.0174 10.7231 12.556 10.5 13.1176 10.5" stroke="#1C6BB9" stroke-width="1.5" stroke-linecap="round" stroke-linejoin="round"/>
<rect x="1.25" y="0.75" width="37.5" height="37.5" rx="18.75" stroke="#1C6BB9" stroke-width="1.5"/>
</svg>
