<svg width="24" height="24" viewBox="0 0 24 24" fill="none" xmlns="http://www.w3.org/2000/svg">
<path fill-rule="evenodd" clip-rule="evenodd" d="M5.46155 2.24996C5.48308 2.24997 5.50486 2.24998 5.52692 2.24998C5.54726 2.24998 5.56732 2.24998 5.58712 2.24997C5.91926 2.24982 6.17759 2.24971 6.41629 2.29183C7.31571 2.45055 8.07764 3.04545 8.44976 3.87952C8.54852 4.10087 8.61107 4.35152 8.69148 4.67378C8.69627 4.69299 8.70113 4.71246 8.70606 4.73219L9.11968 6.38666L9.12873 6.42285C9.26882 6.98313 9.38771 7.45864 9.4449 7.86151C9.50577 8.2904 9.50753 8.70015 9.37063 9.12067C9.23372 9.54119 8.99106 9.87136 8.68935 10.1822C8.40595 10.4742 8.02989 10.7886 7.58679 11.159L7.55818 11.1829L5.94595 12.5308C7.24926 14.8902 9.10974 16.7507 11.4691 18.054L12.817 16.4417L12.8409 16.4131C13.2113 15.97 13.5257 15.594 13.8177 15.3106C14.1286 15.0089 14.4587 14.7662 14.8792 14.6293C15.2998 14.4924 15.7095 14.4941 16.1384 14.555C16.5413 14.6122 17.0168 14.7311 17.5771 14.8712L17.6133 14.8802L19.2677 15.2939C19.2875 15.2988 19.3069 15.3036 19.3261 15.3084C19.6484 15.3889 19.899 15.4514 20.1204 15.5502C20.9545 15.9223 21.5494 16.6842 21.7081 17.5836C21.7502 17.8223 21.7501 18.0807 21.75 18.4128C21.7499 18.4326 21.7499 18.4527 21.7499 18.473C21.7499 18.4951 21.7499 18.5168 21.75 18.5384C21.7502 18.9214 21.7503 19.2236 21.6838 19.5215C21.4417 20.6054 20.4383 21.5156 19.336 21.6514C19.0336 21.6886 18.7737 21.6631 18.4505 21.6314C18.435 21.6299 18.4194 21.6284 18.4037 21.6268C15.764 21.3693 13.3883 20.7099 11.3191 19.6701C8.24493 18.1255 5.87439 15.755 4.32977 12.6808C3.29006 10.6116 2.63061 8.2359 2.37307 5.59624C2.37153 5.58049 2.37001 5.5649 2.36849 5.54945C2.3368 5.22622 2.31133 4.96636 2.34856 4.66395C2.48428 3.56158 3.39449 2.55825 4.47846 2.31612C4.77631 2.24959 5.07854 2.24976 5.46155 2.24996ZM12.8576 18.7318C14.538 19.452 16.4398 19.9281 18.5493 20.1339C18.9358 20.1716 19.0315 20.1775 19.1527 20.1626C19.6255 20.1044 20.116 19.6593 20.2199 19.1945C20.2458 19.0784 20.2499 18.9514 20.2499 18.473C20.2499 18.0524 20.2471 17.9363 20.2309 17.8443C20.1588 17.4355 19.8884 17.0891 19.5092 16.92C19.4239 16.8819 19.312 16.8511 18.9039 16.7491L17.2495 16.3354C16.6432 16.1839 16.2439 16.085 15.9276 16.0401C15.6288 15.9977 15.4697 16.0146 15.3436 16.0556C15.2176 16.0966 15.079 16.1767 14.8624 16.3869C14.6332 16.6094 14.3686 16.9244 13.9678 17.4038L12.8576 18.7318ZM5.26811 11.1423L6.59607 10.0321C7.07548 9.63131 7.39052 9.3667 7.61299 9.13749C7.82323 8.92088 7.90327 8.78236 7.94431 8.65631C7.98535 8.53026 8.0022 8.37116 7.95978 8.07229C7.91489 7.75605 7.81602 7.35668 7.66447 6.75046L7.25085 5.09599C7.14883 4.68791 7.11797 4.57598 7.07992 4.49068C6.91077 4.11156 6.56444 3.84115 6.15561 3.76901C6.06363 3.75277 5.94755 3.74998 5.52692 3.74998C5.04849 3.74998 4.92155 3.75412 4.80546 3.78005C4.34057 3.88389 3.89553 4.37446 3.83732 4.84724C3.82241 4.96837 3.82827 5.0641 3.86598 5.45058C4.0718 7.56011 4.54796 9.46188 5.26811 11.1423Z" fill="white"/>
</svg>
