<svg width="20" height="20" viewBox="0 0 20 20" fill="none" xmlns="http://www.w3.org/2000/svg">
<path fill-rule="evenodd" clip-rule="evenodd" d="M4.08331 8.45679C4.08331 6.39216 4.8365 4.90112 5.92001 3.92016C7.01629 2.92764 8.49688 2.41664 9.99998 2.41664C11.5031 2.41665 12.9837 2.92765 14.0799 3.92018C15.1635 4.90114 15.9166 6.39218 15.9166 8.45679C15.9166 10.8404 14.6428 12.9699 13.1719 14.624C12.5052 15.3737 12.0897 15.8329 11.641 16.1305C11.2391 16.3971 10.78 16.55 10.0002 16.55C9.22035 16.55 8.76123 16.3972 8.35932 16.1306C7.91057 15.833 7.49504 15.3737 6.82836 14.6241C5.35725 12.97 4.08331 10.8405 4.08331 8.45679ZM17.4166 8.45679C17.4166 5.99466 16.5032 4.09062 15.0867 2.8082C13.683 1.53734 11.8302 0.916646 9.99998 0.916641C8.16975 0.916637 6.317 1.53732 4.91328 2.80818C3.49679 4.0906 2.58331 5.99464 2.58331 8.45679C2.58331 11.3739 4.13122 13.8485 5.7075 15.6209L5.75513 15.6745C6.3601 16.3549 6.90104 16.9634 7.53027 17.3807C8.2228 17.84 8.98428 18.05 10.0002 18.05C11.0161 18.05 11.7776 17.8399 12.4701 17.3806C13.0993 16.9633 13.6402 16.3548 14.2451 15.6744L14.2451 15.6744L14.2928 15.6208C15.8689 13.8484 17.4166 11.3738 17.4166 8.45679ZM8.24998 8.33333C8.24998 7.36684 9.03348 6.58333 9.99998 6.58333C10.9665 6.58333 11.75 7.36684 11.75 8.33333C11.75 9.29983 10.9665 10.0833 9.99998 10.0833C9.03348 10.0833 8.24998 9.29983 8.24998 8.33333ZM9.99998 5.08333C8.20505 5.08333 6.74998 6.53841 6.74998 8.33333C6.74998 10.1283 8.20505 11.5833 9.99998 11.5833C11.7949 11.5833 13.25 10.1283 13.25 8.33333C13.25 6.53841 11.7949 5.08333 9.99998 5.08333Z" fill="#818294"/>
</svg>
