<svg width="24" height="25" viewBox="0 0 24 25" fill="none" xmlns="http://www.w3.org/2000/svg">
<path fill-rule="evenodd" clip-rule="evenodd" d="M2.62356 2.85132C2.85479 2.71713 3.13998 2.71617 3.37211 2.84882L6.5 4.63619L9.6279 2.84882C9.85847 2.71706 10.1415 2.71706 10.3721 2.84882L13.5 4.63619L16.6279 2.84882C16.86 2.71617 17.1452 2.71713 17.3764 2.85132C17.6077 2.98551 17.75 3.23265 17.75 3.5V11.75H21C21.4142 11.75 21.75 12.0858 21.75 12.5V19.5C21.75 21.0188 20.5188 22.25 19 22.25H9H8.94513C7.57754 22.25 6.47522 22.25 5.60825 22.1335C4.70814 22.0125 3.95027 21.7536 3.34835 21.1517C2.74643 20.5497 2.48754 19.7919 2.36652 18.8918C2.24996 18.0248 2.24998 16.9225 2.25 15.5549V15.5V3.5C2.25 3.23265 2.39232 2.98551 2.62356 2.85132ZM19 20.75C19.6904 20.75 20.25 20.1904 20.25 19.5V13.25H17.75V19.5C17.75 20.1904 18.3096 20.75 19 20.75ZM16.5499 20.75H9C7.56459 20.75 6.56347 20.7484 5.80812 20.6469C5.07435 20.5482 4.68577 20.3678 4.40901 20.091C4.13225 19.8142 3.9518 19.4257 3.85315 18.6919C3.75159 17.9365 3.75 16.9354 3.75 15.5V4.79238L6.1279 6.15118C6.35847 6.28294 6.64153 6.28294 6.87211 6.15118L10 4.36381L13.1279 6.15118C13.3585 6.28294 13.6415 6.28294 13.8721 6.15118L16.25 4.79239V12.5V19.5C16.25 19.9501 16.3581 20.375 16.5499 20.75ZM6.25 9.5C6.25 9.08579 6.58579 8.75 7 8.75H11C11.4142 8.75 11.75 9.08579 11.75 9.5C11.75 9.91421 11.4142 10.25 11 10.25H7C6.58579 10.25 6.25 9.91421 6.25 9.5ZM10 12.75C9.58579 12.75 9.25 13.0858 9.25 13.5C9.25 13.9142 9.58579 14.25 10 14.25H13C13.4142 14.25 13.75 13.9142 13.75 13.5C13.75 13.0858 13.4142 12.75 13 12.75H10ZM9.25 17.5C9.25 17.0858 9.58579 16.75 10 16.75H13C13.4142 16.75 13.75 17.0858 13.75 17.5C13.75 17.9142 13.4142 18.25 13 18.25H10C9.58579 18.25 9.25 17.9142 9.25 17.5ZM8 13.5C8 14.0523 7.55229 14.5 7 14.5C6.44772 14.5 6 14.0523 6 13.5C6 12.9477 6.44772 12.5 7 12.5C7.55229 12.5 8 12.9477 8 13.5ZM7 18.5C7.55229 18.5 8 18.0523 8 17.5C8 16.9477 7.55229 16.5 7 16.5C6.44772 16.5 6 16.9477 6 17.5C6 18.0523 6.44772 18.5 7 18.5Z" fill="#818294"/>
</svg>
