<svg width="22" height="22" viewBox="0 0 22 22" fill="none" xmlns="http://www.w3.org/2000/svg">
<path fill-rule="evenodd" clip-rule="evenodd" d="M3.5 10.0833C3.5 6.44746 6.44746 3.5 10.0833 3.5C13.7192 3.5 16.6667 6.44746 16.6667 10.0833C16.6667 13.7192 13.7192 16.6667 10.0833 16.6667C6.44746 16.6667 3.5 13.7192 3.5 10.0833ZM10.0833 2C5.61903 2 2 5.61903 2 10.0833C2 14.5476 5.61903 18.1667 10.0833 18.1667C12.0454 18.1667 13.8442 17.4676 15.2443 16.3049L17.803 18.8637C18.0959 19.1566 18.5708 19.1566 18.8637 18.8637C19.1566 18.5708 19.1566 18.0959 18.8637 17.803L16.3049 15.2443C17.4676 13.8442 18.1667 12.0454 18.1667 10.0833C18.1667 5.61903 14.5476 2 10.0833 2Z" fill="#1B1C1E"/>
</svg>
