<svg width="20" height="21" viewBox="0 0 20 21" fill="none" xmlns="http://www.w3.org/2000/svg">
<path fill-rule="evenodd" clip-rule="evenodd" d="M3.25 9.66667C3.25 6.39898 5.89898 3.75 9.16667 3.75C12.4344 3.75 15.0833 6.39898 15.0833 9.66667C15.0833 12.9344 12.4344 15.5833 9.16667 15.5833C5.89898 15.5833 3.25 12.9344 3.25 9.66667ZM9.16667 2.25C5.07055 2.25 1.75 5.57055 1.75 9.66667C1.75 13.7628 5.07055 17.0833 9.16667 17.0833C10.9446 17.0833 12.5764 16.4577 13.854 15.4147L16.1363 17.697C16.4292 17.9899 16.9041 17.9899 17.197 17.697C17.4899 17.4041 17.4899 16.9292 17.197 16.6363L14.9147 14.354C15.9577 13.0764 16.5833 11.4446 16.5833 9.66667C16.5833 5.57055 13.2628 2.25 9.16667 2.25Z" fill="#818294"/>
</svg>
