<svg width="24" height="24" viewBox="0 0 24 24" fill="none" xmlns="http://www.w3.org/2000/svg">
<path fill-rule="evenodd" clip-rule="evenodd" d="M20.5305 2.46969C20.7314 2.67057 20.8016 2.9677 20.7117 3.2372L14.7115 21.2372C14.6155 21.525 14.3557 21.7266 14.0531 21.7481C13.7505 21.7696 13.4648 21.6068 13.3291 21.3354L9.44093 13.559L1.66454 9.67084C1.39322 9.53518 1.23033 9.24944 1.25184 8.94685C1.27334 8.64427 1.475 8.38443 1.76278 8.28851L19.763 2.28851C20.0325 2.19867 20.3297 2.26882 20.5305 2.46969ZM10.9125 13.1481L13.861 19.0451L18.8143 4.18587L3.95487 9.13896L9.85187 12.0875L12.9698 8.96971C13.2627 8.67683 13.7376 8.67684 14.0305 8.96974C14.3233 9.26264 14.3233 9.73752 14.0304 10.0304L10.9125 13.1481Z" fill="#818294"/>
</svg>
