<svg width="25" height="24" viewBox="0 0 25 24" fill="none" xmlns="http://www.w3.org/2000/svg">
<path fill-rule="evenodd" clip-rule="evenodd" d="M2.95776 3.48188C3.17647 3.25301 3.51533 3.1861 3.80461 3.31467L21.8046 11.3147C22.0755 11.435 22.25 11.7036 22.25 12C22.25 12.2964 22.0755 12.565 21.8046 12.6854L3.80461 20.6854C3.51533 20.814 3.17647 20.747 2.95776 20.5182C2.73906 20.2893 2.68761 19.9478 2.82918 19.6646L6.66148 12L2.82918 4.33544C2.68761 4.05229 2.73906 3.71075 2.95776 3.48188ZM7.96353 12.75L5.10572 18.4656L19.6533 12L5.10572 5.53442L7.96353 11.25H12.5C12.9142 11.25 13.25 11.5858 13.25 12C13.25 12.4142 12.9142 12.75 12.5 12.75H7.96353Z" fill="white"/>
</svg>
