<svg width="22" height="22" viewBox="0 0 22 22" fill="none" xmlns="http://www.w3.org/2000/svg">
<path fill-rule="evenodd" clip-rule="evenodd" d="M8.99985 4.58333C8.99985 3.47876 9.89528 2.58333 10.9999 2.58333C12.1044 2.58333 12.9999 3.47876 12.9999 4.58333V5.6667C12.9124 5.66666 12.8236 5.66666 12.7337 5.66666H12.7337L12.6814 5.66667H9.3183L9.266 5.66666H9.26599C9.17606 5.66666 9.08735 5.66666 8.99985 5.6667V4.58333ZM7.49985 7.18147V8.25C7.49985 8.66421 7.83564 9 8.24985 9C8.66407 9 8.99985 8.66421 8.99985 8.25V7.16674C9.10337 7.16668 9.20948 7.16667 9.3183 7.16667H12.6814C12.7902 7.16667 12.8963 7.16668 12.9999 7.16674V8.25C12.9999 8.66421 13.3356 9 13.7499 9C14.1641 9 14.4999 8.66421 14.4999 8.25V7.18147C14.9434 7.194 15.3201 7.21713 15.6484 7.25982C16.3322 7.34872 16.7034 7.51162 16.9759 7.76318C17.2485 8.01475 17.4406 8.3717 17.584 9.0461C17.7319 9.74155 17.8077 10.6664 17.9145 11.9961L17.9815 12.8295C18.1051 14.3681 18.1899 15.4444 18.1432 16.2594C18.0976 17.0529 17.9319 17.4733 17.6526 17.7759C17.3733 18.0786 16.9675 18.2775 16.1803 18.3864C15.3716 18.4983 14.2919 18.5 12.7484 18.5H9.25134C7.70779 18.5 6.62815 18.4983 5.81944 18.3864C5.03217 18.2775 4.62639 18.0786 4.34711 17.7759C4.06784 17.4733 3.90208 17.0529 3.85655 16.2594C3.80978 15.4444 3.89457 14.3681 4.01821 12.8295L4.08517 11.9961C4.19203 10.6664 4.26783 9.74155 4.41569 9.0461C4.55907 8.3717 4.75117 8.01475 5.02376 7.76318C5.29635 7.51162 5.66754 7.34872 6.35126 7.25982C6.67962 7.21713 7.05631 7.194 7.49985 7.18147ZM7.49985 5.68093V4.58333C7.49985 2.65033 9.06686 1.08333 10.9999 1.08333C12.9329 1.08333 14.4999 2.65034 14.4999 4.58333V5.68093C15 5.69448 15.4461 5.72089 15.8419 5.77235C16.6874 5.88228 17.404 6.11707 17.9932 6.66086C18.5825 7.20466 18.8739 7.90017 19.0512 8.73417C19.2217 9.53613 19.3039 10.5586 19.4055 11.8238L19.4097 11.876L19.4767 12.7093L19.4813 12.7664L19.4813 12.7665C19.5993 14.2345 19.6941 15.4146 19.6407 16.3454C19.5854 17.3098 19.3666 18.1304 18.7549 18.7932C18.1432 19.456 17.3428 19.7398 16.3859 19.8722C15.4623 20 14.2785 20 12.8057 20H12.7484H9.25134H9.19398C7.72123 20 6.53739 20 5.61384 19.8722C4.6569 19.7398 3.85647 19.456 3.24479 18.7932C2.63312 18.1304 2.41435 17.3098 2.35901 16.3454C2.3056 15.4146 2.40044 14.2345 2.51843 12.7665L2.52303 12.7093L2.58999 11.876L2.59418 11.8239C2.69583 10.5586 2.77798 9.53614 2.94848 8.73417C3.12579 7.90017 3.41722 7.20466 4.00647 6.66086C4.59571 6.11707 5.31233 5.88228 6.15785 5.77235C6.5536 5.72089 6.99975 5.69448 7.49985 5.68093Z" fill="#1B1C1E"/>
</svg>
