<svg width="21" height="20" viewBox="0 0 21 20" fill="none" xmlns="http://www.w3.org/2000/svg">
<path fill-rule="evenodd" clip-rule="evenodd" d="M1.83321 1.50005L2.24987 1.5L2.24999 2.5L2.25002 1.5C3.87972 1.50004 5.33962 2.49424 5.94079 4.00005H15.1947L15.2278 4.00005H15.2278C15.7588 4.00004 16.2059 4.00003 16.5671 4.02381C16.9369 4.04815 17.3126 4.10142 17.6672 4.25926C18.6904 4.71469 19.3748 5.7022 19.4419 6.82021C19.4652 7.20768 19.3832 7.57816 19.2761 7.93291C19.1716 8.27951 19.0145 8.69817 18.8281 9.19542L18.8165 9.2263L18.7731 9.34219C18.5117 10.0403 18.3155 10.5643 18.0056 10.9967C17.4676 11.7475 16.6863 12.289 15.7944 12.5291C15.2807 12.6675 14.7211 12.6672 13.9757 12.6668H13.9757L13.852 12.6667H11.8692L11.8139 12.6667H11.8138H11.8138C11.7244 12.6667 11.6364 12.6667 11.5497 12.6667H6C5.63181 12.6667 5.33333 12.9651 5.33333 13.3333C5.33333 13.7015 5.6318 14 6 14L8.49999 14H15.1667L18.5 14C19.0523 14 19.5 14.4477 19.5 15C19.5 15.5523 19.0523 16 18.5 16H17.7493C17.8042 16.2131 17.8333 16.4365 17.8333 16.6667C17.8333 18.1394 16.6394 19.3333 15.1667 19.3333C13.6939 19.3333 12.5 18.1394 12.5 16.6667C12.5 16.4365 12.5292 16.2131 12.584 16H11.0826C11.1375 16.2131 11.1667 16.4365 11.1667 16.6667C11.1667 18.1394 9.97275 19.3333 8.49999 19.3333C7.02724 19.3333 5.83333 18.1394 5.83333 16.6667C5.83333 16.436 5.86261 16.2122 5.91766 15.9987C4.483 15.9552 3.33333 14.7785 3.33333 13.3333C3.33333 11.8606 4.52724 10.6667 6 10.6667H6.36477C6.31216 10.5727 6.2616 10.4762 6.21258 10.3774C5.91709 9.78171 5.6406 9.02131 5.30959 8.11095L5.29067 8.05892L4.1055 4.7997C3.82178 4.01948 3.08031 3.50008 2.25012 3.5H2.25007H2.24997L1.83345 3.50005C1.28117 3.50012 0.833396 3.05246 0.833328 2.50017C0.833261 1.94789 1.28092 1.50012 1.83321 1.50005ZM12.6767 10.6667C12.6734 10.6667 12.67 10.6667 12.6667 10.6667H11.6398C10.7266 10.6662 10.094 10.6607 9.59828 10.6051C9.08718 10.5478 8.82156 10.4456 8.62055 10.3049C8.41954 10.1641 8.2328 9.94933 8.00424 9.48859C7.76446 9.00523 7.52511 8.35128 7.17026 7.37543L6.67012 6.00005H15.1947C15.7675 6.00005 16.1482 6.00056 16.4358 6.01949C16.7223 6.03835 16.8203 6.07148 16.8539 6.08645C17.195 6.23826 17.4231 6.56743 17.4455 6.94011C17.4477 6.97686 17.4443 7.08028 17.3614 7.35519C17.2781 7.63109 17.145 7.98768 16.9438 8.52405C16.6193 9.38955 16.5155 9.64262 16.38 9.83172C16.111 10.2071 15.7203 10.4778 15.2743 10.5979C15.0497 10.6584 14.7763 10.6667 13.852 10.6667H12.6767ZM8.49999 16C8.1318 16 7.83333 16.2985 7.83333 16.6667C7.83333 17.0349 8.1318 17.3333 8.49999 17.3333C8.86818 17.3333 9.16666 17.0349 9.16666 16.6667C9.16666 16.2985 8.86818 16 8.49999 16ZM15.1667 16C14.7985 16 14.5 16.2985 14.5 16.6667C14.5 17.0349 14.7985 17.3333 15.1667 17.3333C15.5349 17.3333 15.8333 17.0349 15.8333 16.6667C15.8333 16.2985 15.5349 16 15.1667 16Z" fill="#F5750C"/>
</svg>
