<svg width="19" height="18" viewBox="0 0 19 18" fill="none" xmlns="http://www.w3.org/2000/svg">
<path fill-rule="evenodd" clip-rule="evenodd" d="M8.00004 3.75C8.00004 2.92157 8.67161 2.25 9.50004 2.25C10.3285 2.25 11 2.92157 11 3.75V4.50018C10.8704 4.5 10.737 4.5 10.5998 4.5H10.5998L10.5612 4.5H8.43884L8.40024 4.5H8.40023C8.26306 4.5 8.12969 4.5 8.00004 4.50018V3.75ZM6.50004 6.0312V6.75C6.50004 7.16421 6.83582 7.5 7.25004 7.5C7.66425 7.5 8.00004 7.16421 8.00004 6.75V6.00025C8.13946 6.00002 8.28555 6 8.43884 6H10.5612C10.7145 6 10.8606 6.00002 11 6.00025V6.75C11 7.16421 11.3358 7.5 11.75 7.5C12.1643 7.5 12.5 7.16421 12.5 6.75V6.0312C12.5989 6.03734 12.6927 6.04469 12.7822 6.05348C13.305 6.10486 13.6033 6.2001 13.8309 6.34246C14.0686 6.49111 14.2763 6.68285 14.4435 6.90782C14.6037 7.12327 14.7225 7.41299 14.8156 7.92999C14.9109 8.4597 14.9672 9.14865 15.0468 10.1396C15.1388 11.2846 15.2022 12.0853 15.1871 12.7042C15.1724 13.3112 15.082 13.6511 14.9304 13.9047C14.7709 14.1714 14.558 14.4021 14.305 14.5824C14.0643 14.7539 13.7327 14.8712 13.1289 14.9345C12.5132 14.999 11.71 15 10.5612 15H8.43884C7.29007 15 6.4869 14.999 5.87117 14.9345C5.26733 14.8712 4.93574 14.7539 4.69507 14.5824C4.44207 14.4021 4.22914 14.1714 4.0697 13.9047C3.91803 13.6511 3.82767 13.3112 3.81293 12.7042C3.79791 12.0853 3.86128 11.2846 3.9533 10.1396C4.03292 9.14865 4.08913 8.4597 4.1845 7.92999C4.27759 7.41299 4.39642 7.12327 4.55655 6.90782C4.72376 6.68285 4.93153 6.49111 5.16916 6.34246C5.39675 6.2001 5.69505 6.10486 6.21785 6.05348C6.30734 6.04469 6.40117 6.03734 6.50004 6.0312ZM6.50004 4.52881V3.75C6.50004 2.09315 7.84318 0.75 9.50004 0.75C11.1569 0.75 12.5 2.09315 12.5 3.75V4.52881C12.6504 4.53693 12.7932 4.54733 12.9289 4.56067C13.5678 4.62345 14.124 4.75651 14.6264 5.07076C15.0225 5.31851 15.3687 5.63809 15.6474 6.01303C16.0009 6.48862 16.1781 7.03242 16.2918 7.66419C16.4018 8.27495 16.4631 9.03756 16.5389 9.98088L16.542 10.0194L16.5453 10.0615L16.5453 10.0616C16.6332 11.1547 16.7039 12.0338 16.6867 12.7406C16.669 13.4684 16.5585 14.1047 16.2178 14.6746C15.952 15.119 15.5972 15.5035 15.1755 15.804C14.6347 16.1893 14.0093 16.3504 13.2853 16.4263C12.5822 16.5 11.7002 16.5 10.6035 16.5H10.5612H8.43884H8.39659C7.29992 16.5 6.41792 16.5 5.71478 16.4263C4.99073 16.3504 4.36534 16.1893 3.82459 15.804C3.40292 15.5035 3.04805 15.119 2.78232 14.6746C2.44154 14.1047 2.33104 13.4684 2.31337 12.7406C2.29622 12.0338 2.36688 11.1547 2.45473 10.0615L2.45811 10.0194L2.46121 9.98093C2.537 9.03759 2.59827 8.27496 2.70824 7.66419C2.82199 7.03242 2.99918 6.48862 3.35266 6.01303C3.63133 5.63809 3.97762 5.31851 4.37368 5.07076C4.87606 4.75651 5.43231 4.62345 6.07115 4.56067C6.20687 4.54733 6.34972 4.53693 6.50004 4.52881Z" fill="white"/>
</svg>
