<svg width="20" height="20" viewBox="0 0 20 20" fill="none" xmlns="http://www.w3.org/2000/svg">
<path fill-rule="evenodd" clip-rule="evenodd" d="M9.97493 0.916504H9.99999H10.025H10.0251C10.8575 0.916501 11.5174 0.916498 12.0529 0.950016C12.5997 0.984244 13.0669 1.0555 13.5065 1.22095C14.7867 1.70278 15.797 2.71312 16.2789 3.99332C16.4443 4.43292 16.5156 4.90011 16.5498 5.44697C16.5833 5.98248 16.5833 6.64229 16.5833 7.4748V7.49984V12.4998V12.5249C16.5833 13.3574 16.5833 14.0172 16.5498 14.5527C16.5156 15.0996 16.4443 15.5668 16.2789 16.0064C15.797 17.2866 14.7867 18.2969 13.5065 18.7787C13.0669 18.9442 12.5997 19.0154 12.0529 19.0497C11.5173 19.0832 10.8575 19.0832 10.025 19.0832H9.99999H9.97495C9.14244 19.0832 8.48263 19.0832 7.94712 19.0497C7.40026 19.0154 6.93307 18.9442 6.49347 18.7787C5.21327 18.2969 4.20293 17.2866 3.7211 16.0064C3.55565 15.5668 3.4844 15.0996 3.45017 14.5527C3.41665 14.0172 3.41665 13.3574 3.41666 12.5249V12.5249V12.4998V7.49984V7.47478V7.47477C3.41665 6.64228 3.41665 5.98248 3.45017 5.44697C3.4844 4.90011 3.55565 4.43292 3.7211 3.99332C4.20293 2.71312 5.21327 1.70278 6.49347 1.22095C6.93307 1.0555 7.40026 0.984244 7.94712 0.950016C8.48263 0.916498 9.14243 0.916501 9.97492 0.916504H9.97493ZM8.04083 2.44709C7.56367 2.47695 7.26342 2.53389 7.02184 2.62481C6.14592 2.95448 5.45464 3.64577 5.12496 4.52169C5.03404 4.76327 4.9771 5.06352 4.94724 5.54067C4.917 6.02382 4.91666 6.63673 4.91666 7.49984V12.4998C4.91666 13.3629 4.917 13.9759 4.94724 14.459C4.9771 14.9362 5.03404 15.2364 5.12496 15.478C5.45464 16.3539 6.14592 17.0452 7.02184 17.3749C7.26342 17.4658 7.56367 17.5227 8.04083 17.5526C8.52397 17.5828 9.13688 17.5832 9.99999 17.5832C10.8631 17.5832 11.476 17.5828 11.9592 17.5526C12.4363 17.5227 12.7366 17.4658 12.9781 17.3749C13.8541 17.0452 14.5453 16.3539 14.875 15.478C14.9659 15.2364 15.0229 14.9362 15.0527 14.459C15.083 13.9759 15.0833 13.3629 15.0833 12.4998V7.49984C15.0833 6.63673 15.083 6.02382 15.0527 5.54067C15.0229 5.06352 14.9659 4.76327 14.875 4.52169C14.5453 3.64577 13.8541 2.95448 12.9781 2.62481C12.7366 2.53389 12.4363 2.47695 11.9592 2.44709C11.476 2.41685 10.8631 2.4165 9.99999 2.4165C9.13688 2.4165 8.52397 2.41685 8.04083 2.44709ZM7.58332 15.8332C7.58332 15.419 7.91911 15.0832 8.33332 15.0832H11.6667C12.0809 15.0832 12.4167 15.419 12.4167 15.8332C12.4167 16.2474 12.0809 16.5832 11.6667 16.5832H8.33332C7.91911 16.5832 7.58332 16.2474 7.58332 15.8332ZM9.99999 4.99984C10.4602 4.99984 10.8333 4.62674 10.8333 4.1665C10.8333 3.70627 10.4602 3.33317 9.99999 3.33317C9.53975 3.33317 9.16666 3.70627 9.16666 4.1665C9.16666 4.62674 9.53975 4.99984 9.99999 4.99984Z" fill="#818294"/>
</svg>
