<svg width="20" height="20" viewBox="0 0 20 20" fill="none" xmlns="http://www.w3.org/2000/svg">
<path fill-rule="evenodd" clip-rule="evenodd" d="M9.97496 0.916748H10H10.0251H10.0251C10.8576 0.916745 11.5174 0.916742 12.0529 0.95026C12.5997 0.984488 13.0669 1.05574 13.5065 1.22119C14.7867 1.70303 15.7971 2.71336 16.2789 3.99356C16.4444 4.43316 16.5156 4.90036 16.5498 5.44721C16.5834 5.98272 16.5834 6.64253 16.5834 7.47504V7.50008V12.5001V12.5251C16.5834 13.3576 16.5834 14.0174 16.5498 14.5529C16.5156 15.0998 16.4444 15.567 16.2789 16.0066C15.7971 17.2868 14.7867 18.2971 13.5065 18.779C13.0669 18.9444 12.5997 19.0157 12.0529 19.0499C11.5174 19.0834 10.8576 19.0834 10.0251 19.0834H10H9.97498C9.14247 19.0834 8.48266 19.0834 7.94715 19.0499C7.4003 19.0157 6.9331 18.9444 6.4935 18.779C5.2133 18.2971 4.20297 17.2868 3.72113 16.0066C3.55568 15.567 3.48443 15.0998 3.4502 14.5529C3.41668 14.0174 3.41668 13.3576 3.41669 12.5252V12.5251V12.5001V7.50008V7.47503V7.47502C3.41668 6.64252 3.41668 5.98272 3.4502 5.44722C3.48443 4.90036 3.55568 4.43316 3.72113 3.99356C4.20297 2.71336 5.2133 1.70303 6.4935 1.22119C6.9331 1.05574 7.4003 0.984488 7.94715 0.95026C8.48266 0.916742 9.14246 0.916745 9.97495 0.916748H9.97496ZM8.04086 2.44733C7.5637 2.4772 7.26345 2.53413 7.02188 2.62505C6.14595 2.95473 5.45467 3.64601 5.12499 4.52194C5.03407 4.76351 4.97713 5.06376 4.94727 5.54092C4.91703 6.02406 4.91669 6.63697 4.91669 7.50008V12.5001C4.91669 13.3632 4.91703 13.9761 4.94727 14.4592C4.97713 14.9364 5.03407 15.2367 5.12499 15.4782C5.45467 16.3542 6.14595 17.0454 7.02188 17.3751C7.26345 17.466 7.5637 17.523 8.04086 17.5528C8.524 17.5831 9.13691 17.5834 10 17.5834C10.8631 17.5834 11.476 17.5831 11.9592 17.5528C12.4363 17.523 12.7366 17.466 12.9782 17.3751C13.8541 17.0454 14.5454 16.3542 14.875 15.4782C14.966 15.2367 15.0229 14.9364 15.0528 14.4592C15.083 13.9761 15.0834 13.3632 15.0834 12.5001V7.50008C15.0834 6.63697 15.083 6.02406 15.0528 5.54092C15.0229 5.06376 14.966 4.76351 14.875 4.52194C14.5454 3.64601 13.8541 2.95473 12.9782 2.62505C12.7366 2.53413 12.4363 2.4772 11.9592 2.44733C11.476 2.41709 10.8631 2.41675 10 2.41675C9.13691 2.41675 8.524 2.41709 8.04086 2.44733ZM7.58335 15.8334C7.58335 15.4192 7.91914 15.0834 8.33335 15.0834H11.6667C12.0809 15.0834 12.4167 15.4192 12.4167 15.8334C12.4167 16.2476 12.0809 16.5834 11.6667 16.5834H8.33335C7.91914 16.5834 7.58335 16.2476 7.58335 15.8334ZM10 5.00008C10.4603 5.00008 10.8334 4.62699 10.8334 4.16675C10.8334 3.70651 10.4603 3.33341 10 3.33341C9.53978 3.33341 9.16669 3.70651 9.16669 4.16675C9.16669 4.62699 9.53978 5.00008 10 5.00008Z" fill="#818294"/>
</svg>
