<svg width="16" height="16" viewBox="0 0 16 16" fill="none" xmlns="http://www.w3.org/2000/svg">
<path fill-rule="evenodd" clip-rule="evenodd" d="M6.93748 1.5L6.96101 1.5H9.03899L9.06252 1.5C9.27412 1.49998 9.47282 1.49995 9.63932 1.51896C9.82475 1.54013 10.0197 1.58908 10.2017 1.72022C10.3836 1.85137 10.4917 2.02083 10.5704 2.19006C10.6411 2.34199 10.7039 2.53048 10.7708 2.73122L10.7708 2.73124L10.7782 2.75359L11.027 3.5H12.6667H14C14.2761 3.5 14.5 3.72386 14.5 4C14.5 4.27615 14.2761 4.5 14 4.5H13.1344L12.7478 10.2993L12.7455 10.3344C12.6885 11.1896 12.6424 11.8803 12.5345 12.4224C12.4222 12.9859 12.2313 13.4566 11.8369 13.8256C11.4425 14.1946 10.9601 14.3538 10.3903 14.4283C9.84231 14.5 9.15002 14.5 8.29298 14.5H8.29296H8.25779H7.74221H7.70704H7.70702C6.84998 14.5 6.15769 14.5 5.60968 14.4283C5.03991 14.3538 4.55754 14.1946 4.16315 13.8256C3.76875 13.4566 3.5778 12.9859 3.46554 12.4224C3.35756 11.8803 3.31152 11.1896 3.25452 10.3344L3.25218 10.2993L2.86556 4.5H2C1.72386 4.5 1.5 4.27615 1.5 4C1.5 3.72386 1.72386 3.5 2 3.5H3.33333H4.97295L5.22176 2.75359L5.2292 2.73126C5.29609 2.53051 5.3589 2.342 5.42958 2.19006C5.50831 2.02083 5.61639 1.85137 5.79834 1.72022C5.9803 1.58908 6.17525 1.54013 6.36068 1.51896C6.52718 1.49995 6.72588 1.49998 6.93748 1.5ZM6.02705 3.5H9.97295L9.82956 3.06981C9.75258 2.83888 9.70741 2.70575 9.66372 2.61185C9.64402 2.56949 9.63048 2.54855 9.62323 2.53883C9.61987 2.53433 9.61799 2.53242 9.61758 2.53201L9.61695 2.53146L9.61622 2.53103C9.61571 2.53078 9.6133 2.52959 9.60797 2.52783C9.59646 2.52403 9.57231 2.51781 9.52589 2.51251C9.42299 2.50076 9.28241 2.5 9.03899 2.5H6.96101C6.71759 2.5 6.57701 2.50076 6.47411 2.51251C6.42769 2.51781 6.40354 2.52403 6.39203 2.52783C6.3867 2.52959 6.38429 2.53078 6.38378 2.53103L6.38305 2.53146L6.38242 2.53201C6.38201 2.53242 6.38013 2.53433 6.37677 2.53883C6.36952 2.54855 6.35598 2.56949 6.33628 2.61185C6.29259 2.70575 6.24742 2.83888 6.17044 3.06981L6.02705 3.5ZM3.86778 4.5L4.24996 10.2328C4.30987 11.1314 4.35255 11.7566 4.44627 12.227C4.53717 12.6833 4.66405 12.9248 4.84633 13.0954C5.02861 13.2659 5.27804 13.3764 5.73938 13.4368C6.21498 13.499 6.84165 13.5 7.74221 13.5H8.25779C9.15835 13.5 9.78502 13.499 10.2606 13.4368C10.722 13.3764 10.9714 13.2659 11.1537 13.0954C11.3359 12.9248 11.4628 12.6833 11.5537 12.227C11.6474 11.7566 11.6901 11.1314 11.75 10.2328L12.1322 4.5H10.6667H5.33333H3.86778ZM6.66667 6.16667C6.94281 6.16667 7.16667 6.39053 7.16667 6.66667V11.3333C7.16667 11.6095 6.94281 11.8333 6.66667 11.8333C6.39052 11.8333 6.16667 11.6095 6.16667 11.3333V6.66667C6.16667 6.39053 6.39052 6.16667 6.66667 6.16667ZM9.83333 6.66667C9.83333 6.39053 9.60948 6.16667 9.33333 6.16667C9.05719 6.16667 8.83333 6.39053 8.83333 6.66667V9.33334C8.83333 9.60948 9.05719 9.83334 9.33333 9.83334C9.60948 9.83334 9.83333 9.60948 9.83333 9.33334V6.66667Z" fill="#EB5757"/>
</svg>
