<svg width="19" height="19" viewBox="0 0 19 19" fill="none" xmlns="http://www.w3.org/2000/svg">
<path fill-rule="evenodd" clip-rule="evenodd" d="M8.70817 1.625C8.29396 1.625 7.95817 1.96079 7.95817 2.375V4.79167H3.1665C2.90306 4.79167 2.65893 4.92989 2.52338 5.15579L0.148384 9.11413C0.0784473 9.23069 0.0415039 9.36407 0.0415039 9.5V14.25C0.0415039 14.6642 0.37729 15 0.791504 15H2.43927C2.61291 16.34 3.75842 17.375 5.14567 17.375C6.53292 17.375 7.67843 16.34 7.85207 15H10.3559C10.5296 16.34 11.6751 17.375 13.0623 17.375C14.4496 17.375 15.5951 16.34 15.7687 15H18.2082C18.6224 15 18.9582 14.6642 18.9582 14.25V2.375C18.9582 1.96079 18.6224 1.625 18.2082 1.625H8.70817ZM7.95817 6.33333V6.29167H3.59115L2.11615 8.75H7.95817V6.33454C7.95817 6.33414 7.95817 6.33374 7.95817 6.33333ZM9.45817 6.33213C9.45817 6.33253 9.45817 6.33293 9.45817 6.33333L9.45817 9.5C9.45817 9.91421 9.12238 10.25 8.70817 10.25H1.5415V13.5H2.66797C3.10103 12.5651 4.04762 11.9167 5.14567 11.9167C6.24372 11.9167 7.19031 12.5651 7.62337 13.5H10.5846C11.0177 12.5651 11.9643 11.9167 13.0623 11.9167C14.1604 11.9167 15.107 12.5651 15.54 13.5H17.4582V3.125H9.45817V5.54167V6.33213ZM5.14567 13.4167C4.46682 13.4167 3.9165 13.967 3.9165 14.6458C3.9165 15.3247 4.46682 15.875 5.14567 15.875C5.82452 15.875 6.37484 15.3247 6.37484 14.6458C6.37484 13.967 5.82452 13.4167 5.14567 13.4167ZM13.0623 13.4167C12.3835 13.4167 11.8332 13.967 11.8332 14.6458C11.8332 15.3247 12.3835 15.875 13.0623 15.875C13.7412 15.875 14.2915 15.3247 14.2915 14.6458C14.2915 13.967 13.7412 13.4167 13.0623 13.4167Z" fill="#F5750C"/>
</svg>
