<svg width="19" height="19" viewBox="0 0 19 19" fill="none" xmlns="http://www.w3.org/2000/svg">
<path fill-rule="evenodd" clip-rule="evenodd" d="M8.70829 1.625C8.29408 1.625 7.95829 1.96079 7.95829 2.375V4.79167H3.16663C2.90318 4.79167 2.65905 4.92989 2.52351 5.15579L0.148506 9.11413C0.0785694 9.23069 0.041626 9.36407 0.041626 9.5V14.25C0.041626 14.6642 0.377412 15 0.791626 15H2.4394C2.61303 16.34 3.75854 17.375 5.14579 17.375C6.53305 17.375 7.67855 16.34 7.85219 15H10.3561C10.5297 16.34 11.6752 17.375 13.0625 17.375C14.4497 17.375 15.5952 16.34 15.7689 15H18.2083C18.6225 15 18.9583 14.6642 18.9583 14.25V2.375C18.9583 1.96079 18.6225 1.625 18.2083 1.625H8.70829ZM7.95829 6.33333V6.29167H3.59127L2.11627 8.75H7.95829V6.33454C7.95829 6.33414 7.95829 6.33374 7.95829 6.33333ZM9.45829 6.33213C9.45829 6.33253 9.45829 6.33293 9.45829 6.33333L9.45829 9.5C9.45829 9.91421 9.12251 10.25 8.70829 10.25H1.54163V13.5H2.66809C3.10115 12.5651 4.04774 11.9167 5.14579 11.9167C6.24384 11.9167 7.19043 12.5651 7.62349 13.5H10.5848C11.0178 12.5651 11.9644 11.9167 13.0625 11.9167C14.1605 11.9167 15.1071 12.5651 15.5402 13.5H17.4583V3.125H9.45829V5.54167V6.33213ZM5.14579 13.4167C4.46694 13.4167 3.91663 13.967 3.91663 14.6458C3.91663 15.3247 4.46694 15.875 5.14579 15.875C5.82464 15.875 6.37496 15.3247 6.37496 14.6458C6.37496 13.967 5.82464 13.4167 5.14579 13.4167ZM13.0625 13.4167C12.3836 13.4167 11.8333 13.967 11.8333 14.6458C11.8333 15.3247 12.3836 15.875 13.0625 15.875C13.7413 15.875 14.2916 15.3247 14.2916 14.6458C14.2916 13.967 13.7413 13.4167 13.0625 13.4167Z" fill="#1C6BB9"/>
</svg>
