<svg width="24" height="25" viewBox="0 0 24 25" fill="none" xmlns="http://www.w3.org/2000/svg">
<path fill-rule="evenodd" clip-rule="evenodd" d="M15.0001 2.75H14.9481C14.0496 2.74997 13.3004 2.74995 12.7056 2.82991C12.0778 2.91432 11.511 3.09999 11.0555 3.55546C10.6001 4.01093 10.4144 4.57773 10.33 5.20552C10.2717 5.63899 10.2559 6.15449 10.2516 6.75H6.26483L6.23053 6.75H6.23052H6.23052C5.70666 6.74998 5.26089 6.74997 4.89051 6.78597C4.49589 6.82432 4.12985 6.90747 3.77753 7.10695C3.42521 7.30643 3.16558 7.57753 2.92967 7.89618C2.70824 8.19525 2.4789 8.57751 2.20939 9.02673L2.20939 9.02674L2.19174 9.05615L0.926978 11.1641L0.885437 11.2332C0.642291 11.6379 0.45023 11.9575 0.349853 12.3199C0.249477 12.6823 0.249723 13.0552 0.250034 13.5273L0.250069 13.6079V15.5L0.250069 15.5253C0.250062 15.9697 0.250056 16.3408 0.270839 16.6454C0.292475 16.9625 0.339117 17.262 0.459401 17.5524C0.738509 18.2262 1.27386 18.7616 1.94769 19.0407C2.23808 19.161 2.5376 19.2076 2.8547 19.2292C2.97843 19.2377 3.11311 19.2427 3.25921 19.2457C3.38478 20.9258 4.78779 22.25 6.50007 22.25C8.21088 22.25 9.61294 20.9281 9.7406 19.25H13.2595C13.3872 20.9281 14.7893 22.25 16.5001 22.25C18.2114 22.25 19.6138 20.9273 19.7407 19.2485C20.3402 19.2443 20.8588 19.2287 21.2945 19.1701C21.9223 19.0857 22.4891 18.9 22.9446 18.4445C23.4001 17.9891 23.5858 17.4223 23.6702 16.7945C23.7501 16.1997 23.7501 15.4505 23.7501 14.5521V14.5521V14.552V14.552L23.7501 14.5V7.5L23.7501 7.44801V7.44798V7.44794V7.44791C23.7501 6.54947 23.7501 5.80028 23.6702 5.20552C23.5858 4.57773 23.4001 4.01093 22.9446 3.55546C22.4891 3.09999 21.9223 2.91432 21.2945 2.82991C20.6998 2.74995 19.9505 2.74997 19.0521 2.75H19.0001H15.0001ZM10.2501 8.5V8.25H6.26483C5.69738 8.25 5.3249 8.25082 5.03562 8.27893C4.76251 8.30548 4.62276 8.35213 4.51658 8.41225C4.41039 8.47237 4.29849 8.56821 4.13521 8.78873C3.96227 9.02232 3.76993 9.34131 3.47798 9.82789L2.32471 11.75H7.00007C7.96408 11.75 8.61164 11.7484 9.09468 11.6835C9.55614 11.6214 9.75364 11.5142 9.88395 11.3839C10.0143 11.2536 10.1215 11.0561 10.1835 10.5946C10.2485 10.1116 10.2501 9.46401 10.2501 8.5ZM11.7501 8.5L11.7501 8.552V8.55203C11.7501 9.4505 11.7501 10.1997 11.6702 10.7945C11.5858 11.4223 11.4001 11.9891 10.9446 12.4445C10.4891 12.9 9.92234 13.0857 9.29455 13.1701C8.69977 13.2501 7.95055 13.25 7.05206 13.25L7.00007 13.25H1.75154C1.75043 13.3479 1.75007 13.4652 1.75007 13.6079V15.5C1.75007 15.9762 1.75048 16.2958 1.76736 16.5433C1.78378 16.784 1.81326 16.9012 1.84522 16.9784C1.97209 17.2846 2.21543 17.528 2.52172 17.6549C2.59887 17.6868 2.71608 17.7163 2.95681 17.7327C3.10558 17.7429 3.28041 17.7471 3.49966 17.7488C3.98973 16.575 5.14856 15.75 6.50007 15.75C7.85204 15.75 9.01121 16.5755 9.50099 17.75H13.4992C13.9889 16.5755 15.1481 15.75 16.5001 15.75C17.8518 15.75 19.0108 16.5753 19.5008 17.7495C20.1967 17.7473 20.7005 17.7365 21.0947 17.6835C21.5561 17.6214 21.7536 17.5142 21.884 17.3839C22.0143 17.2536 22.1215 17.0561 22.1835 16.5946C22.2485 16.1116 22.2501 15.464 22.2501 14.5V7.5C22.2501 6.53599 22.2485 5.88843 22.1835 5.40539C22.1215 4.94393 22.0143 4.74644 21.884 4.61612C21.7536 4.4858 21.5561 4.37858 21.0947 4.31654C20.6116 4.25159 19.9641 4.25 19.0001 4.25H15.0001C14.0361 4.25 13.3885 4.25159 12.9055 4.31654C12.444 4.37858 12.2465 4.4858 12.1162 4.61612C11.9859 4.74644 11.8786 4.94393 11.8166 5.40539C11.7517 5.88843 11.7501 6.53599 11.7501 7.5V8.5ZM6.50007 17.25C5.53357 17.25 4.75007 18.0335 4.75007 19C4.75007 19.9665 5.53357 20.75 6.50007 20.75C7.46657 20.75 8.25007 19.9665 8.25007 19C8.25007 18.0335 7.46657 17.25 6.50007 17.25ZM16.5001 17.25C15.5336 17.25 14.7501 18.0335 14.7501 19C14.7501 19.9665 15.5336 20.75 16.5001 20.75C17.4666 20.75 18.2501 19.9665 18.2501 19C18.2501 18.0335 17.4666 17.25 16.5001 17.25Z" fill="#818294"/>
</svg>
