<svg width="20" height="20" viewBox="0 0 20 20" fill="none" xmlns="http://www.w3.org/2000/svg">
<path fill-rule="evenodd" clip-rule="evenodd" d="M4.33332 5.83333C4.33332 4.54467 5.37799 3.5 6.66666 3.5C7.95532 3.5 8.99999 4.54467 8.99999 5.83333C8.99999 7.122 7.95532 8.16667 6.66666 8.16667C5.37799 8.16667 4.33332 7.122 4.33332 5.83333ZM6.66666 1.5C4.27342 1.5 2.33332 3.4401 2.33332 5.83333C2.33332 8.22657 4.27342 10.1667 6.66666 10.1667C9.05989 10.1667 11 8.22657 11 5.83333C11 3.4401 9.05989 1.5 6.66666 1.5ZM11.6667 1.5C11.1144 1.5 10.6667 1.94772 10.6667 2.5C10.6667 3.05228 11.1144 3.5 11.6667 3.5C12.9553 3.5 14 4.54467 14 5.83333C14 7.122 12.9553 8.16667 11.6667 8.16667C11.1144 8.16667 10.6667 8.61438 10.6667 9.16667C10.6667 9.71895 11.1144 10.1667 11.6667 10.1667C14.0599 10.1667 16 8.22657 16 5.83333C16 3.4401 14.0599 1.5 11.6667 1.5ZM4.99999 13.5C3.71133 13.5 2.66666 14.5447 2.66666 15.8333C2.66666 16.2015 2.96513 16.5 3.33332 16.5H9.99999C10.3682 16.5 10.6667 16.2015 10.6667 15.8333C10.6667 14.5447 9.62199 13.5 8.33332 13.5H4.99999ZM0.666656 15.8333C0.666656 13.4401 2.60676 11.5 4.99999 11.5H8.33332C10.7266 11.5 12.6667 13.4401 12.6667 15.8333C12.6667 17.3061 11.4727 18.5 9.99999 18.5H3.33332C1.86056 18.5 0.666656 17.3061 0.666656 15.8333ZM13.3333 11.5C12.781 11.5 12.3333 11.9477 12.3333 12.5C12.3333 13.0523 12.781 13.5 13.3333 13.5H15C16.2887 13.5 17.3333 14.5447 17.3333 15.8333C17.3333 16.2015 17.0348 16.5 16.6667 16.5H13.3333C12.781 16.5 12.3333 16.9477 12.3333 17.5C12.3333 18.0523 12.781 18.5 13.3333 18.5H16.6667C18.1394 18.5 19.3333 17.3061 19.3333 15.8333C19.3333 13.4401 17.3932 11.5 15 11.5H13.3333Z" fill="#F5750C"/>
</svg>
