<svg width="20" height="20" viewBox="0 0 20 20" fill="none" xmlns="http://www.w3.org/2000/svg">
<path fill-rule="evenodd" clip-rule="evenodd" d="M9.99996 2.41675C5.8118 2.41675 2.41663 5.81192 2.41663 10.0001C2.41663 14.1882 5.8118 17.5834 9.99996 17.5834C14.1881 17.5834 17.5833 14.1882 17.5833 10.0001C17.5833 5.81192 14.1881 2.41675 9.99996 2.41675ZM0.916626 10.0001C0.916626 4.9835 4.98337 0.916748 9.99996 0.916748C15.0165 0.916748 19.0833 4.9835 19.0833 10.0001C19.0833 15.0167 15.0165 19.0834 9.99996 19.0834C4.98337 19.0834 0.916626 15.0167 0.916626 10.0001ZM8.88885 11.5834C8.07576 11.5834 7.41663 12.2426 7.41663 13.0556C7.41663 13.2551 7.5783 13.4167 7.77774 13.4167H12.2222C12.4216 13.4167 12.5833 13.2551 12.5833 13.0556C12.5833 12.2425 11.9242 11.5834 11.1111 11.5834H8.88885ZM5.91663 13.0556C5.91663 11.4141 7.24734 10.0834 8.88885 10.0834H11.1111C12.7526 10.0834 14.0833 11.4141 14.0833 13.0556C14.0833 14.0835 13.25 14.9167 12.2222 14.9167H7.77774C6.74987 14.9167 5.91663 14.0835 5.91663 13.0556ZM9.08329 6.66675C9.08329 6.16049 9.4937 5.75008 9.99996 5.75008C10.5062 5.75008 10.9166 6.16049 10.9166 6.66675C10.9166 7.17301 10.5062 7.58341 9.99996 7.58341C9.4937 7.58341 9.08329 7.17301 9.08329 6.66675ZM9.99996 4.25008C8.66527 4.25008 7.58329 5.33206 7.58329 6.66675C7.58329 8.00144 8.66527 9.08341 9.99996 9.08341C11.3346 9.08341 12.4166 8.00144 12.4166 6.66675C12.4166 5.33206 11.3346 4.25008 9.99996 4.25008Z" fill="#818294"/>
</svg>
