<svg width="20" height="20" viewBox="0 0 20 20" fill="none" xmlns="http://www.w3.org/2000/svg">
<path fill-rule="evenodd" clip-rule="evenodd" d="M10 2.4165C5.81186 2.4165 2.41669 5.81168 2.41669 9.99984C2.41669 14.188 5.81186 17.5832 10 17.5832C14.1882 17.5832 17.5834 14.188 17.5834 9.99984C17.5834 5.81168 14.1882 2.4165 10 2.4165ZM0.916687 9.99984C0.916687 4.98325 4.98343 0.916504 10 0.916504C15.0166 0.916504 19.0834 4.98325 19.0834 9.99984C19.0834 15.0164 15.0166 19.0832 10 19.0832C4.98343 19.0832 0.916687 15.0164 0.916687 9.99984ZM8.88891 11.5832C8.07582 11.5832 7.41669 12.2423 7.41669 13.0554C7.41669 13.2548 7.57836 13.4165 7.7778 13.4165H12.2222C12.4217 13.4165 12.5834 13.2548 12.5834 13.0554C12.5834 12.2423 11.9242 11.5832 11.1111 11.5832H8.88891ZM5.91669 13.0554C5.91669 11.4139 7.2474 10.0832 8.88891 10.0832H11.1111C12.7526 10.0832 14.0834 11.4139 14.0834 13.0554C14.0834 14.0833 13.2501 14.9165 12.2222 14.9165H7.7778C6.74994 14.9165 5.91669 14.0833 5.91669 13.0554ZM9.08335 6.6665C9.08335 6.16024 9.49376 5.74984 10 5.74984C10.5063 5.74984 10.9167 6.16024 10.9167 6.6665C10.9167 7.17276 10.5063 7.58317 10 7.58317C9.49376 7.58317 9.08335 7.17276 9.08335 6.6665ZM10 4.24984C8.66533 4.24984 7.58335 5.33182 7.58335 6.6665C7.58335 8.00119 8.66533 9.08317 10 9.08317C11.3347 9.08317 12.4167 8.00119 12.4167 6.6665C12.4167 5.33182 11.3347 4.24984 10 4.24984Z" fill="#818294"/>
</svg>
