<svg width="30" height="29" viewBox="0 0 30 29" fill="none" xmlns="http://www.w3.org/2000/svg">
<path fill-rule="evenodd" clip-rule="evenodd" d="M11.5472 8.19719C11.2838 7.61083 11.0065 7.5991 10.7559 7.58884C10.5509 7.58003 10.3162 7.58057 10.0819 7.58057C9.84747 7.58057 9.46646 7.66879 9.14424 8.02112C8.82185 8.37345 7.91327 9.22518 7.91327 10.9574C7.91327 12.6899 9.17355 14.3638 9.34922 14.5989C9.52507 14.8337 11.782 18.5022 15.3565 19.9135C18.3271 21.0864 18.9316 20.8531 19.5764 20.7944C20.2212 20.7357 21.657 19.9428 21.95 19.1206C22.2431 18.2986 22.2431 17.5939 22.1552 17.4467C22.0673 17.2999 21.8328 17.2119 21.4811 17.0358C21.1294 16.8598 19.4005 16.0078 19.0781 15.8905C18.7557 15.7731 18.5213 15.7144 18.2868 16.0669C18.0523 16.4191 17.3788 17.2119 17.1736 17.4467C16.9684 17.682 16.7633 17.7113 16.4116 17.5352C16.0599 17.3586 14.9272 16.9872 13.5836 15.7877C12.5382 14.8546 11.8324 13.702 11.6273 13.3496C11.4221 12.9974 11.6053 12.8067 11.7817 12.6311C11.9396 12.4734 12.1334 12.2201 12.3092 12.0145C12.4847 11.8089 12.5433 11.6622 12.6606 11.4274C12.7778 11.1923 12.7192 10.9867 12.6313 10.8107C12.5433 10.6346 11.8599 8.89339 11.5472 8.19719Z" fill="#818294"/>
<path d="M25.0205 4.13121C22.3631 1.46872 18.8296 0.00166679 15.0649 0C7.30698 0 0.993644 6.31905 0.990526 14.0861C0.989611 16.5688 1.63753 18.9924 2.86904 21.1287L0.872375 28.4282L8.33333 26.4694C10.389 27.5918 12.7035 28.1833 15.0588 28.1842H15.0648H15.0649C22.8215 28.1842 29.1357 21.8641 29.139 14.0974C29.1403 10.3332 27.6776 6.79389 25.0205 4.13121ZM15.0649 25.8051H15.0603C12.9609 25.804 10.9021 25.2397 9.10636 24.1728L8.67899 23.9192L4.25151 25.0814L5.43357 20.7609L5.15514 20.318C3.98407 18.4537 3.36584 16.2992 3.36675 14.087C3.36931 7.63132 8.61671 2.37933 15.0693 2.37933C18.194 2.38062 21.1307 3.60007 23.3395 5.81305C25.5481 8.02602 26.7635 10.9678 26.7626 14.0966C26.7599 20.5524 21.5123 25.8051 15.0649 25.8051Z" fill="#818294"/>
</svg>
