<svg width="29" height="21" viewBox="0 0 29 21" fill="none" xmlns="http://www.w3.org/2000/svg">
<path d="M28.2711 3.24691C28.1085 2.63509 27.7881 2.07671 27.3419 1.62765C26.8957 1.17858 26.3393 0.85458 25.7286 0.688075C23.4802 0.0834962 14.4932 0.0834961 14.4932 0.0834961C14.4932 0.0834961 5.50626 0.0834962 3.25788 0.688075C2.64712 0.85458 2.0908 1.17858 1.6446 1.62765C1.1984 2.07671 0.877974 2.63509 0.715385 3.24691C0.114075 5.50509 0.114075 10.2143 0.114075 10.2143C0.114075 10.2143 0.114075 14.9234 0.715385 17.1816C0.877974 17.7934 1.1984 18.3518 1.6446 18.8009C2.0908 19.25 2.64712 19.574 3.25788 19.7405C5.50626 20.345 14.4932 20.345 14.4932 20.345C14.4932 20.345 23.4802 20.345 25.7286 19.7405C26.3393 19.574 26.8957 19.25 27.3419 18.8009C27.7881 18.3518 28.1085 17.7934 28.2711 17.1816C28.8724 14.9234 28.8724 10.2143 28.8724 10.2143C28.8724 10.2143 28.8724 5.50509 28.2711 3.24691Z" fill="#818294"/>
<path d="M11.5521 14.4903V5.93799L19.0684 10.2142L11.5521 14.4903Z" fill="#F0FBFF"/>
</svg>
